<svg xmlns="http://www.w3.org/2000/svg" width="14" height="14" viewBox="0 0 14 14">
  <path id="Path_826" data-name="Path 826" d="M6.666-2.959a.767.767,0,0,1-1.083,0l-1.75-1.75a.767.767,0,0,1,0-1.083.767.767,0,0,1,1.083,0L6.125-4.583,9.084-7.541a.767.767,0,0,1,1.083,0,.767.767,0,0,1,0,1.083ZM14-5.25a7,7,0,0,1-7,7,7,7,0,0,1-7-7,7,7,0,0,1,7-7A7,7,0,0,1,14-5.25ZM7-10.937A5.687,5.687,0,0,0,1.313-5.25,5.687,5.687,0,0,0,7,.438,5.687,5.687,0,0,0,12.688-5.25,5.687,5.687,0,0,0,7-10.937Z" transform="translate(0 12.25)" fill="#fff"/>
</svg>
