<svg xmlns="http://www.w3.org/2000/svg" width="32.06" height="32.06" viewBox="0 0 32.06 32.06"><path d="M16.03,30.056A14.026,14.026,0,1,0,2,16.03,14.026,14.026,0,0,0,16.03,30.056Zm0,2A16.03,16.03,0,1,0,0,16.03,16.03,16.03,0,0,0,16.03,32.06Z" fill-rule="evenodd"/><path d="M9.579,27.252a1,1,0,0,0,1.369-.367,7.016,7.016,0,0,1,12.151,0,1,1,0,1,0,1.735-1,9.02,9.02,0,0,0-15.622,0,1,1,0,0,0,.368,1.367Z" transform="translate(-0.994 -2.34)" fill-rule="evenodd"/><path d="M15.257,14.256c0,1.659-.9,3.006-2,3.006s-2-1.347-2-3.006.9-3.006,2-3.006S15.257,12.6,15.257,14.256Zm8.015,0c0,1.659-.9,3.006-2,3.006s-2-1.347-2-3.006.9-3.006,2-3.006S23.272,12.6,23.272,14.256Z" transform="translate(-1.231 -1.231)"/></svg>