<svg id="emoji-laughing" xmlns="http://www.w3.org/2000/svg" width="32.06" height="32.06" viewBox="0 0 32.06 32.06">
  <path id="Path_517" data-name="Path 517" d="M16.03,30.056A14.026,14.026,0,1,0,2,16.03,14.026,14.026,0,0,0,16.03,30.056Zm0,2A16.03,16.03,0,1,0,0,16.03,16.03,16.03,0,0,0,16.03,32.06Z" fill-rule="evenodd"/>
  <path id="Path_518" data-name="Path 518" d="M25.579,21.252a2,2,0,0,1,0,2,10.02,10.02,0,0,1-17.355,0,2,2,0,0,1,1.734-3H23.843a2,2,0,0,1,1.735,1Z" transform="translate(-0.871 -2.216)" fill-rule="evenodd"/>
  <path id="Path_519" data-name="Path 519" d="M15.257,14.256c0,1.659-.9,0-2,0s-2,1.659-2,0,.9-3.006,2-3.006S15.257,12.6,15.257,14.256Zm8.015,0c0,1.659-.9,0-2,0s-2,1.659-2,0,.9-3.006,2-3.006S23.272,12.6,23.272,14.256Z" transform="translate(-1.231 -1.231)"/>
</svg>
