<?xml version="1.0" encoding="utf-8"?>
<!-- Generator: Adobe Illustrator 26.3.1, SVG Export Plug-In . SVG Version: 6.00 Build 0)  -->
<svg version="1.1" id="Capa_1" xmlns="http://www.w3.org/2000/svg" xmlns:xlink="http://www.w3.org/1999/xlink" x="0px" y="0px"
	 viewBox="0 0 536.5 533" style="enable-background:new 0 0 536.5 533;" xml:space="preserve">
<path d="M340,116h-25V56c0-11.2-5.4-21.8-14.5-28.4s-20.8-8.4-31.5-4.9L24,103.6c-14.4,4.7-24,18.1-24,33.2v279.5V498
	c0,19.3,15.7,35,35,35h305c19.3,0,35-15.7,35-35V151C375,131.7,359.3,116,340,116z M345,498c0,2.8-2.2,5-5,5H35c-2.8,0-5-2.2-5-5
	v-96.7V151c0-2.8,2.2-5,5-5h305c2.8,0,5,2.2,5,5V498z M278.4,51.2c2.1-0.7,3.7,0.1,4.5,0.7c0.8,0.6,2.1,1.8,2.1,4.1v60H82.1
	L278.4,51.2z"/>
<path d="M87.5,319.5h18.2h181.8c8.3,0,15-6.7,15-15s-6.7-15-15-15h-4.3c-6.5-41.4-39.3-74.2-80.7-80.7v-7.5c0-8.3-6.7-15-15-15
	s-15,6.7-15,15v7.5c-41.4,6.5-74.2,39.3-80.7,80.7h-4.3c-8.3,0-15,6.7-15,15S79.2,319.5,87.5,319.5z M187.5,237.7
	c31.7,0,58.3,22.2,65.1,51.8H122.4C129.2,259.8,155.8,237.7,187.5,237.7z"/>
<path d="M93.3,360c-8.3,0-15,6.7-15,15s6.7,15,15,15h72c8.3,0,15-6.7,15-15s-6.7-15-15-15H93.3z"/>
<path d="M283.8,420H91.2c-8.3,0-15,6.7-15,15s6.7,15,15,15h192.5c8.3,0,15-6.7,15-15S292,420,283.8,420z"/>
<g>
	<g>
		<path d="M533.2,352C533.2,352,533.2,352,533.2,352l-59.1-58.8c-4.4-4.4-11.6-4.4-16,0c-4.4,4.4-4.4,11.6,0,16l39.7,39.5H258.3
			c-6.2,0-11.3,5.1-11.3,11.3c0,6.2,5.1,11.3,11.3,11.3h239.5l-39.7,39.5c-4.4,4.4-4.4,11.6,0,16c4.4,4.4,11.6,4.4,16,0l59.1-58.8
			c0,0,0,0,0,0C537.6,363.6,537.6,356.4,533.2,352z"/>
	</g>
</g>
</svg>
