<?xml version="1.0" encoding="utf-8"?>
<!-- Generator: Adobe Illustrator 26.3.1, SVG Export Plug-In . SVG Version: 6.00 Build 0)  -->
<svg version="1.1" id="Layer_1" xmlns="http://www.w3.org/2000/svg" xmlns:xlink="http://www.w3.org/1999/xlink" x="0px" y="0px"
	 viewBox="0 0 512 512" style="enable-background:new 0 0 512 512;" xml:space="preserve">
<style type="text/css">
	.st0{fill:#FFFFFF;}
</style>
<path class="st0" d="M149.3,442.7c68.8,0,122.7-82,122.7-186.7S218.1,69.3,149.3,69.3S26.7,151.3,26.7,256S80.5,442.7,149.3,442.7z
	 M149.3,101.3c42.1,0,78.5,52,88.1,119.5c-19.4-13.3-46-8.4-59.3,11c-13.3,19.4-8.4,46,11,59.3c14.5,10,33.7,10,48.3,0
	c-9.6,67.5-46,119.5-88.1,119.5c-49.1,0-90.7-70.8-90.7-154.7S100.2,101.3,149.3,101.3L149.3,101.3z M485.3,256
	c0,104.7-53.9,186.7-122.7,186.7c-31.2-1.1-60.1-16.6-78.3-41.9c6.1-10.9,11.5-22.2,15.9-33.8c11.8,24.4,35.4,41,62.4,43.7
	c42.1,0,78.5-52,88.1-119.5c-19.4,13.3-46,8.4-59.3-11c-13.3-19.4-8.4-46,11-59.3c14.5-10,33.7-10,48.3,0
	c-9.6-67.5-46-119.5-88.1-119.5c-27,2.7-50.6,19.3-62.4,43.7c-4.5-11.6-9.8-22.9-15.9-33.8c18.2-25.3,47.1-40.8,78.3-41.9
	C431.5,69.3,485.3,151.3,485.3,256L485.3,256z"/>
</svg>
