<?xml version="1.0" encoding="utf-8"?>
<!-- Generator: Adobe Illustrator 26.3.1, SVG Export Plug-In . SVG Version: 6.00 Build 0)  -->
<svg version="1.1" id="Layer_1" xmlns="http://www.w3.org/2000/svg" xmlns:xlink="http://www.w3.org/1999/xlink" x="0px" y="0px"
	 viewBox="0 0 512 512" style="enable-background:new 0 0 512 512;" xml:space="preserve">
<path d="M187.1,164.2h125.3c0.4-2.4,0.7-4.5,1-6.2c0.1-0.9-0.5-1.8-1.4-2c-0.1,0-0.2,0-0.2,0h-124c-0.9,0-1.7,0.7-1.7,1.7
	c0,0.1,0,0.2,0,0.2C186.4,159.7,186.7,161.8,187.1,164.2L187.1,164.2z"/>
<path d="M202.3,244.7c0.6,8.8,1.1,17.2,2.2,21.3c0.3,1,0.7,1.9,1.2,2.9H294c0.4-0.8,0.6-1.6,0.9-2.4c1.2-4.2,1.7-12.8,2.3-21.8
	c0.7-12.2,1.6-26,4.4-34.5c1.3-4,2.6-8.3,3.7-12.6h-111c1.1,4.2,2.4,8.5,3.7,12.6C200.7,218.5,201.6,232.4,202.3,244.7z"/>
<path d="M178.2,296.4h147.4c8,0,15.5-3.9,20.3-10.4h-188C162.6,292.5,170.1,296.4,178.2,296.4z"/>
<path d="M153.8,281.5h196c2.2,0,4.1-1.8,4.1-4.1s-1.8-4.1-4.1-4.1h-196c-2.2,0-4.1,1.8-4.1,4.1S151.5,281.5,153.8,281.5L153.8,281.5
	z"/>
<path d="M184.2,233.6h12.9c-0.2-2.1-0.4-4.2-0.6-6.2h-11.1c-11.3-0.1-20.3-9.3-20.2-20.6c0.1-11.1,9.1-20.1,20.2-20.2h1.6
	c-0.5-2.1-0.9-4.1-1.3-6.1h-1.4c-14.7,0-26.6,11.9-26.6,26.6C157.7,221.7,169.6,233.6,184.2,233.6L184.2,233.6z"/>
<path d="M311.6,168.7H187.9c1.2,6.8,3,15.5,5.2,24.3h113.3C308.6,184.2,310.4,175.6,311.6,168.7L311.6,168.7z"/>
<path d="M233.8,119.2c2.1,3.5,3.4,6.2,3.2,10.1c1.4-1.8,2.6-3.9,3.2-6.1c1.2-4.1,0.3-8.3-2.9-13.4c-3.9-6.2-5.2-12.2-3.9-17.7
	c0.3-1.4,0.8-2.8,1.5-4.1c-2.1,1.4-3.9,3.2-5.2,5.4c-2.6,4.5-2.6,10.3-0.1,17.2C230.8,113.6,232.1,116.4,233.8,119.2L233.8,119.2z"
	/>
<path d="M263.9,126.4c1.7,3,2.9,5.3,2.9,8.3c4-5.7,3.7-10.3-0.2-16.5c-3.5-5.6-4.7-11-3.5-16c0.2-1,0.6-1.9,0.9-2.9
	c-1.6,1.1-2.9,2.6-3.8,4.2c-2.2,4-2.3,9-0.1,15.1C261.1,121.4,262.4,124,263.9,126.4L263.9,126.4z"/>
</svg>
