<?xml version="1.0" encoding="utf-8"?>
<!-- Generator: Adobe Illustrator 27.0.0, SVG Export Plug-In . SVG Version: 6.00 Build 0)  -->
<svg version="1.1" id="Layer_1" xmlns="http://www.w3.org/2000/svg" xmlns:xlink="http://www.w3.org/1999/xlink" x="0px" y="0px"
	 viewBox="0 0 1070.2 418.3" style="enable-background:new 0 0 1070.2 418.3;" xml:space="preserve">
<style type="text/css">
	.st0{fill:#FFFFFF;}
</style>
<g>
	<path class="st0" d="M524.6,277.8c-70.8,0-113.4-68.1-113.4-138.9S453.8,0,524.6,0C595.4,0,638,68.1,638,138.9
		S595.4,277.8,524.6,277.8z M524.6,47.9c-41.7,0-59.6,46.2-59.6,91s17.9,91,59.6,91c41.7,0,59.6-46.2,59.6-91S566.3,47.9,524.6,47.9
		z"/>
	<path class="st0" d="M725,225.9h109.8v47.5H646.6L752.4,52h-94.1V4.5h174.3L725,225.9z"/>
	<path class="st0" d="M961.5,282.3c-70.8,0-113.4-68.1-113.4-138.9S890.6,4.5,961.5,4.5c70.8,0,113.4,68.1,113.4,138.9
		S1032.3,282.3,961.5,282.3z M961.5,52.4c-41.7,0-59.6,46.2-59.6,91s17.9,91,59.6,91c41.7,0,59.6-46.2,59.6-91
		S1003.1,52.4,961.5,52.4z"/>
	<g>
		<path class="st0" d="M206,95l-14.9-9c0,0-27.5-20.2-31.7-18.6c-27.4,10.8-21.7,62.5-12.5,75.8c9.5,13.7,58.1-20.5,60.2-21.3
			c0.8-0.3,3.2,1.1,4.9,1.2c2.7,0,4.8-1.2,4.8-1.2s17.2,21.2,44.8,21.9s19.3-71.2,9.2-78.9c-10.1-7.7-53.5,30.9-53.5,30.9
			s-2.3-2.7-5.7-2.9C208.7,92.6,206,95,206,95z"/>
		<g>
			<path class="st0" d="M146.9,143.1c1.6,2.3,4.3,3.2,7.6,3.2c4.9,0,11.2-2,17.7-4.9l-19.5-70.1C133.3,87.5,138.6,131.1,146.9,143.1
				z"/>
			<path class="st0" d="M424.3,289.8l22.3,33.5l118.2,0.1c-25,39-109.9,61.4-147.5,18.5c-45-51.4-80-337.4-80-337.4h-63l-14.7,53
				c2.8-1,5.5-1.6,7.8-1.6c3.2,0,6,0.9,8.3,2.6c11.4,8.7,16.6,51.5,9.1,73.9c-5.6,16.7-16.6,19.1-22.6,19.1l-0.6,0
				c-10.1-0.3-18.9-2.9-26.3-6.4l-31,111.5l-29.9-107.5c-7.3,3.1-14.1,5.1-19.8,5.1c-7.8,0-12-3.6-14.1-6.6
				c-8-11.6-12.3-40.3-5.9-61.4c3.1-10.3,8.6-18.1,15.9-22.9L134.2,4.5h-63L4.6,348.8l67.1,13.4l39.1-232.9l61.9,225.3h63L297,129.4
				c0,0,31.4,219,86.6,263.4c37.5,30.2,156.1,37.1,224-44.2c15-18,39.9,16.5,80.8,6c28.4-7.2,77.7-31.5,77.7-31.5l271.8,0.2
				l22.3-33.5L424.3,289.8z"/>
			<path class="st0" d="M262.1,143.7c27.1,0,18.8-71.2,8.8-78.9c-0.9-0.7-2.1-1-3.5-1c-2.8,0-6.4,1.3-10.4,3.3l-19.6,70.4
				c6.7,3.4,14.9,6,24.3,6.3C261.8,143.7,262,143.7,262.1,143.7z"/>
		</g>
	</g>
</g>
</svg>
