<svg id="Group_664" data-name="Group 664" xmlns="http://www.w3.org/2000/svg" xmlns:xlink="http://www.w3.org/1999/xlink" width="11.7" height="11.677" viewBox="0 0 11.7 11.677">
  <defs>
    <clipPath id="clip-path">
      <rect id="Rectangle_325" data-name="Rectangle 325" width="11.7" height="11.677" fill="#fff"/>
    </clipPath>
  </defs>
  <g id="Group_663" data-name="Group 663" clip-path="url(#clip-path)">
    <path id="Path_714" data-name="Path 714" d="M0,68.933q0-1.91,0-3.819a1.172,1.172,0,0,1,1.245-1.241h4.57a.389.389,0,1,1,.038.777c-.114,0-.227,0-.341,0H1.247c-.321,0-.466.146-.466.468q0,3.813,0,7.626c0,.323.145.468.467.468H8.889c.331,0,.471-.142.471-.476q0-2.256,0-4.512a.677.677,0,0,1,.018-.18.383.383,0,0,1,.418-.278.4.4,0,0,1,.342.358c0,.028,0,.057,0,.085q0,2.293,0,4.585a1.157,1.157,0,0,1-.867,1.153,1.32,1.32,0,0,1-.337.042q-3.863,0-7.726,0A1.167,1.167,0,0,1,0,72.788q0-1.928,0-3.856" transform="translate(0 -62.316)" fill="#fff"/>
    <path id="Path_715" data-name="Path 715" d="M197.677.779h-.131q-1.194,0-2.388,0a.392.392,0,0,1-.4-.346.388.388,0,0,1,.295-.419A.554.554,0,0,1,195.182,0h3.436a.391.391,0,0,1,.424.424q0,1.721,0,3.441a.389.389,0,0,1-.767.118.679.679,0,0,1-.012-.157q0-1.167,0-2.335V1.336c-.052.048-.086.079-.119.112q-2.705,2.7-5.41,5.4a.41.41,0,0,1-.437.138.386.386,0,0,1-.188-.611,1.3,1.3,0,0,1,.1-.105L197.594.9A.985.985,0,0,1,197.7.816l-.023-.037" transform="translate(-187.343 0)" fill="#fff"/>
  </g>
</svg>
