<svg xmlns="http://www.w3.org/2000/svg" width="94.886" height="58.261" viewBox="0 0 94.886 58.261"><g transform="translate(-114 -129.864)"><g transform="translate(129.864 127.614)"><path d="M20.084,33.118l-9.959-9.961,2.815-2.815,7.144,7.142,15.108-15.11,2.819,2.819Z" transform="translate(6.068 7.802)" fill="#1ec2a1"/><path d="M30.136,2.25A27.886,27.886,0,1,0,58.021,30.136,27.886,27.886,0,0,0,30.136,2.25Zm0,51.788a23.9,23.9,0,1,1,23.9-23.9,23.9,23.9,0,0,1-23.9,23.9Z" transform="translate(0 0)" fill="#1ec2a1"/></g><path d="M30.75,9.75,33.375,4.5,36,9.75l5.25,2.625L36,15l-2.625,5.25L30.75,15,25.5,12.375ZM43.875,22.875,46.5,25.5l-2.625,2.625L41.25,25.5Z" transform="translate(162.386 125.364)" fill="#1ec2a1" fill-rule="evenodd"/><path d="M9.75,36l2.625-5.25L15,36l5.25,2.625L15,41.25,12.375,46.5,9.75,41.25,4.5,38.625ZM7.125,20.25,9.75,22.875,7.125,25.5,4.5,22.875Z" transform="translate(109.5 141.625)" fill="#1ec2a1" fill-rule="evenodd"/></g></svg>