<svg fill="none" height="40" viewBox="0 0 40 40" width="40" xmlns="http://www.w3.org/2000/svg"><g clip-rule="evenodd" fill="rgb(0,0,0)" fill-rule="evenodd"><path d="m18.75 5.01666c0-.69035.5596-1.25 1.25-1.25 7.3472 0 13.7943 4.92829 15.691 12.04394 1.8955 7.0948-1.2083 14.6055-7.5834 18.2723-6.3743 3.6831-14.4103 2.6168-19.60967-2.6006-.48731-.489-.48594-1.2805.00306-1.7678s1.28046-.4859 1.76781.0031c4.4003 4.4156 11.197 5.3162 16.5891 2.2001l.0023-.0013c5.3908-3.1001 8.0198-9.4556 6.4155-15.4604-1.6036-6.0173-7.0565-10.18934-13.2757-10.18934-.6904 0-1.25-.55964-1.25-1.25z"/><path d="m6.28334 25.65.96182-.4812c.00002.0001-.00003 0 0 0-.14483.0724-.42387.2121-.96182.4812zm1.26309-.0314c-.0115-.1583-.04805-.2805-.06893-.3431-.01499-.045-.03012-.083-.0427-.1123-.00642-.015-.01253-.0286-.01811-.0405l-.00807-.017-.00378-.0077-.00182-.0037-.00089-.0018c-.00002 0-.00071-.0014-.01563.006.00006.0001-.00005-.0001 0 0l.01475-.0078c-.06007-.12-.13909-.2296-.23403-.3246-.28533-.2853-.61227-.3471-.71139-.3636-.12418-.0208-.23114-.0193-.23875-.0192-.30884 0-.6639.1083-.94453.3889-.28069.2805-.38923.6353-.38923.9444s.10848.6637.38884.9442c.28043.2805.63512.3892.9445.3892.37379 0 .6469-.1573.79641-.2724.14713-.1132.23996-.2337.28814-.3026.05268-.0753.08892-.1425.11089-.1864.00425-.0086.00825-.0167.01199-.0246.04745-.0972.08265-.2016.10359-.311.02165-.1118.0275-.2241.01875-.3344zm-.23641.502c.00003-.0001-.00002 0 0 0-.14683-.0589-.43698-.1748-1.01002-.404z"/><path d="m6.29064 20.5476c-.00374.0079-.00774.0161-.012.0246-.02198.0439-.05825.1112-.11095.1864-.04822.0689-.14109.1894-.28824.3026-.14954.115-.42254.2721-.79611.2721-.30883 0-.66348-.1083-.94411-.3888-.28069-.2806-.38923-.6354-.38923-.9445 0-.3092.10854-.6639.38923-.9445.28063-.2805.63528-.3888.94411-.3888.00304-.0001.11187-.002.23804.0189.09926.0165.42675.0781.7125.3638.09493.095.17396.2046.23403.3246l-.01491.0075c.00005.0001-.00005-.0001 0 0 .01491-.0074.01488-.0075.01491-.0075l.00087.0018.0009.0018.00181.0037.00377.0077.00806.0169c.00558.012.01168.0255.0181.0405.01257.0293.0277.0673.04269.1122.02085.0625.05747.1848.06899.3433.00876.1103.00291.2228-.01877.3346-.02096.1094-.05619.2138-.10369.3111zm-.11402-.1435c.00003 0-.00002.0001 0 0-.14681-.0589-.43694-.1748-1.00994-.4041zm-.06481-.952c.00003.0001-.00002 0 0 0l-.96182.4812c.53796-.2691.817-.4088.96182-.4812z"/><path d="m6.28334 14.2333.96182-.4811c.00002 0-.00003-.0001 0 0-.14483.0723-.42387.212-.96182.4811zm1.26309-.0313c-.0115-.1584-.04805-.2806-.06893-.3432-.01499-.045-.03012-.083-.0427-.1123-.00642-.015-.01253-.0285-.01811-.0405l-.00807-.017-.00378-.0077-.00182-.0037-.00089-.0018c-.00002 0-.00071-.0014-.01563.006.00006.0001-.00005-.0001 0 0l.01475-.0077c-.06007-.1201-.13909-.2297-.23403-.3247-.28533-.2853-.61227-.3471-.71139-.3636-.12418-.0207-.23114-.0193-.23875-.0192-.30884 0-.6639.1084-.94453.3889-.28069.2805-.38923.6353-.38923.9445 0 .309.10848.6636.38884.9441.28043.2805.63512.3892.9445.3892.37379 0 .6469-.1573.79641-.2723.14713-.1133.23996-.2338.28814-.3027.05268-.0752.08892-.1425.11089-.1864.00425-.0085.00825-.0167.01199-.0246.04745-.0972.08265-.2015.10359-.311.02165-.1117.0275-.2241.01875-.3343zm-.23641.5019c.00003-.0001-.00002 0 0 0-.14683-.0589-.43698-.1748-1.01002-.4039z"/><path d="m9.51668 9.38332.96212-.48058c-.1449.07226-.424.21179-.96212.48058zm1.26312-.03131c-.0115-.15826-.048-.28037-.0688-.34284-.015-.0449-.0301-.08285-.0426-.11214-.0064-.01495-.0125-.02847-.0181-.04041l-.008-.01694-.0038-.00772-.0018-.00367-.0009-.00179c0-.00005-.0007-.00143-.0156.00596 0 .00009-.0001-.00009 0 0l.0147-.00772c-.0601-.12034-.1392-.23018-.2343-.3253-.2854-.28534-.61232-.3471-.71143-.36365-.12419-.02073-.23115-.01926-.23876-.01916.00005 0-.00023.00001 0 0-.30938 0-.66448.1087-.94491.38925-.28036.28049-.38884.63505-.38884.94412 0 .30914.10854.6639.38923.9445.28063.2805.63527.3888.94411.3888.37356 0 .6466-.1571.7961-.2721.1472-.1132.24-.2337.2882-.3026.0528-.0752.089-.1425.111-.1864.0043-.0085.0083-.0167.012-.02456.0475-.09729.0827-.20167.1037-.31112.0217-.11181.0275-.22425.0188-.33451zm-.2365.50213c0-.00006 0 .00006 0 0-.1468-.05887-.437-.17485-1.00996-.40414z"/><path d="m14.35 6.14998.9621-.48059c.0001.00004 0-.00004 0 0-.1448.07226-.424.21179-.9621.48059zm1.2631-.03135c-.0115-.15824-.048-.28034-.0688-.34279-.015-.04491-.0301-.08285-.0426-.11214-.0064-.01496-.0125-.02848-.0181-.04041l-.008-.01695-.0038-.00771-.0018-.00368-.0009-.00179c0-.00005-.0007-.00142-.0156.00596.0001.00009 0-.00009 0 0l.0148-.00772c-.0602-.12034-.1393-.23018-.2344-.3253-.2852-.28521-.612-.34704-.7113-.36363-.1242-.02075-.2313-.01928-.2388-.01917-.3094 0-.6645.10869-.9449.38924-.2804.28049-.3889.63505-.3889.94412 0 .30915.1085.66392.3892.94449.2807.28051.6353.38883.9441.38883.3736 0 .6467-.15716.7963-.27222.1471-.11321.24-.23377.2882-.30266.0527-.0753.089-.14256.111-.18651.0042-.00852.0082-.01672.012-.02455.0474-.09726.0826-.2016.1035-.31101.0217-.11178.0275-.22417.0188-.3344zm-.2364.50191c0-.00006 0 .00006 0 0-.1468-.05883-.437-.17473-1.01-.40388z"/><path d="m15.7333 17.5c-.2993 0-.5757.2028-.6612.5142-.1828.6657-.8706 1.0572-1.5363.8745-.6657-.1828-1.0573-.8706-.8745-1.5363.3812-1.3886 1.6381-2.3524 3.072-2.3524 1.7904 0 3.2334 1.443 3.2334 3.2333 0 .6632-.2127 1.2725-.5716 1.7673.3603.4985.5716 1.11.5716 1.766 0 1.7904-1.443 3.2334-3.2334 3.2334-1.451 0-2.7161-.9831-3.0764-2.3688-.1737-.6681.2271-1.3506.8952-1.5243.6682-.1737 1.3506.2271 1.5244.8952.073.281.3413.4979.6568.4979.4097 0 .7334-.3237.7334-.7334 0-.284-.2314-.5166-.5167-.5166-.6903 0-1.25-.5597-1.25-1.25 0-.6904.5597-1.25 1.25-1.25.284 0 .5167-.2314.5167-.5167 0-.4096-.3237-.7333-.7334-.7333z"/><path d="m23.8833 17.5c-.5522 0-1 .4477-1 1v3c0 .5523.4478 1 1 1 .5523 0 1-.4477 1-1v-3c0-.5523-.4477-1-1-1zm-3.5 1c0-1.933 1.567-3.5 3.5-3.5 1.9331 0 3.5 1.567 3.5 3.5v3c0 1.9329-1.5669 3.5-3.5 3.5-1.933 0-3.5-1.567-3.5-3.5z"/></g></svg>