<?xml version="1.0" encoding="UTF-8"?>
<svg xmlns="http://www.w3.org/2000/svg" id="Layer_3" data-name="Layer 3" viewBox="0 0 64 64" width="512" height="512"><path d="M52,18.5V2a1,1,0,0,0-2,0V18.5a6.031,6.031,0,0,1-2.4,4.8l-1.2.9a1,1,0,0,0-.4.864l1.917,29.715c.054.826.081,1.671.081,2.51V58a3,3,0,0,1-6,0v-.711c0-.839.027-1.684.081-2.511L44,25.064a1,1,0,0,0-.4-.864l-1.2-.9A6.031,6.031,0,0,1,40,18.5V2a1,1,0,0,0-2,0V18.5a8.039,8.039,0,0,0,3.2,6.4l.767.576L40.085,54.649c-.057.87-.085,1.758-.085,2.64V58a5,5,0,0,0,10,0v-.711c0-.882-.028-1.77-.085-2.64L48.033,25.476,48.8,24.9A8.039,8.039,0,0,0,52,18.5Z"/><path d="M43,18a1,1,0,0,0,1-1V2a1,1,0,0,0-2,0V17A1,1,0,0,0,43,18Z"/><path d="M47,18a1,1,0,0,0,1-1V2a1,1,0,0,0-2,0V17A1,1,0,0,0,47,18Z"/><path d="M29.688,6.029A7.959,7.959,0,0,0,22.261,1h-.522a7.959,7.959,0,0,0-7.427,5.029l-.238.593A28.874,28.874,0,0,0,12,17.392v.328a8.034,8.034,0,0,0,5.8,7.692l1.147.328L17.085,54.649c-.057.87-.085,1.758-.085,2.64V58a5,5,0,0,0,10,0v-.711c0-.882-.028-1.77-.085-2.64L25.05,25.74l1.147-.328A8.034,8.034,0,0,0,32,17.72v-.328a28.874,28.874,0,0,0-2.074-10.77ZM30,17.72a6.026,6.026,0,0,1-4.352,5.769l-1.922.55A1,1,0,0,0,23,25.064l1.917,29.715c.054.826.081,1.671.081,2.51V58a3,3,0,0,1-6,0v-.711c0-.839.027-1.684.081-2.511L21,25.064a1,1,0,0,0-.724-1.025l-1.922-.55A6.026,6.026,0,0,1,14,17.72v-.328A26.848,26.848,0,0,1,15.932,7.365l.237-.594A5.969,5.969,0,0,1,21.739,3h.522a5.968,5.968,0,0,1,5.57,3.772l.237.593A26.848,26.848,0,0,1,30,17.392Z"/></svg>
