<?xml version="1.0" encoding="UTF-8" standalone="no"?>
<!-- Created with Inkscape (http://www.inkscape.org/) -->

<svg
   version="1.1"
   id="svg1551"
   xml:space="preserve"
   width="682.66669"
   height="682.66669"
   viewBox="0 0 682.66669 682.66669"
   xmlns="http://www.w3.org/2000/svg"
   xmlns:svg="http://www.w3.org/2000/svg"><defs
     id="defs1555"><clipPath
       clipPathUnits="userSpaceOnUse"
       id="clipPath1569"><path
         d="M 0,512 H 512 V 0 H 0 Z"
         id="path1567" /></clipPath></defs><g
     id="g1557"
     transform="matrix(1.3333333,0,0,-1.3333333,0,682.66667)"><g
       id="g1559"
       transform="translate(60,256)"><path
         d="M 0,0 H 60"
         style="fill:none;stroke:#000000;stroke-width:30;stroke-linecap:butt;stroke-linejoin:miter;stroke-miterlimit:10;stroke-dasharray:none;stroke-opacity:1"
         id="path1561" /></g><g
       id="g1563"><g
         id="g1565"
         clip-path="url(#clipPath1569)"><g
           id="g1571"
           transform="translate(30,196)"><path
             d="M 0,0 H 60"
             style="fill:none;stroke:#000000;stroke-width:30;stroke-linecap:butt;stroke-linejoin:miter;stroke-miterlimit:10;stroke-dasharray:none;stroke-opacity:1"
             id="path1573" /></g><g
           id="g1575"
           transform="translate(0,136)"><path
             d="M 0,0 H 60"
             style="fill:none;stroke:#000000;stroke-width:30;stroke-linecap:butt;stroke-linejoin:miter;stroke-miterlimit:10;stroke-dasharray:none;stroke-opacity:1"
             id="path1577" /></g><g
           id="g1579"
           transform="translate(467,376)"><path
             d="m 0,0 h -302 c 0,-120 -30,-150 -30,-270 v -91 H 30 v 91 C 30,-150 0,-120 0,0 Z"
             style="fill:none;stroke:#000000;stroke-width:30;stroke-linecap:butt;stroke-linejoin:miter;stroke-miterlimit:10;stroke-dasharray:none;stroke-opacity:1"
             id="path1581" /></g><g
           id="g1583"
           transform="translate(316,271)"><path
             d="M 0,0 V -45"
             style="fill:none;stroke:#000000;stroke-width:30;stroke-linecap:butt;stroke-linejoin:miter;stroke-miterlimit:10;stroke-dasharray:none;stroke-opacity:1"
             id="path1585" /></g><g
           id="g1587"
           transform="translate(195,106)"><path
             d="M 0,0 H 242"
             style="fill:none;stroke:#000000;stroke-width:30;stroke-linecap:square;stroke-linejoin:miter;stroke-miterlimit:10;stroke-dasharray:none;stroke-opacity:1"
             id="path1589" /></g><g
           id="g1591"
           transform="translate(225,106)"><path
             d="m 0,0 v 30 c 0,49.706 41.294,90 91,90 49.706,0 91,-40.294 91,-90 V 0"
             style="fill:none;stroke:#000000;stroke-width:30;stroke-linecap:square;stroke-linejoin:miter;stroke-miterlimit:10;stroke-dasharray:none;stroke-opacity:1"
             id="path1593" /></g><g
           id="g1595"
           transform="translate(225,331)"><path
             d="m 0,0 v 121 c 19.959,29.939 55.479,44.999 91,45 35.517,0.001 71.036,-15.053 91,-45 V 0"
             style="fill:none;stroke:#000000;stroke-width:30;stroke-linecap:butt;stroke-linejoin:miter;stroke-miterlimit:10;stroke-dasharray:none;stroke-opacity:1"
             id="path1597" /></g></g></g></g></svg>
