<?xml version="1.0" encoding="UTF-8"?>
<svg id="allergen_icons" data-name="allergen icons" xmlns="http://www.w3.org/2000/svg" viewBox="0 0 311.43 314.01">
  <defs>
    <style>
      .cls-1 {
        fill: #d3e9ca;
      }

      .cls-2 {
        fill: #6eb74e;
      }
    </style>
  </defs>
  <path class="cls-1" d="m210.87,130.73c1.2-4.44-11.01-.77-12.77-.11-1.63.62-2.83-1.36-1.58-2.54,4.05-3.84,7.03-8.35,8.97-13.5-6.36,1.22-11.67,5.23-14.47,11.29-.72,1.55-3.59,1.23-3.18-.69,1.83-8.56,3.03-17.23,3.49-25.98.2-3.82.26-7.65.18-11.48-.05-2.55,0-5.24-.3-7.77-.35-2.9-2.18-5.13-4.78-2.45-2.94,3.04-3.94,9.42-4.87,13.3-.87,3.64-1.58,7.33-2.14,11.03-1.33,8.91-1.64,17.87-1.08,26.86.09,1.4-1.76,1.87-2.35.6-1.71-3.69-4.23-6.67-7.52-8.89,1.79,7.61,7.3,18.27,8.88,23.58.02.05.04.1.05.16,0,.02.01.04.02.06,0,.01,0,.03,0,.04,0,.03.01.05.01.08.23,11.19-2.4,22.8-3.83,33.89-1,7.78-1.46,15.9-3.05,23.68.75,7.23,1.32,14.49,1.15,21.7-.21,9.05-1.81,18.74-8.46,25.41-.54.55-1.31-.12-1.03-.77,8.78-19.77,4.62-41.02,2.28-61.77-1.35-11.97-2.77-23.94-4.23-35.89-1.37-11.22-3.62-32.12-3.72-33.78-.15-2.58,4.47-13.88,8-19.9,1.84-3.14,3.68-6.29,5.49-9.45.77-1.34,3.36-3.99.41-4.27-1.38-.13-4.59,2.08-5.89,2.67-1.4.64-2.63-1.03-1.82-2.24,3.87-5.81,6.46-12.1,7.78-18.87-4.02,2.99-7,6.97-8.84,11.74-.55,1.44-2.84.82-2.6-.69,1-6.51,1.35-13.05.85-19.62-.22-2.93-.59-5.85-1.11-8.74-.29-1.58-.62-3.15-.99-4.71-.24-.93-.48-1.85-.72-2.78-1.21-1.78-1.92-2-2.13-.64-1.37.96-1.72,7.26-1.91,9.09-.41,3.86-.37,7.74-.08,11.61.42,5.57,1.4,11.06,2.41,16.55.33,1.79-2.49,2.84-3.1,1.03-1.86-5.44-4.46-10.46-8.24-14.83-1.07-1.23-2.22-2.55-3.51-3.56-3-3.49-9-3.41-6.23,2,.79,1.55,4.18,5.49,4.98,6.68,6.07,9.03,10.17,19.1,12.45,29.71.15.69-.46,1.3-1.09,1.42-.93.17-1.87.33-2.8.5.92,3.44,2.99,7.52,4.64,10.67,3.24,6.16,2.58,23.08,2.65,34.73.08,12.21-.38,24.4-.84,36.6-.46,12.24-.77,24.48-.59,36.74.08,5.51.14,11.05.89,16.51.4,2.89.99,5.72,1.8,8.53.71,2.5,1.92,4.87,2.21,7.45.07.6-.7,1.16-1.23.8-7.47-5.01-7.8-18.71-8.19-26.68-.34-6.88-2.2-35.7-5.42-55.86-1.04-6.53-2.16-13.05-3.57-19.51-2.33-12.97-5.65-13.61-3.46-17.85.61-1.18,2.73-4.5,3.25-5.72,3.85-9.11-5.39-2.73-5.23-4.24,1.35-12.58,7.15-26.32,4.13-38.97-4.71,6.75-7.1,14.69-6.73,23.03.07,1.5-2.12,2.44-2.73.8-1.99-5.43-4.06-10.87-6.89-15.93-2.25-4.01-7.28-12.15-12.6-13.5,2.91,12.03,7.76,23.75,15.05,33.79,1.11,1.53-.08,3.15-1.8,1.75-6.1-4.97-13.85-6.8-21.63-6.06,1.24,2.3,5.04,5.09,6.35,6.32,1.92,1.81,3.86,3.62,5.81,5.39,3.88,3.52,7.91,6.84,11.94,10.18.41.34.83.69,1.23,1.04,2.03,1.74,3.99,3.59,5.64,5.71,1.62,2.08,2.77,4.49,3.33,7.06.58,2.7.71,5.46.87,8.2.39,6.58.61,13.18.81,19.77.2,6.59.37,13.19.66,19.78.29,6.58.7,13.17,1.37,19.72,1.42,13.92,5.55,51.99,26.83,45.86,4.9-4.01,6.87-10.96,8.69-16.96,2.7-8.9,4.37-18.07,5.38-27.31,1.01-9.24,1.3-18.53,1.45-27.82.15-9.16-1.09-19.5.57-28.53.06-.31,1.06-1.3,1.4-1.64,5.44-5.44,12.09-9.97,17.99-14.9,1.41-1.18,2.82-2.37,4.22-3.57.97-.83,4.44-2.96,4.76-4.15Z"/>
  <path class="cls-2" d="m289.61,132.89c-7.29-73.54-74.38-121.95-146.21-119.13C71.78,16.57,12.39,86.97,23.08,158.03c11.17,74.3,65.98,130.31,144.11,123.53,72.59-6.3,129.56-76.68,122.43-148.67-2.71-27.34,2.72,27.45,0,0Zm-21.57,55c-21.23,58.44-83.07,88.25-142.21,76.05-62.29-12.85-101.93-90.26-84.8-150.72,44.27-156.24,281.34-74.89,227.01,74.67-8.73,24.04,8.39-23.1,0,0Z"/>
  <path class="cls-2" d="m212.28,126.1c-2.96-1.05-6.59-.72-9.97.08,3.05-3.82,5.36-8.12,6.86-12.89.37-1.19-.51-2.14-1.69-2.06-5.9.38-11.18,2.94-15.09,7.01,2.44-15.42,6.18-48.09-4.25-45.86-3.2.69-5.1,4.85-6.21,7.54-1.99,4.81-3.05,10.16-4.01,15.25-1.8,9.52-2.47,19.23-2.2,28.91-2.19-2.97-5-5.34-8.46-7.1-.74-.38-1.82.32-1.63,1.18,1.91,8.98,5.36,19.22,10.68,26.75.3.43,1.28-.18,1.13-.71-1.49-5.23-7.13-16.09-8.95-23.79,3.29,2.22,5.81,5.2,7.52,8.89.59,1.27,2.43.8,2.35-.6-.56-8.99-.25-17.95,1.08-26.86.55-3.71,1.26-7.39,2.14-11.03.93-3.88,1.93-10.26,4.87-13.3,2.6-2.68,4.43-.45,4.78,2.45.3,2.53.25,5.22.3,7.77.07,3.83.01,7.66-.18,11.48-.45,8.75-1.66,17.42-3.49,25.98-.41,1.92,2.46,2.24,3.18.69,2.79-6.05,8.11-10.06,14.47-11.29-1.94,5.15-4.92,9.66-8.97,13.5-1.25,1.18-.05,3.16,1.58,2.54,1.76-.66,13.97-4.34,12.76.11-.32,1.19-3.79,3.32-4.76,4.15-1.4,1.2-2.81,2.39-4.22,3.57-5.9,4.93-12.55,9.46-17.99,14.9-.35.35-1.35,1.33-1.4,1.64-1.66,9.03-.42,19.37-.57,28.53-.15,9.29-.44,18.57-1.45,27.82-1.01,9.24-2.67,18.41-5.38,27.31-1.82,6-3.79,12.95-8.69,16.96-21.28,6.13-25.41-31.94-26.83-45.86-.67-6.56-1.08-13.14-1.37-19.72-.29-6.59-.46-13.19-.66-19.78-.2-6.59-.42-13.18-.81-19.77-.16-2.74-.29-5.51-.87-8.2-.55-2.58-1.71-4.98-3.33-7.06-1.64-2.12-3.61-3.97-5.64-5.71-.41-.35-.82-.7-1.23-1.04-4.03-3.34-8.06-6.66-11.94-10.18-1.96-1.78-3.89-3.58-5.81-5.39-1.32-1.24-5.11-4.02-6.35-6.32,7.78-.74,15.53,1.08,21.63,6.06,1.73,1.41,2.91-.22,1.8-1.75-7.29-10.04-12.14-21.76-15.05-33.79,5.32,1.35,10.35,9.49,12.6,13.5,2.83,5.06,4.9,10.5,6.89,15.93.6,1.64,2.79.7,2.73-.8-.36-8.34,2.02-16.28,6.73-23.03,3.03,12.64-2.77,26.39-4.13,38.97-.16,1.51,9.08-4.88,5.23,4.24-.52,1.23-2.64,4.54-3.25,5.72-2.19,4.24,1.13,4.88,3.46,17.85,1.41,6.46,2.53,12.98,3.57,19.51,3.21,20.15,5.08,48.98,5.42,55.86.39,7.97.72,21.67,8.19,26.68.53.36,1.3-.2,1.23-.8-.29-2.58-1.5-4.95-2.21-7.45-.8-2.81-1.4-5.64-1.8-8.53-.75-5.46-.81-11.01-.89-16.51-.18-12.25.12-24.49.59-36.74.46-12.2.92-24.39.84-36.6-.07-11.66.59-28.57-2.65-34.73-1.65-3.15-3.72-7.23-4.64-10.67.93-.17,1.87-.33,2.8-.5.63-.11,1.24-.72,1.09-1.42-2.28-10.62-6.38-20.69-12.45-29.71-.8-1.19-4.18-5.13-4.98-6.68-2.77-5.42,3.23-5.5,6.23-2,1.29,1.01,2.44,2.33,3.51,3.56,3.79,4.37,6.38,9.38,8.24,14.83.62,1.8,3.43.75,3.1-1.03-1.01-5.48-1.99-10.98-2.41-16.55-.29-3.87-.33-7.75.08-11.61.19-1.82.54-8.12,1.91-9.09.2-1.36.91-1.14,2.13.64.24.93.48,1.85.72,2.78.37,1.56.7,3.13.99,4.71.53,2.89.89,5.81,1.11,8.74.49,6.57.14,13.12-.85,19.62-.23,1.51,2.05,2.13,2.6.69,1.84-4.78,4.82-8.76,8.84-11.74-1.32,6.77-3.91,13.06-7.78,18.87-.81,1.21.41,2.88,1.82,2.24,1.3-.59,4.51-2.8,5.89-2.67,2.95.28.35,2.93-.41,4.27-1.81,3.17-3.65,6.31-5.49,9.45-3.53,6.02-8.15,17.32-7.99,19.9.1,1.66,2.35,22.56,3.72,33.78,1.46,11.96,2.89,23.92,4.23,35.89,2.34,20.75,6.5,42-2.28,61.77-.29.64.48,1.31,1.03.77,6.65-6.67,8.25-16.36,8.46-25.41.17-7.22-.41-14.47-1.15-21.7,1.59-7.78,2.04-15.89,3.05-23.68,1.43-11.08,4.06-22.69,3.83-33.89-.02-.91-1.2-.87-1.47-.14-3.57,9.84-4.42,21.11-5.88,31.42-.42,2.98-.91,6.03-1.37,9.1-1.21-11.41-2.57-22.8-4.12-34.18-1.64-12.08-3.15-24.34-6.24-36.15,3.03-4.2,5.59-8.78,8.07-13.3,2.69-4.91,5.61-9.84,7.99-14.91.93-1.97,1.66-4.58-.56-5.97-1.68-1.05-3.92-.42-6.04.56,3.1-5.86,5.11-12.15,5.98-18.82.13-.96-1.01-2-1.95-1.45-3.78,2.22-6.91,5.08-9.32,8.52.45-6.27.27-12.56-.64-18.8-.44-3.04-1.27-15.58-6.56-15.04-2.44.25-3.03,3.31-3.6,5.19-1.13,3.71-1.71,7.54-1.89,11.41-.22,4.76.12,9.5.68,14.23-1.79-2.84-3.88-5.49-6.32-7.84-3.3-3.19-9.91-6.97-13.23-1.51-1.12,1.84-.78,3.82.26,5.61,2.22,3.8,5.46,7.06,7.78,10.85,4.49,7.35,7.81,15.29,9.91,23.63-.91.18-1.83.36-2.74.54-.84.17-1.2.87-.99,1.67,1.23,4.72,3.64,9.95,6.58,13.73-.39,12.21-.16,23.21-.65,35.44-.45,11-1.02,21.99-1.48,32.99-.57-3.46-1.23-6.81-1.68-9.89-1.78-11.98-3.49-26.29-10.06-36.81,3.1-4.02,7.06-10.21,4.76-14.66-.95-1.84-3.54-1.52-5.3-1.27,2.17-12.99,8.06-26.71,3.49-39.72-.4-1.14-1.94-1.07-2.6-.26-4.86,6.01-7.78,13.03-8.68,20.51-1.93-4.73-4.12-9.35-7.01-13.58-3-4.38-8.46-11.31-14.27-11.3-.85,0-1.75.62-1.55,1.6,2.14,10.67,5.98,20.78,11.36,30.14-5.91-2.8-12.55-3.71-19.21-2.69-.85.13-1.34.96-1.44,1.73-.45,3.64,3.05,6.1,5.38,8.38,4.07,3.99,8.32,7.78,12.69,11.44,7.28,6.09,18.17,11.1,19.12,21.15,2.43,25.71-2.15,52.31,2.3,77.82,1.82,10.45,4.15,23.19,11.76,31.17,4.01,4.2,11.3,7.11,16.82,5.04,5.34-.96,8.57-7.33,10.42-12.09,3.65-9.45,5.91-19.48,7.43-29.47,1.58-10.44,2.3-21.04,2.4-31.6.1-10.12.85-21.49-1.56-31.39,5.42-2.86,10.11-6.57,14.82-10.47,2.63-2.17,5.24-4.38,7.82-6.62,2.21-1.92,5.04-3.85,6.84-6.19,1.74-2.26,1.53-4.96-1.42-6Z"/>
</svg>