<?xml version="1.0" encoding="UTF-8"?> <svg xmlns="http://www.w3.org/2000/svg" xmlns:xlink="http://www.w3.org/1999/xlink" width="50px" height="50px" viewBox="0 0 50 50"><title>gluten</title><desc>Created with Sketch.</desc><g id="Page-1" stroke="none" stroke-width="1" fill="none" fill-rule="evenodd"><g id="gluten" transform="translate(1.000000, 1.000000)" fill-rule="nonzero"><circle id="Ellipse_1_copy" stroke="#FFE5AD" stroke-width="2" fill="#FCF1D7" cx="24" cy="24" r="24"></circle><g id="Group" transform="translate(16.881356, 7.728814)"><path d="M7.17376194,32.5423729 C6.91058656,32.5423729 6.69706702,32.3291016 6.69706702,32.065678 L6.69706702,12.7133541 C6.69706702,12.4499305 6.91058656,12.2366592 7.17376194,12.2366592 C7.43718553,12.2366592 7.65045685,12.4499305 7.65045685,12.7133541 L7.65045685,32.065678 C7.65045685,32.3288532 7.43718553,32.5423729 7.17376194,32.5423729 Z" id="Path" fill="#F9972D"></path><path d="M1.45491261,10.1444154 C1.19173729,10.1444154 0.97821769,9.93089581 0.97821769,9.66772049 L0.97821769,4.84043961 C0.97821769,4.57701604 1.19173729,4.3637447 1.45491261,4.3637447 C1.71833619,4.3637447 1.93160752,4.57701604 1.93160752,4.84043961 L1.93160752,9.66747216 C1.93160752,9.93089581 1.71833619,10.1444154 1.45491261,10.1444154 Z" id="Path" fill="#FEB644"></path><path d="M12.8926112,10.1444154 C12.6294359,10.1444154 12.4159163,9.93089581 12.4159163,9.66772049 L12.4159163,4.84043961 C12.4159163,4.57701604 12.6294359,4.3637447 12.8926112,4.3637447 C13.1560348,4.3637447 13.3695544,4.57701604 13.3695544,4.84043961 L13.3695544,9.66747216 C13.3695544,9.93089581 13.1560348,10.1444154 12.8926112,10.1444154 Z" id="Path" fill="#FEB644"></path><path d="M7.17376194,2.92298396 C6.91058656,2.92298396 6.69706702,2.70946436 6.69706702,2.44628904 L6.69706702,0.476694915 C6.69706702,0.213271334 6.91058656,0 7.17376194,0 C7.43718553,0 7.65045685,0.213271334 7.65045685,0.476694915 L7.65045685,2.44628904 C7.65045685,2.70946436 7.43718553,2.92298396 7.17376194,2.92298396 Z" id="Path" fill="#FEB644"></path><path d="M7.58292508,4.39428299 C7.36394333,4.15171475 6.98358051,4.15171475 6.76459881,4.39428299 C5.66820051,5.60935843 5.01398638,7.13999605 5.01398638,8.80395921 C5.01398638,10.4679224 5.66820051,11.99856 6.76459881,13.2136354 C6.98358051,13.4562037 7.36394333,13.4562037 7.58292508,13.2136354 C8.67932339,11.99856 9.33353746,10.4679224 9.33353746,8.80395921 C9.33353746,7.13999605 8.67932339,5.60935843 7.58292508,4.39428299 Z" id="Path" fill="#FFC850"></path><path d="M3.49377649,11.5357687 L1.78189551,11.5357687 C1.60139695,11.5357687 1.45491261,11.6820048 1.45491261,11.8625033 L1.45491261,13.5743842 C1.45491261,15.5985997 3.11093085,17.254618 5.13489801,17.254618 L6.84677898,17.254618 C7.02752581,17.254618 7.17376194,17.1081336 7.17376194,16.9276351 L7.17376194,15.2157541 C7.17376194,13.1917869 5.51774363,11.5357687 3.49377649,11.5357687 L3.49377649,11.5357687 Z" id="Path" fill="#FFC850"></path><path d="M10.8537473,11.5357687 L12.5656283,11.5357687 C12.7463751,11.5357687 12.8926112,11.6820048 12.8926112,11.8625033 L12.8926112,13.5743842 C12.8926112,15.5985997 11.2365929,17.254618 9.21262576,17.254618 L7.50074485,17.254618 C7.32024628,17.254618 7.17376194,17.1081336 7.17376194,16.9276351 L7.17376194,15.2157541 C7.17376194,13.1917869 8.82978018,11.5357687 10.8537473,11.5357687 L10.8537473,11.5357687 Z" id="Path" fill="#FFC850"></path><path d="M3.16232453,17.254618 L1.2960143,17.254618 C1.09912939,17.254618 0.939734492,17.4140129 0.939734492,17.6108978 L0.939734492,19.477208 C0.939734492,21.6834118 2.74496821,23.4886454 4.95142017,23.4886454 L6.81748214,23.4886454 C7.01436706,23.4886454 7.17376194,23.3292504 7.17376194,23.1323656 L7.17376194,21.2663036 C7.17376194,19.0598517 5.36852821,17.254618 3.16232453,17.254618 L3.16232453,17.254618 Z" id="Path" fill="#FFC850"></path><path d="M11.1854476,17.254618 L13.0515095,17.254618 C13.2483945,17.254618 13.4080376,17.4140129 13.4080376,17.6108978 L13.4080376,19.477208 C13.4080376,21.6834118 11.6028039,23.4886454 9.39635199,23.4886454 L7.53028995,23.4886454 C7.33340504,23.4886454 7.17376194,23.3292504 7.17376194,23.1323656 L7.17376194,21.2663036 C7.17376194,19.0598517 8.97899561,17.254618 11.1854476,17.254618 L11.1854476,17.254618 Z" id="Path" fill="#FFC850"></path><path d="M2.55751786,23.4886454 L0.410156249,23.4886454 C0.183726165,23.4886454 0,23.6723715 0,23.8988016 L0,26.0461633 C0,28.5850603 2.07734707,30.6626557 4.61624402,30.6626557 L6.76385396,30.6626557 C6.99028405,30.6626557 7.17376194,30.4789294 7.17376194,30.2524993 L7.17376194,28.1051378 C7.17376194,25.5659925 5.09641487,23.4886454 2.55751786,23.4886454 Z" id="Path" fill="#FFC850"></path><path d="M11.7902542,23.4886454 L13.9376158,23.4886454 C14.1640459,23.4886454 14.3477721,23.6723715 14.3477721,23.8988016 L14.3477721,26.0461633 C14.3477721,28.5850603 12.2701768,30.6626557 9.73127982,30.6626557 L7.58391814,30.6626557 C7.35748804,30.6626557 7.17376194,30.4789294 7.17376194,30.2524993 L7.17376194,28.1051378 C7.17376194,25.5659925 9.25110897,23.4886454 11.7902542,23.4886454 Z" id="Path" fill="#FFC850"></path><g transform="translate(0.000000, 4.194915)" fill="#FEB644" id="Path"><path d="M6.94584216,4.60904396 C6.94584216,3.24996687 7.38231598,1.9797736 8.13981395,0.898023687 C7.96974311,0.655207245 7.78403073,0.421825361 7.58292508,0.199367733 C7.36419159,-0.0432005085 6.98358051,-0.0432005085 6.76459881,0.199367733 C5.66820051,1.41444318 5.01423464,2.9450808 5.01423464,4.60904396 C5.01423464,6.27300712 5.66820051,7.80364475 6.76459881,9.01872018 C6.98358051,9.26128843 7.36419159,9.26128843 7.58292508,9.01872018 C7.78403073,8.7960143 7.96974311,8.56288068 8.13981395,8.32006424 C7.38231598,7.23831433 6.94584216,5.96812106 6.94584216,4.60904396 Z"></path><path d="M3.3867684,9.37946898 L3.3867684,7.66758807 C3.3867684,7.50248276 3.50991458,7.36717092 3.66906114,7.34532242 C3.61096397,7.34234306 3.55261849,7.34085344 3.49377649,7.34085344 L1.78189551,7.34085344 C1.60139695,7.34085344 1.45491261,7.48708951 1.45491261,7.66758807 L1.45491261,9.37946898 C1.45491261,11.4036845 3.11093085,13.0597027 5.13489801,13.0597027 L6.84677898,13.0597027 C6.86217228,13.0597027 6.87657242,13.05722 6.89122086,13.0552337 C4.94794424,12.9628741 3.3867684,11.3448425 3.3867684,9.37946898 L3.3867684,9.37946898 Z"></path><path d="M9.1053694,12.7327198 L9.1053694,11.0208388 C9.1053694,9.05571368 10.6667936,7.43768205 12.6100702,7.34532242 C12.5954218,7.34308792 12.5810216,7.34085344 12.5656283,7.34085344 L10.8537473,7.34085344 C8.82978018,7.34085344 7.17376194,8.99687168 7.17376194,11.0208388 L7.17376194,12.7327198 C7.17376194,12.9132184 7.32024628,13.0597027 7.50074485,13.0597027 L9.21262576,13.0597027 C9.27146784,13.0597027 9.32981327,13.0579647 9.38791049,13.0552337 C9.22876391,13.0333852 9.1053694,12.8980734 9.1053694,12.7327198 L9.1053694,12.7327198 Z"></path><path d="M2.87134202,15.2820445 L2.87134202,13.4159825 C2.87134202,13.2265459 3.0190678,13.0721167 3.20577332,13.0606958 C3.19112485,13.0604476 3.17672473,13.0597027 3.16207627,13.0597027 L1.2960143,13.0597027 C1.09912939,13.0597027 0.939486228,13.2190976 0.939486228,13.4159825 L0.939486228,15.2822928 C0.939486228,17.4884964 2.74496823,19.2937302 4.95117191,19.2937302 L6.81723382,19.2937302 C6.8246822,19.2937302 6.83213058,19.2932336 6.83933066,19.292737 C4.65298926,19.2689023 2.87134202,17.473848 2.87134202,15.2820445 L2.87134202,15.2820445 Z"></path><path d="M9.1053694,18.9374504 L9.1053694,17.0713884 C9.1053694,14.8795849 10.887265,13.0845306 13.0736063,13.0606958 C13.0664063,13.0604476 13.0589579,13.0597027 13.0515095,13.0597027 L11.1854476,13.0597027 C8.97899561,13.0597027 7.17376194,14.8649364 7.17376194,17.0713884 L7.17376194,18.9374504 C7.17376194,19.1343353 7.33340504,19.2939784 7.53028995,19.2939784 L9.39635199,19.2939784 C9.41100039,19.2939784 9.42515225,19.2929853 9.43980069,19.292737 C9.25334351,19.2813162 9.1053694,19.1268869 9.1053694,18.9374504 Z"></path><path d="M1.93160752,21.8512481 L1.93160752,19.7038864 C1.93160752,19.4774563 2.11533368,19.2937302 2.34176378,19.2937302 L0.410156249,19.2937302 C0.183726165,19.2937302 0,19.4774563 0,19.7038864 L0,21.8512481 C0,24.390145 2.07734707,26.4677404 4.61624402,26.4677404 L6.54809988,26.4677404 C4.00895459,26.4677404 1.93160752,24.390145 1.93160752,21.8512481 L1.93160752,21.8512481 Z"></path><path d="M9.1053694,26.0575841 L9.1053694,23.9102225 C9.1053694,21.3710772 11.1829647,19.2937302 13.7218618,19.2937302 L11.7902542,19.2937302 C9.25110897,19.2937302 7.17376194,21.3710772 7.17376194,23.9102225 L7.17376194,26.0575841 C7.17376194,26.2840141 7.35748804,26.4677404 7.58391814,26.4677404 L9.51552572,26.4677404 C9.28909564,26.4677404 9.1053694,26.2840141 9.1053694,26.0575841 L9.1053694,26.0575841 Z"></path></g></g></g></g></svg> 