<?xml version="1.0" encoding="UTF-8"?>
<svg id="allergen_icons" data-name="allergen icons" xmlns="http://www.w3.org/2000/svg" viewBox="0 0 311.43 314.01">
  <defs>
    <style>
      .cls-1 {
        fill: #f76a6a;
      }

      .cls-2 {
        fill: #fddada;
      }
    </style>
  </defs>
  <g>
    <path class="cls-1" d="m288.43,134.66c0-.1-.02-.17-.02-.23,0,.06.01.13.02.23Z"/>
    <path class="cls-1" d="m289.24,142.16c-.04-.49-.09-.96-.13-1.4.04.46.08.92.13,1.4Z"/>
    <path class="cls-1" d="m288.4,134.43c-.01-.14-.01-.15,0,0h0Z"/>
    <path class="cls-1" d="m288.73,137.71c0,.08.02.16.02.25h0c0-.08-.02-.16-.02-.25Z"/>
    <path class="cls-1" d="m288.45,134.88c0-.08-.02-.15-.02-.22,0,.06.01.14.02.22Z"/>
    <path class="cls-1" d="m288.63,135.51c-.02-.24-.04-.38-.04-.45,0,.07.02.23.04.45Z"/>
    <path class="cls-1" d="m289.11,140.76c-.21-2.31-.4-4.35-.48-5.26.07.75.22,2.4.48,5.26Z"/>
    <path class="cls-1" d="m288.59,135.06c0-.06,0-.06,0,0h0Z"/>
    <path class="cls-1" d="m288.53,135.75c-.01-.15-.03-.29-.04-.41.01.13.03.26.04.41Z"/>
    <path class="cls-1" d="m288.49,135.34c-.01-.1-.02-.2-.03-.28,0,.08.02.18.03.28Z"/>
    <path class="cls-1" d="m288.47,135.06c0-.07-.01-.12-.02-.18,0,.06.01.12.02.18Z"/>
    <path class="cls-1" d="m289.24,142.16c.02.24.04.47.07.73.01.14.02.27.04.41-.03-.38-.07-.76-.1-1.14Z"/>
    <path class="cls-1" d="m288.73,137.71c-.06-.58-.11-1.08-.15-1.5.04.44.09.95.15,1.5Z"/>
    <path class="cls-1" d="m288.58,136.21c-.02-.16-.03-.32-.05-.46.01.14.03.3.05.46Z"/>
    <path class="cls-1" d="m289.92,149.77c.01.1.02.18.02.24,0-.06-.01-.14-.02-.24Z"/>
    <path class="cls-1" d="m289.83,148.83c0,.06.01.12.02.18,0-.06-.01-.12-.02-.18Z"/>
    <path class="cls-1" d="m289.68,147.36c.06.56.11,1.06.15,1.48-.04-.39-.09-.88-.15-1.48Z"/>
    <path class="cls-1" d="m289.56,146.09c-.07-1.06-.15-2.13-.25-3.2-.15-1.66-.34-3.3-.56-4.93.01.12.02.24.04.36-.01-.12-.02-.24-.04-.36-9.2-70.83-74.53-117.52-144.76-115.29-58.59,1.86-109.33,49-120.32,105.02-.04.22-.08.44-.13.66-.13.66-.25,1.33-.37,1.99-2.13,12.07-2.42,24.52-.54,36.99,11.17,74.3,65.98,130.31,144.11,123.53,59.69-5.18,108.81-53.7,120.42-110.8.05-.25.11-.5.16-.75.1-.51.2-1.03.29-1.55.13-.71.26-1.41.38-2.12.01-.07.02-.14.03-.21,1.62-9.62,2.18-19.45,1.53-29.35.01.14.03.29.04.42-.01-.13-.03-.28-.04-.42Zm-21.96,51.11c-21.23,58.44-83.07,88.25-142.21,76.05-62.29-12.85-101.93-90.26-84.8-150.72,44.27-156.24,281.34-74.89,227.01,74.67Zm2.38-6.55s-.05.14-.12.34c.07-.18.11-.3.12-.34Zm-.14.39c-.06.16-.14.37-.23.64.09-.26.17-.47.23-.64Zm-.38,1.05c-.1.29-.23.62-.37,1.01.13-.37.26-.7.37-1.01Zm-1.2,3.32c-.2.54-.41,1.13-.65,1.78.22-.6.44-1.2.65-1.78Zm-1.32,3.64c-.29.8-.54,1.5-.76,2.1.24-.65.49-1.36.76-2.1Zm-1.09,3.01c-.02.06-.04.12-.06.17.02-.06.04-.11.06-.17Zm-.4,1.1c-.11.3-.19.52-.25.69.06-.18.15-.41.25-.69Zm-.38,1.05s-.02.04,0,0h0Zm23.82-65.05s0-.08-.01-.12c0,.04,0,.08.01.12Zm.25,2.52c-.03-.33-.06-.65-.09-.95.03.31.06.63.09.95Z"/>
    <path class="cls-1" d="m289.6,146.51c.03.3.06.58.08.85-.03-.27-.05-.55-.08-.85Z"/>
    <path class="cls-1" d="m289.95,150.01c.01.15.02.16,0,0h0Z"/>
    <path class="cls-1" d="m289.85,149.02c.03.31.06.57.07.76-.02-.18-.04-.43-.07-.76Z"/>
    <path class="cls-1" d="m289.46,144.59c.13,1.45.24,2.61.32,3.52-.09-1.02-.2-2.23-.32-3.52Z"/>
    <path class="cls-1" d="m289.79,148.1c.02.27.05.52.07.75-.02-.23-.04-.48-.07-.75Z"/>
    <path class="cls-1" d="m289.35,143.3c.04.43.08.86.12,1.29-.04-.41-.08-.83-.12-1.29Z"/>
    <path class="cls-1" d="m289.86,148.85c.03.35.06.65.08.9-.02-.26-.05-.56-.08-.9Z"/>
    <path class="cls-1" d="m289.98,150.17c.01.16.03.29.04.39,0-.1-.02-.23-.04-.39Z"/>
    <path class="cls-1" d="m289.94,149.75c.01.16.03.3.04.42-.01-.12-.02-.26-.04-.42Z"/>
    <path class="cls-1" d="m290.01,150.57c.03.33.03.36,0,0h0Z"/>
  </g>
  <g>
    <path class="cls-2" d="m228.85,127.78c3.14-6.91,5.1-13.48,4.06-21.23-.97-7.28-4.32-14.02-8.65-19.88-4.36-5.9-9.84-11.48-16-15.5-3.13-2.04-6.53-3.69-10.18-4.57-3.17-.77-6.3-.46-9.46-.63,4.25,3.7,6.42,8.78,9.36,13.55,1.56,2.52,4.49,2.41,6.03,4.93,1.73,2.84,1.95,6.36,3.86,9.27,1.64,2.5,4.91,4.39,5.9,7.28.24.69.21,1.44.29,2.15.41,3.5,1.02,4.47,3.05,7.08,3.23,4.16,5.95,9.68,5.78,15.1.75.08,1.5.23,2.21.46,1.32.42,2.71,1.05,3.74,2Z"/>
    <path class="cls-2" d="m204.72,153.04c1.17,1.94,2.03,3.98,2.62,6.11,2.09-1.8,4.49-3.23,6.46-5.2,2.18-2.17,4.11-4.65,5.65-7.31,1.55-2.68,2.71-5.52,3.49-8.51.43-1.66.65-3.34,1.23-4.92-8.55,3.5-15.6,11.77-19.45,19.82Z"/>
    <path class="cls-2" d="m205.63,113.09c-4.09-2.74-6.05-7.03-9.26-10.59-1.93-2.14-2.63-4.63-5.25-6.26-2.07-1.28-3.96-2.69-5.77-4.33-3.5-3.16-6.8-6.83-11.21-8.47,1.23,4.19,1.4,8.66,3.38,12.68,2.46,5,6.13,9.51,9.93,13.54,3.57,3.8,7.48,7.31,11.75,10.32,5.67,4,10.91,5.89,17.8,6.6.21.02.39.08.55.17.58-.5,1.22-.86,1.9-1.09,0,0-.01,0-.02-.02-4.08-4.72-8.59-9.09-13.79-12.56Z"/>
    <path class="cls-2" d="m218.98,132.09s-.01.06-.01.1c2.01-.76,4.12-1.12,6.25-.8.37-.19.89-.09,1.08.33.14.32.26.64.35.98.34-.41.58-.85.52-1.51-.14-1.57-1.88-1.94-3.24-2.2-2.55-.5-5.08-.03-4.96,3.12Z"/>
    <path class="cls-2" d="m88.6,125.32c-.16-5.42,2.55-10.94,5.78-15.1,2.03-2.62,2.64-3.58,3.05-7.08.08-.71.05-1.46.29-2.15.99-2.89,4.26-4.78,5.9-7.28,1.91-2.92,2.13-6.43,3.86-9.27,1.54-2.51,4.47-2.4,6.03-4.93,2.95-4.77,5.12-9.85,9.36-13.55-3.16.18-6.28-.13-9.46.63-3.65.88-7.05,2.52-10.18,4.57-6.16,4.02-11.65,9.6-16,15.5-4.33,5.86-7.67,12.6-8.65,19.88-1.04,7.75.92,14.32,4.06,21.23,1.03-.95,2.42-1.59,3.74-2,.71-.22,1.46-.38,2.21-.46Z"/>
    <path class="cls-2" d="m85.2,131.72c.19-.42.71-.51,1.08-.33,2.14-.32,4.24.04,6.25.8,0-.03-.01-.06-.01-.1.11-3.14-2.41-3.62-4.96-3.12-1.36.27-3.1.64-3.24,2.2-.06.67.19,1.1.52,1.51.1-.33.21-.66.35-.98Z"/>
    <path class="cls-2" d="m94.51,126.58c6.89-.7,12.13-2.6,17.8-6.6,4.26-3.01,8.17-6.52,11.75-10.32,3.8-4.04,7.47-8.54,9.93-13.54,1.98-4.03,2.15-8.49,3.38-12.68-4.42,1.64-7.71,5.31-11.21,8.47-1.81,1.63-3.7,3.05-5.77,4.33-2.63,1.63-3.33,4.12-5.25,6.26-3.21,3.57-5.16,7.86-9.26,10.59-5.19,3.47-9.71,7.84-13.79,12.56,0,0-.01,0-.02.02.68.24,1.32.6,1.9,1.09.16-.09.34-.15.55-.17Z"/>
    <path class="cls-2" d="m92.04,146.65c1.54,2.66,3.47,5.13,5.65,7.31,1.97,1.97,4.37,3.4,6.46,5.2.59-2.13,1.45-4.18,2.62-6.11-3.85-8.05-10.91-16.33-19.45-19.82.58,1.57.8,3.26,1.23,4.92.78,2.99,1.93,5.84,3.49,8.51Z"/>
    <path class="cls-2" d="m194.02,147.42c-7.26-4.86-15.33-5.73-23.55-6.36-3.88-.02-8.03-.76-11.42-.85-2.58-.07-5.17-.26-7.75-.1-11.71.76-23.54.42-33.82,7.3-4.45,2.98-8.24,7.16-9.87,12.34-2.04,6.46-.35,13.3,1.71,19.53,5.48,16.58,19.24,35.82,36.45,41.66,14.31,4.86,27.26-2.06,37.32-11.87,9.34-9.11,15.03-17.48,19.1-29.79,2.06-6.23,3.74-13.07,1.71-19.53-1.63-5.18-5.43-9.36-9.87-12.34Z"/>
    <path class="cls-2" d="m179.54,128.24c1.37-.33-.27-1.69-1.01-2.14-.6-.37-3.3-1.51-3.97-.02-.28.62,2.66,2.72,4.98,2.16Z"/>
    <path class="cls-2" d="m135.65,125.93c-1.18.18-3.24,1.04-2.98,2.12.16.65,1.47.7,2.79.28,1.17-.38,1.99-.85,2.25-1.35.7-1.35-1.47-1.13-2.06-1.04Z"/>
  </g>
  <path class="cls-1" d="m239.67,187.05c-2.42-6.25-11.27-8.98-17.34-9.67-5.7-.65-11.02.08-16.01,2.39.18-.64.36-1.28.52-1.93,1.46-5.72,1.94-11.25,1.02-16.36,5.57-1.33,10.58-7.04,13.54-11.52,2.44-3.69,5.77-9.78,5.62-14.88,1.9-.38,3.45-2.1,3.36-4.12-.03-.61-.17-1.15-.4-1.64,0,0,0,0,0,0,12.62-11.79,6.4-32.83-2.37-44.79-5.03-6.86-11.36-13.28-18.66-17.71-6.08-3.69-16.14-7.55-22.83-3.47-.44.27-.58.72-.51,1.17-.49.33-.73,1.07-.31,1.68,1.95,2.84,4.29,5.35,6.1,8.3,1.65,2.69,2.49,6.48,4.71,8.79,1.63,1.69,4.16,1.51,5.35,3.7,1.27,2.34,1.71,5.01,3.16,7.33,1.92,3.07,5.88,5.99,6.39,9.74.25,1.82.23,3.22,1.18,4.92,1.69,3.03,4.21,5.27,5.69,8.52,1,2.2,1.51,4.48,2.01,6.77-2.82-5.18-6.57-9.19-11.34-12.77-1.11-.83-2.49-1.57-3.42-2.6-2.3-2.52-1.13-3.03-2.45-5.22-.63-1.05-1.3-1.18-2.13-1.96-1.3-1.23-2.4-2.5-3.46-3.9-1.76-2.32-3.97-3.4-6.34-5.03-2.34-1.61-4.38-3.61-6.43-5.56-3.69-3.49-7.32-6.56-12.42-7.56-1.23-.24-2.03,1.03-1.69,2.1,1.97,6.26,1.6,12.26,4.86,18.2,2.88,5.23,6.79,10.09,10.95,14.36,6.79,6.97,18.85,17.85,29.61,15.77-.15,1.06.07,2.14.84,3.05.05.05.1.08.15.13-2.61,1.4-5.01,3.35-7.05,5.21-2.71,2.46-7.1,6.98-7.34,11.15-1.35-1.56-2.95-3.04-4.83-4.4-6.15-4.49-13.9-6.32-21.66-7.57-.25-.04-.49-.07-.73-.1.85-1.1,1.41-2.63,1.81-3.68.37-.95.84-2.12,1-3.26,1.54.26,3.39-.24,4.34-1.23,2.29-2.4-1.21-5.09-3.34-5.81-1.97-.67-6.08-.58-6.83,1.93-.55,1.84,1.33,3.56,3.12,4.18-.55,1.17-.79,2.62-1.16,3.71-.39,1.16-1.18,2.54-1.38,3.85-4.46-.47-8.7-.41-12.55-.27-3.91.14-7.79.08-11.69.07-2.72-.01-5.5.06-8.29.24-.26-1.33-1.21-2.71-1.64-3.9-.36-1-.58-2.02-.97-2.97,1.48-.58,2.84-1.79,3.18-2.97,1.01-3.49-3.02-4.68-5.64-4-2.31.6-6.14,2.21-5.1,5.31.68,2.04,3.29,2.91,5.14,2.05-.02,1.23.38,2.48.8,3.66.31.87.73,2.08,1.35,3.05-8.33.83-16.56,2.94-23.09,7.71-1.88,1.37-3.47,2.84-4.83,4.4-.24-4.16-4.63-8.69-7.34-11.15-2.04-1.86-4.44-3.81-7.05-5.21.05-.04.1-.07.15-.13.77-.9.99-1.99.84-3.05,10.76,2.08,22.82-8.8,29.61-15.77,4.16-4.27,8.07-9.12,10.95-14.36,3.27-5.94,2.89-11.94,4.86-18.2.34-1.07-.46-2.34-1.69-2.1-5.1.99-8.73,4.07-12.42,7.56-2.06,1.94-4.1,3.95-6.43,5.56-2.37,1.64-4.58,2.71-6.34,5.03-1.06,1.39-2.16,2.67-3.46,3.9-.83.78-1.5.92-2.13,1.96-1.32,2.18-.15,2.69-2.45,5.22-.94,1.03-2.32,1.77-3.42,2.6-4.77,3.59-8.52,7.59-11.34,12.77.5-2.3,1-4.57,2.01-6.77,1.48-3.24,4-5.49,5.69-8.52.95-1.7.93-3.09,1.18-4.92.51-3.75,4.47-6.67,6.39-9.74,1.45-2.32,1.89-4.99,3.16-7.33,1.19-2.19,3.73-2.01,5.35-3.7,2.23-2.31,3.06-6.1,4.71-8.79,1.81-2.95,4.15-5.46,6.1-8.3.42-.61.18-1.35-.31-1.68.06-.44-.07-.9-.51-1.17-6.69-4.08-16.75-.22-22.83,3.47-7.3,4.43-13.63,10.85-18.66,17.71-8.77,11.96-14.99,33-2.37,44.79,0,0,0,0,0,0-.23.49-.37,1.04-.4,1.64-.09,2.02,1.46,3.74,3.36,4.12-.15,5.1,3.18,11.19,5.62,14.88,2.96,4.48,7.97,10.19,13.54,11.52-.92,5.1-.43,10.64,1.02,16.36.17.65.34,1.29.52,1.93-4.99-2.31-10.31-3.04-16.01-2.39-6.07.69-14.91,3.42-17.34,9.67-.22.57.18,1.25.86,1.06,6.06-1.74,10.94-5.77,17.3-7,5.12-.99,10.62-.71,15.73.54,1.44,4.75,3.24,9.25,5.44,13.52-14.29-4.58-33.84,7.82-37.08,21.83-.13.58.6,1.04,1.03.59,5.35-5.61,9.1-12,16.05-15.99,7.04-4.04,13.92-4.19,21.58-3.53,2.34,4.08,5.08,7.93,8.24,11.57-19.18,3.23-40.03,20.57-31.16,42,.22.54,1.22.72,1.32-.03,1.23-9.94.49-19.58,7.97-27.39,6.32-6.61,14.95-9.53,23.05-13.26.98,1.07,1.98,2.13,3.04,3.16,4.81,4.72,10.29,9,16.49,11.72,4.06,1.78,9.3,3.32,14.04,2.85,4.74.47,9.99-1.07,14.04-2.85,6.2-2.72,11.68-7,16.49-11.72,1.06-1.03,2.06-2.09,3.04-3.16,8.1,3.73,16.73,6.65,23.05,13.26,7.47,7.81,6.73,17.45,7.97,27.39.09.75,1.09.57,1.32.03,8.87-21.43-11.97-38.77-31.16-42,3.16-3.64,5.9-7.49,8.24-11.57,7.67-.66,14.55-.51,21.58,3.53,6.95,3.99,10.69,10.38,16.05,15.99.43.45,1.16,0,1.03-.59-3.24-14-22.79-26.4-37.08-21.83,2.2-4.27,4.01-8.78,5.44-13.52,5.12-1.25,10.61-1.53,15.73-.54,6.36,1.23,11.25,5.26,17.3,7,.67.19,1.08-.49.86-1.06Zm-65.11-60.97c.67-1.49,3.37-.35,3.97.02.73.45,2.38,1.81,1.01,2.14-2.32.56-5.26-1.54-4.98-2.16Zm42.57-15.85c-2.03-2.62-2.64-3.58-3.05-7.08-.08-.71-.05-1.46-.29-2.15-.99-2.89-4.26-4.78-5.9-7.28-1.91-2.92-2.13-6.43-3.86-9.27-1.54-2.51-4.47-2.4-6.03-4.93-2.95-4.77-5.12-9.85-9.36-13.55,3.16.18,6.28-.13,9.46.63,3.65.88,7.05,2.52,10.18,4.57,6.16,4.02,11.65,9.6,16,15.5,4.33,5.86,7.67,12.6,8.65,19.88,1.04,7.75-.92,14.32-4.06,21.23-1.03-.95-2.42-1.59-3.74-2-.71-.22-1.46-.38-2.21-.46.16-5.42-2.55-10.94-5.78-15.1Zm6.82,18.75c1.36.27,3.1.64,3.24,2.2.06.67-.19,1.1-.52,1.51-.1-.33-.21-.66-.35-.98-.19-.42-.71-.51-1.08-.33-2.14-.32-4.24.04-6.25.8,0-.03.01-.06.01-.1-.11-3.14,2.41-3.62,4.96-3.12Zm-24.75-8.99c-4.26-3.01-8.17-6.52-11.75-10.32-3.8-4.04-7.47-8.54-9.93-13.54-1.98-4.03-2.15-8.49-3.38-12.68,4.42,1.64,7.71,5.31,11.21,8.47,1.81,1.63,3.7,3.05,5.77,4.33,2.63,1.63,3.33,4.12,5.25,6.26,3.21,3.57,5.16,7.86,9.26,10.59,5.19,3.47,9.71,7.84,13.79,12.56,0,0,.01,0,.02.02-.68.24-1.32.6-1.9,1.09-.16-.09-.34-.15-.55-.17-6.89-.7-12.13-2.6-17.8-6.6Zm-63.74,8.33c-1.32.42-2.63.38-2.79-.28-.26-1.07,1.81-1.93,2.98-2.12.58-.09,2.76-.31,2.06,1.04-.26.5-1.08.97-2.25,1.35Zm-43.38-2.68c4.08-4.72,8.59-9.09,13.79-12.56,4.1-2.74,6.05-7.03,9.26-10.59,1.93-2.14,2.63-4.63,5.25-6.26,2.07-1.28,3.96-2.69,5.77-4.33,3.5-3.16,6.8-6.83,11.21-8.47-1.23,4.19-1.4,8.66-3.38,12.68-2.46,5-6.13,9.51-9.93,13.54-3.57,3.8-7.48,7.31-11.75,10.32-5.67,4-10.91,5.89-17.8,6.6-.21.02-.39.08-.55.17-.58-.49-1.22-.86-1.9-1.09,0,0,.01,0,.02-.02Zm-13.49-19.1c.98-7.28,4.32-14.02,8.65-19.88,4.36-5.9,9.84-11.48,16-15.5,3.13-2.04,6.53-3.69,10.18-4.57,3.17-.77,6.3-.46,9.46-.63-4.25,3.7-6.42,8.78-9.36,13.55-1.56,2.52-4.49,2.41-6.03,4.93-1.73,2.84-1.95,6.36-3.86,9.27-1.64,2.5-4.91,4.39-5.9,7.28-.24.69-.21,1.44-.29,2.15-.41,3.5-1.02,4.47-3.05,7.08-3.23,4.16-5.95,9.68-5.78,15.1-.75.08-1.5.23-2.21.46-1.32.42-2.71,1.05-3.74,2-3.14-6.91-5.1-13.48-4.06-21.23Zm6.61,25.17c-.14.32-.26.64-.35.98-.34-.41-.58-.85-.52-1.51.14-1.57,1.88-1.94,3.24-2.2,2.56-.5,5.08-.03,4.96,3.12,0,.03.01.06.01.1-2.01-.76-4.12-1.12-6.25-.8-.37-.19-.89-.09-1.08.33Zm18.96,27.44c-2.09-1.8-4.49-3.23-6.46-5.2-2.18-2.17-4.11-4.65-5.65-7.31-1.55-2.68-2.71-5.52-3.49-8.51-.43-1.66-.65-3.34-1.23-4.92,8.55,3.5,15.6,11.77,19.45,19.82-1.17,1.94-2.03,3.98-2.62,6.11Zm98.03,20.13c-4.07,12.32-9.77,20.69-19.1,29.79-10.06,9.81-23,16.73-37.32,11.87-17.21-5.84-30.97-25.08-36.45-41.66-2.06-6.23-3.74-13.07-1.71-19.53,1.63-5.18,5.43-9.36,9.87-12.34,10.28-6.88,22.11-6.54,33.82-7.3,2.58-.17,5.17.03,7.75.1,3.38.09,7.54.83,11.42.85,8.22.63,16.29,1.5,23.55,6.36,4.45,2.98,8.24,7.16,9.87,12.34,2.04,6.46.35,13.3-1.71,19.53Zm2.54-26.24c3.85-8.05,10.91-16.33,19.45-19.82-.58,1.57-.8,3.26-1.23,4.92-.78,2.99-1.93,5.84-3.49,8.51-1.54,2.66-3.47,5.13-5.65,7.31-1.97,1.97-4.37,3.4-6.46,5.2-.59-2.13-1.45-4.18-2.62-6.11Z"/>
</svg>