<?xml version="1.0" encoding="UTF-8"?>
<svg id="allergen_icons" data-name="allergen icons" xmlns="http://www.w3.org/2000/svg" viewBox="0 0 311.43 314.01">
  <defs>
    <style>
      .cls-1 {
        fill: #f59d1d;
      }

      .cls-2 {
        fill: #fcddb0;
      }

      .cls-3 {
        fill: #fef5e8;
      }

      .cls-4 {
        fill: #fff;
      }
    </style>
  </defs>
  <g>
    <path class="cls-2" d="m170.73,134.8c-2.62-2.97-4.72-4.48-8.21-5.41-2.43-.65-12.38-3.66-22.23,2.46-8.19,5.09-12.39,13.52-12.62,23.86-.17,7.74,1.79,15.74,8.89,19.88,5.41,3.15,11.96,4.51,18.18,4.18,14.06-.76,24.07-11.75,23.26-25.85-.39-6.66-2.79-14.05-7.26-19.12Z"/>
    <path class="cls-3" d="m212.06,138.49c-3.61-4.92-5.29-10.17-3.98-16.24.9-4.16,2.87-8.27,2.98-12.57.12-4.79-2.55-10.06-5.73-13.57-14.95-16.55-36.47-1.43-46.85,0-5.13.71-12.02-1.64-17.36-.54-5.03,1.03-9.36,4.12-14.02,6.11-3.71,1.58-6.69,1.56-10.69,1.9-4.45.37-10.89-1.64-16.85.59-4.3,1.61-7.65,4.37-10.46,7.91-5.56,7.01-8.15,17.61-9.11,26.67-.9,8.49,2.09,15.86,8.95,20.9,4.8,3.52,7.58,7.4,7.78,13.53.26,7.77-3.97,16.39-3.68,24.21.31,8.48,4.44,15.39,10.83,20.76,12.27,10.31,30.38,13.03,45.81,8.41,7.44-2.23,14.05-6.14,19.77-11.37,5.71-5.22,10.64-11.24,17.28-15.37,12.81-7.98,30.92-9.79,40.4-22.49,5.28-7.07,5.63-15.65.24-22.74-4.5-5.93-10.88-10.07-15.31-16.11Zm-42.47,41.46c-10.28,6.44-25.05,5.98-35.35-.2-18.83-11.29-12.34-42.07,5.59-50.82,9.03-4.4,18-3.12,21.34-2.54,3.49.61,8.08,2.62,10.89,5.07,5.13,4.48,7.71,10.39,8.97,16.99,2.21,11.57-.96,24.93-11.43,31.49Z"/>
  </g>
  <g>
    <path class="cls-1" d="m237.02,163.43c-.7-7.7-6.21-13.16-11.91-17.78-4.38-3.55-9.32-6.85-12.05-11.95-2.92-5.45-1.58-10.6.41-16.06,3.06-8.41,3.1-16.48-2.98-23.58-13.46-15.7-33.84-7.61-50.52-1.67-4.78,1.7-14.04-2.73-23.57,1.19-4.18,1.72-10.01,3.59-14.49,4.37-4.57.8-9.26.65-13.87,1.03-8.01.66-14.44,3.56-19.7,9.72-5.34,6.26-9.91,14.12-12.36,21.98-2.3,7.37-2.46,15.37,1.16,22.36,1.54,2.97,3.67,5.62,6.37,7.6,4.28,3.14,8.77,5.02,9.09,11.1.45,8.56-3.85,16.79-3.64,25.47.19,8.22,3.62,15.44,9.21,21.35,11.19,11.84,28.23,17.53,44.32,15.58,7.87-.96,15.46-3.69,22.2-7.84,7.56-4.66,12.86-11.59,19.36-17.47,13.06-11.82,32.57-12.58,45.03-25.27,5.14-5.24,8.61-12.68,7.93-20.13Zm-9.88,13.91c-9.48,12.7-27.59,14.52-40.4,22.49-6.63,4.13-11.57,10.15-17.28,15.37-5.72,5.23-12.33,9.14-19.77,11.37-15.43,4.62-33.54,1.89-45.81-8.41-6.39-5.37-10.52-12.28-10.83-20.76-.29-7.82,3.95-16.44,3.68-24.21-.21-6.14-2.99-10.01-7.78-13.53-6.86-5.04-9.86-12.42-8.95-20.9.96-9.06,3.55-19.66,9.11-26.67,2.81-3.54,6.16-6.3,10.46-7.91,5.96-2.23,12.4-.22,16.85-.59,4-.34,6.98-.32,10.69-1.9,4.66-1.99,8.99-5.07,14.02-6.11,5.34-1.1,12.23,1.25,17.36.54,10.38-1.43,31.9-16.55,46.85,0,3.17,3.51,5.85,8.78,5.73,13.57-.11,4.3-2.08,8.41-2.98,12.57-1.31,6.07.37,11.32,3.98,16.24,4.43,6.03,10.81,10.18,15.31,16.11,5.39,7.09,5.04,15.67-.24,22.74Z"/>
    <path class="cls-1" d="m181.03,148.46c-1.26-6.6-3.83-12.51-8.97-16.99-2.82-2.46-7.4-4.46-10.89-5.07-3.34-.58-12.31-1.87-21.34,2.54-17.93,8.74-24.42,39.53-5.59,50.82,10.31,6.18,25.07,6.64,35.35.2,10.47-6.56,13.64-19.92,11.43-31.49Zm-26.3,31.3c-6.21.33-12.77-1.03-18.18-4.18-7.1-4.13-9.07-12.14-8.89-19.88.23-10.34,4.43-18.77,12.62-23.86,9.85-6.12,19.8-3.11,22.23-2.46,3.49.93,5.59,2.44,8.21,5.41,4.47,5.06,6.88,12.45,7.26,19.12.81,14.1-9.19,25.09-23.26,25.85Z"/>
  </g>
  <path class="cls-1" d="m289.21,144.74c-7.29-73.54-74.38-121.95-146.21-119.13C71.38,28.42,11.99,98.81,22.68,169.88c11.17,74.3,65.98,130.31,144.11,123.53,72.59-6.3,129.56-76.68,122.43-148.67-2.71-27.34,2.72,27.45,0,0Zm-21.57,55c-21.23,58.44-83.07,88.25-142.21,76.05-62.29-12.85-101.93-90.26-84.8-150.72C84.9-31.17,321.97,50.18,267.64,199.74c-8.73,24.04,8.39-23.1,0,0Z"/>
  <path class="cls-4" d="m143.99,171.75c-.27,0-.53-.07-.76-.19-7.83-4.27-10.18-14.28-9.03-22.31.13-.89.8-1.49,1.68-1.49.54,0,1.08.24,1.44.64.36.4.52.91.47,1.45-.8,7.85,2.96,13.39,7.59,19.32.37.48.44,1.08.18,1.61-.28.58-.91.97-1.56.97h0Z"/>
</svg>