<?xml version="1.0" encoding="UTF-8"?>
<svg id="allergen_icons" data-name="allergen icons" xmlns="http://www.w3.org/2000/svg" viewBox="0 0 311.43 314.01">
  <defs>
    <style>
      .cls-1 {
        fill: #e2f5f8;
      }

      .cls-2 {
        fill: #9fdde9;
      }

      .cls-3 {
        fill: #bbe7f0;
      }

      .cls-4 {
        fill: #3ebcd3;
      }
    </style>
  </defs>
  <g>
    <path class="cls-2" d="m172.41,104.16c.72-.46,5.21-2.92,4.46-5.38-.44-1.46-1.97-1.99-4.33-2.02-2.19-.02-4.36.71-6.57.77-1.06.03-2.13-.64-1.81-1.71.77-2.56,1.96-4.13.62-4.5-4.48-.45-9.23,2.83-12.28,4.17-1.41.62-3.13-1.13-2.02-2.44,1.49-1.76,2.46-2.76,2.06-4.86-.32-1.69-2.29-1.17-4.62-.31-1.9.7-3.73,1.59-5.51,2.54-3.96,2.12-7.69,4.69-11.31,7.35-5.71,4.18-10.76,8.98-16.03,13.59,17.6-9.22,38.03-12.86,57.34-7.19Z"/>
    <path class="cls-2" d="m169.37,217.03c-7.29,1.78-14.79,2.71-22.24,2.71-8.4,0-16.71-1.15-24.73-3.39,3.11,3.22,6.68,5.75,10.51,8.32,2.38,1.59,4.83,3.17,7.55,4.12,1.37.48,3.36,1.06,4.79,1.04,1.88-.03,4.68-.06,4.04-2.88-.11-.47.11-.95.62-.99,1.24-.09,1.97.44,2.76.99,2.9,2.01,9.17,2.61,8.32-1.79-.23-1.18,1.03-2.2,2.14-1.74,1.45.6,2.97,1.09,4.55,1.11,2.54.03,4.38-3.04,3.62-5.2-.28-.79-1.05-1.56-1.93-2.31Z"/>
    <path class="cls-1" d="m91.62,146.57c-5.83,2.53-8.31,9.73-4.34,15.53,3.49,5.09,10.02,4.25,14.09.46,4.03-3.75,4.33-9.25,1.21-13.03-2.89-3.5-7.24-4.58-10.97-2.96Z"/>
    <path class="cls-2" d="m138,173.46c-2.39-.53-1.7-2.75.45-2.84,2.18-.09,5-1.34,5-3.73,0-3.28-8.43-3.65-11.41-3.43-1.81.13-2.52-1.36-.82-2.24,4-2.07,7.59-4.99,10.94-8.02,1.87-1.69,3.77-3.58,4.78-5.94,1.93-4.53-2.27-4.06-5.05-2.99-8.18,3.14-19.08,10.01-19.24,19.23-.06,3.55.65,7.11,2.25,10.29,1.88,3.73,4.9,6.76,8.47,8.9,4.22,2.54,9.07,4.77,14.11,4.41.45-.03.99-.08,1.54-.19,1.17-.23,2.35-.71,2.66-1.8.41-1.4-.61-3.02-1.4-4.09-3.02-4.04-7.4-6.48-12.27-7.55Z"/>
    <path class="cls-3" d="m236.3,172.37c-2-.67-2.29-3.06-.64-4.29,9.73-7.25,16.12-17.63,20.26-28.84-7.35,1.69-13.62,10.28-17.9,15.53-2.49,3.06-4.83,6.24-7.06,9.5-1.11,1.62-3.62,6.34-7.54,6.12-4.22-.24-6.62-5.51-7.9-9.23-2.84-8.23-4.83-16.66-8.86-24.44-13.64-26.36-45.6-35.39-72.97-28.37-14.04,3.6-26.89,10.88-37.68,20.5-5.31,4.74-10.07,9.29-14.43,14.91-4.21,5.43-7.77,9.73-12.03,18.07-1.05,1.23-7.85-7.58-10.33-6.5-4.14,1.8,6.83,10.56,8.27,11.61,1.83,1.33,2.68,2.79.76,3.56-1.58.64-3.02,1.45-4.02,2.9-1.18,1.71-.76,5.21.57,6.74,2.13,2.46,7.08.35,9.69.3.52,0,11.7,11.71,18.07,16.16,5.65,3.94,11.59,7.38,17.93,10.07,13.38,5.67,28.05,7.99,42.52,6.86,15.07-1.18,29.88-6.01,42.72-14.01,6.28-3.92,11.61-9.08,17.8-13.1,4.24-2.76,9.48-5.53,14.7-4.54,3.84.73,7.42,3.56,10.92,5.24,2.14,1.02,4.34,1.96,6.59,2.71,5.63,1.88,11.31,2.66,17.11,2.33-6.37-9.52-15.53-16.09-26.56-19.78Zm-134.25-4.89c-5.83,4.62-14.5,2.98-17.76-3.9-2.4-5.06-1.09-10.17,1.88-14.39,2.59-3.68,6.09-4.62,7.44-4.98,4.58-1.21,9.64,1.32,12.03,5.45,3.42,5.9,1.7,13.63-3.6,17.82Zm44.93,23.22c-13.29-.79-28.75-10.99-26.51-27.54.82-6.07,4.69-10.79,8.63-14.21,4.63-4.02,11.21-9.2,17.75-9.02,5.56.15,4.21,6.73,2.26,10.09-2.53,4.36-6.75,7.77-11.19,10.53,3.94.29,7.99,1.37,9.49,4.48,1.52,3.15.14,5.3-2.13,6.66,4.67,2.27,8.93,5.95,10.5,10.71,2.05,6.19-3.68,8.6-8.8,8.3Z"/>
  </g>
  <path class="cls-4" d="m295.89,146.68c-7.29-73.54-74.38-121.95-146.21-119.13C78.06,30.36,18.67,100.75,29.35,171.81c11.17,74.3,65.98,130.31,144.11,123.53,72.59-6.3,129.56-76.68,122.43-148.67-2.71-27.34,2.72,27.45,0,0Zm-21.57,55c-21.23,58.44-83.07,88.25-142.21,76.05-62.29-12.85-101.93-90.26-84.8-150.72C91.58-29.23,328.64,52.12,274.31,201.67c-8.73,24.04,8.39-23.1,0,0Z"/>
  <g>
    <path class="cls-4" d="m269.33,192.88c-6.16-10.79-16.1-19.57-27.83-23.8,9.07-8.53,16.2-19.09,18.94-31.4.23-1.03-.33-2.57-1.67-2.47-9.17.69-15.34,7.57-21.14,14.06-2.58,2.89-4.26,5.5-6.6,8.6-2.08,2.75-4.48,6.49-7.01,9.35-3.25-1.66-4.36-5.65-5.28-9.02-1.13-4.1-2.18-8.21-3.48-12.26-2.12-6.57-4.86-12.88-8.96-18.47-7.4-10.1-17.87-17.55-29.57-21.89-.19-.07-.39-.13-.58-.2,3.09-1.8,5.45-4.84,3.44-8.56-2.4-4.43-7.68-3.14-11.97-2.57.57-2.09,1.37-4.01-1.72-5-2.9-.93-6.53.02-9.83,1.25.68-1.86.62-3.82-1.03-5.55-3.52-3.69-10.62.86-13.87,2.69-11.16,6.27-23.11,15.59-30.63,26.06-.06.08-.09.16-.1.24-5.12,3.05-9.95,6.57-14.39,10.47-5.7,5-10.88,10.6-15.51,16.6-4.32,5.58-9.4,12.05-11.93,18.79-3.11-3.97-10.85-10.82-13.12-5.23-2,4.93,2.93,11.5,7.87,14.54-3.37,2.9-5.32,7.75-2.54,11.75,2.86,4.12,9.3,4.64,13.18,1.78,6.75,11.93,19.59,21.25,31.63,27.28,4.18,2.1,8.5,3.86,12.92,5.3,3.69,8.39,14.26,16.37,22.71,18.55,3.53.91,9.44,1.47,11.52-2.41.21-.39.34-.81.42-1.24,5.54,3.3,10.91,1.62,11.01-3.06,4.34,1.02,10.18.89,11.72-3.87.78-2.4-.82-5.05-3.04-7.07,6.25-1.77,12.33-4.16,18.05-7.12,6.76-3.5,12.99-7.73,18.83-12.6,2.98-2.49,5.94-5.12,9.37-7.01,3.08-1.7,8.08-3.84,11.62-2.59,2.19.77,4.3,2.56,6.31,3.73,2.87,1.68,5.83,3.24,8.96,4.4,6.8,2.53,14.16,3,21.29,1.94,1.97-.29,3.04-2.18,2.02-3.98Zm-138.23-95.12c3.62-2.66,7.35-5.23,11.31-7.35,1.78-.95,3.61-1.84,5.51-2.54,2.33-.86,4.3-1.38,4.62.31.4,2.11-.57,3.1-2.06,4.86-1.11,1.31.61,3.06,2.02,2.44,3.04-1.33,7.8-4.62,12.28-4.17,1.34.37.15,1.94-.62,4.5-.32,1.07.75,1.74,1.81,1.71,2.2-.06,4.38-.79,6.57-.77,2.36.03,3.89.56,4.33,2.02.75,2.46-3.75,4.92-4.46,5.38-19.31-5.66-39.73-2.03-57.34,7.19,5.28-4.61,10.33-9.4,16.03-13.59Zm36.58,126.78c-1.59-.02-3.1-.51-4.55-1.11-1.1-.46-2.36.56-2.14,1.74.85,4.4-5.42,3.8-8.32,1.79-.79-.55-1.52-1.08-2.76-.99-.5.04-.72.52-.62.99.63,2.82-2.16,2.85-4.04,2.88-1.43.02-3.42-.56-4.79-1.04-2.72-.95-5.17-2.53-7.56-4.12-3.84-2.57-7.4-5.1-10.51-8.32,8.03,2.23,16.34,3.38,24.73,3.39,7.45,0,14.94-.94,22.24-2.71.89.75,1.66,1.52,1.93,2.31.76,2.17-1.07,5.24-3.62,5.2Zm78.05-34.72c-2.25-.75-4.45-1.69-6.59-2.71-3.5-1.67-7.08-4.51-10.92-5.24-5.23-.99-10.46,1.79-14.7,4.54-6.18,4.02-11.52,9.18-17.8,13.1-12.83,8.01-27.65,12.83-42.72,14.01-14.47,1.14-29.14-1.18-42.52-6.86-6.35-2.69-12.29-6.13-17.93-10.07-6.38-4.45-17.55-16.17-18.07-16.16-2.62.05-7.56,2.16-9.69-.3-1.33-1.53-1.75-5.04-.57-6.74,1-1.45,2.44-2.27,4.02-2.9,1.92-.77,1.08-2.23-.76-3.56-1.45-1.05-12.42-9.8-8.27-11.61,2.48-1.08,9.28,7.72,10.33,6.5,4.26-8.34,7.82-12.64,12.03-18.07,4.36-5.62,9.12-10.17,14.43-14.91,10.78-9.62,23.64-16.9,37.68-20.5,27.38-7.01,59.33,2.02,72.97,28.37,4.03,7.78,6.02,16.21,8.86,24.44,1.28,3.72,3.69,8.99,7.9,9.23,3.92.22,6.43-4.49,7.54-6.12,2.23-3.26,4.56-6.44,7.06-9.5,4.28-5.25,10.54-13.84,17.9-15.53-4.14,11.21-10.53,21.59-20.26,28.84-1.66,1.23-1.36,3.62.64,4.29,11.03,3.68,20.19,10.25,26.56,19.78-5.81.34-11.48-.45-17.11-2.33Z"/>
    <path class="cls-4" d="m155.78,182.4c-1.58-4.76-5.83-8.44-10.5-10.71,2.28-1.36,3.65-3.51,2.13-6.66-1.5-3.11-5.55-4.19-9.49-4.48,4.44-2.76,8.66-6.17,11.19-10.53,1.95-3.36,3.3-9.94-2.26-10.09-6.54-.18-13.11,5-17.75,9.02-3.95,3.42-7.81,8.14-8.63,14.21-2.24,16.55,13.22,26.76,26.51,27.54,5.12.3,10.85-2.11,8.8-8.3Zm-6.76,4.5c-.55.11-1.09.16-1.54.19-5.04.36-9.89-1.87-14.11-4.41-3.56-2.14-6.59-5.17-8.47-8.9-1.6-3.18-2.31-6.74-2.25-10.29.16-9.22,11.06-16.08,19.24-19.23,2.78-1.07,6.98-1.53,5.05,2.99-1.01,2.36-2.91,4.25-4.78,5.94-3.35,3.03-6.94,5.95-10.94,8.02-1.7.88-.99,2.37.82,2.24,2.98-.22,11.41.15,11.41,3.43,0,2.39-2.82,3.64-5,3.73-2.14.09-2.84,2.31-.45,2.84,4.87,1.07,9.25,3.51,12.27,7.55.8,1.07,1.81,2.69,1.41,4.09-.32,1.08-1.5,1.57-2.66,1.8Z"/>
    <path class="cls-4" d="m105.64,149.66c-2.39-4.13-7.45-6.66-12.03-5.45-1.35.36-4.86,1.3-7.44,4.98-2.97,4.23-4.28,9.33-1.88,14.39,3.26,6.88,11.92,8.52,17.76,3.9,5.3-4.2,7.01-11.93,3.6-17.83Zm-4.27,12.9c-4.08,3.79-10.6,4.63-14.09-.46-3.98-5.8-1.49-13,4.34-15.53,3.72-1.62,8.08-.54,10.97,2.96,3.11,3.77,2.82,9.28-1.21,13.03Z"/>
  </g>
</svg>