<?xml version="1.0" encoding="UTF-8"?>
<svg id="allergen_icons" data-name="allergen icons" xmlns="http://www.w3.org/2000/svg" viewBox="0 0 311.43 314.01">
  <defs>
    <style>
      .cls-1 {
        fill: #fff;
      }

      .cls-2 {
        fill: #908fb1;
      }

      .cls-3 {
        fill: #d8d8e4;
      }
    </style>
  </defs>
  <path class="cls-3" d="m186.2,198.11c-5.37-2.59-11.03-5.13-16.93-6.11-3.58-.59-11.52-.59-12.78,1.34-1.04,1.59,6.49,18.48,13.06,26.33,6.85,8.18,19.6,12.34,27.62,3.29,8.97-10.12-1.8-20.42-10.97-24.85Z"/>
  <path class="cls-3" d="m140.91,180.2c-.56-.31-2.69.15-5.06,2.14-6.4,5.37-12.31,11.49-17.49,17.94-5.72,7.11-13.2,20.36-2.81,27.26,4.79,3.18,11.95.61,16.16-2.48,4.6-3.39,7.67-8.21,9.72-13.48,1.94-4.98,2.94-10.31,3.05-15.64.08-3.75.48-13.48-3.57-15.74Z"/>
  <path class="cls-3" d="m131.51,166.25c5.52-15.22-18.49-14.05-27.01-13.2-5.67.56-25.44,3.88-26.78,7.16-.3,2.69,14.15,14.45,24.4,16.49,9.39,1.86,25.71-.28,29.39-10.44Z"/>
  <path class="cls-3" d="m187.27,170.85c10.79-9.32,2.44-25.21-6.57-32.11-4.84-3.7-10.43-6.57-15.99-9.02-2.76-1.22-12.01-4.35-14.75-2.05-2.85,4.35-1.83,12.9-1.02,17.34,1.05,5.76,3.33,11.31,6.57,16.18,6.46,9.74,20.95,18.99,31.76,9.65Z"/>
  <path class="cls-3" d="m222.42,149.52c-4.69,1.89-8.08,6.42-10.74,10.55-2.79,4.33-5.08,8.95-6.85,13.78-1.76,4.81-5.54,13.93-1.09,18.08,4.53,1.47,19.86-8.45,23.5-11.32,6.33-4.99,16.93-16.11,11.14-24.73-3.4-5.06-10.08-8.73-15.97-6.36Z"/>
  <path class="cls-3" d="m203.54,135.43c11.83,2.41,18.23-8.9,18.74-19.24.4-8.12.82-25.9-6.85-26.86-4.36-.55-16.45,11.11-20.08,21.18-3.19,8.83-2.97,22.64,8.19,24.92Z"/>
  <path class="cls-3" d="m181.27,101.44c6.26-10.54-.39-24.01-10.88-28.63-10.43-4.58-29.14-6.46-32.81-.6-1.78,2.83,2.29,12.43,4.81,17.59,2.47,5.07,5.21,10.15,9.34,14.08,8.76,8.34,22.87,8.81,29.55-2.44Z"/>
  <path class="cls-3" d="m118.82,135.03c4.46-2.47,8.43-5.69,11.93-9.39,3.46-3.67,8.76-8.02,8.76-13.56,0-3.78-3.54-4.73-6.56-5.61-3.49-1.02-7.19-1.59-10.74-1.88-5.78-.48-11.68-.17-17.35,1.08-10.78,2.38-20.86,13.26-17.38,24.99,3.94,13.28,22.47,9.3,31.34,4.37Z"/>
  <path class="cls-2" d="m295.04,138.32c-7.29-73.54-74.38-121.95-146.21-119.13C77.21,22,17.82,92.4,28.5,163.46c11.17,74.3,65.98,130.31,144.11,123.53,72.59-6.3,129.56-76.68,122.43-148.67-2.71-27.34,2.72,27.45,0,0Zm-21.57,55c-21.23,58.44-83.07,88.25-142.21,76.05-62.29-12.85-101.93-90.26-84.8-150.72,44.27-156.24,281.34-74.89,227.01,74.67-8.73,24.04,8.39-23.1,0,0Z"/>
  <g>
    <g>
      <path class="cls-2" d="m138.6,177.51c-1.69.76-5.41,3.49-7.43,4.94-3.99,2.87-7.73,6.05-11.31,9.64-5.22,5.22-10.5,10.93-13.13,17.95-4.32,11.5,1.08,26.39,15.15,25.64,14.78-.78,22.83-15.73,25.51-28.65,1.18-5.7,3.19-34.86-8.79-29.51Zm5.89,18.43c-.12,5.33-1.12,10.66-3.05,15.64-2.05,5.27-5.12,10.09-9.72,13.48-4.2,3.09-11.36,5.66-16.16,2.48-10.39-6.9-2.91-20.15,2.81-27.26,5.19-6.45,11.1-12.57,17.49-17.94,2.37-1.99,4.5-2.46,5.06-2.14,4.05,2.26,3.66,11.99,3.57,15.74Z"/>
      <path class="cls-2" d="m185.78,193.55c-6.8-2.83-14.31-5.5-21.76-5.65-4.23-.09-9.08.16-10.24,4.87-.45,1.83,3.58,13.5,6.55,19.5,3.07,6.2,6.19,12.45,11.92,16.57,9.96,7.16,25.57,6.08,31.39-5.9,6.53-13.45-6.83-24.8-17.86-29.39Zm11.39,29.41c-8.02,9.05-20.78,4.9-27.62-3.29-6.57-7.85-14.09-24.74-13.06-26.33,1.26-1.93,9.2-1.93,12.78-1.34,5.9.98,11.56,3.52,16.93,6.11,9.17,4.43,19.95,14.73,10.97,24.85Z"/>
      <path class="cls-2" d="m182.27,134.92c-5.89-4.22-12.77-7.92-19.61-10.34-2.54-.9-5.25-1.58-7.95-1.6-1.35-.01-2.75.15-3.99.72-1.54.71-2.29,1.92-3.06,3.38-1.55,2.93-2.18,5.75-2.56,9.03-.76,6.56-.03,13.4,2.11,19.64,3.81,11.12,13.11,21.92,25.14,24.07,11.15,2,22.64-4.34,24.4-16.01,1.81-12.02-5.09-22.16-14.49-28.89Zm5.01,35.93c-10.81,9.33-25.3.09-31.76-9.65-3.23-4.88-5.52-10.43-6.57-16.18-.81-4.44-1.83-12.99,1.02-17.34,2.74-2.31,11.99.83,14.75,2.05,5.56,2.45,11.15,5.32,15.99,9.02,9.01,6.9,17.36,22.79,6.57,32.11Z"/>
      <path class="cls-2" d="m236.12,146.84c-13.72-8.99-24.39,4.47-30.27,15.71-2.72,5.2-5.05,10.74-6.53,16.43-1.17,4.52-2.57,11.43,2.31,14.32,5.93,3.5,13.69.29,19.25-2.37,5.86-2.8,11.18-6.72,15.61-11.47,4.3-4.61,8.35-10.42,8.88-16.88.57-7-3.72-12.11-9.25-15.74Zm-8.87,33.77c-3.64,2.87-18.97,12.79-23.5,11.32-4.45-4.15-.67-13.26,1.09-18.08,1.77-4.83,4.06-9.46,6.85-13.78,2.66-4.12,6.05-8.66,10.74-10.55,5.89-2.37,12.57,1.3,15.97,6.36,5.79,8.62-4.81,19.74-11.14,24.73Z"/>
      <path class="cls-2" d="m224.34,96.11c-.74-2.51-2.64-6.14-4.65-8.27-1.37-1.45-6.12-2.01-14.1,3.75-7.83,5.65-14.13,13.97-15.79,23.41-1.96,11.08,2.27,23.24,14.58,24.49,12.89,1.31,20.69-10.59,21.58-22.3.52-6.82.32-14.51-1.62-21.09Zm-2.05,20.09c-.51,10.33-6.92,21.65-18.74,19.24-11.16-2.28-11.37-16.09-8.19-24.92,3.64-10.07,15.72-21.73,20.08-21.18,7.67.97,7.25,18.74,6.85,26.86Z"/>
      <path class="cls-2" d="m171.6,69.05c-10.51-4.67-27.03-6.39-36.39,1.22-1.79,1.45-.09,11.72,1.37,15.8,2.01,5.6,4.53,11.12,8.02,15.97,6.02,8.37,16.62,15.19,27.21,11.46,8.79-3.1,15.26-11.81,15.26-21.17,0-10.11-6.31-19.21-15.47-23.27Zm-19.87,34.83c-4.13-3.94-6.87-9.01-9.34-14.08-2.52-5.16-6.58-14.76-4.81-17.59,3.67-5.85,22.39-3.98,32.81.6,10.49,4.61,17.14,18.08,10.88,28.63-6.68,11.25-20.79,10.79-29.55,2.44Z"/>
      <path class="cls-2" d="m138.79,105.41c-12.31-3.69-21.13-5.1-31.33-4.03-11.17,1.17-19.64,6.53-23.18,17.45-3.29,10.14.57,20.78,11.22,24.08,10.72,3.32,22.73-1.25,31.27-7.76,4.9-3.73,9.1-8.24,12.67-13.25,1.85-2.59,3.92-5.44,4.43-8.67.26-1.67.97-6-5.07-7.82Zm-8.04,20.23c-3.49,3.7-7.47,6.92-11.93,9.39-8.87,4.93-27.4,8.91-31.34-4.37-3.48-11.73,6.6-22.61,17.38-24.99,5.67-1.25,11.57-1.56,17.35-1.08,3.55.29,7.25.86,10.74,1.88,3.02.88,6.56,1.83,6.56,5.61,0,5.54-5.29,9.89-8.76,13.56Z"/>
      <path class="cls-2" d="m111.42,148.57c-7.61.48-15.34,1.24-22.8,2.84-5.37,1.15-12.6,3.35-14.06,7.72-.57,1.71,1.95,5.5,3.28,6.9,9.81,10.37,19.88,16.05,32.49,15.74,10.95-.27,24.87-4.32,26.86-16.86,2.33-14.69-15.31-17-25.77-16.34Zm20.1,17.68c-3.69,10.17-20.01,12.31-29.39,10.44-10.25-2.03-24.69-13.8-24.4-16.49,1.34-3.28,21.11-6.6,26.78-7.16,8.51-.85,32.53-2.01,27.01,13.2Z"/>
    </g>
    <path class="cls-1" d="m127.19,163.53c-.14,0-.29-.02-.42-.07-1.34-.43-2.58-1.02-3.79-1.58-1.44-.68-2.79-1.31-4.28-1.71-1.84-.48-3.85-.73-5.96-.73-1.46,0-2.99.12-4.56.35h-.07s-.16.02-.16.02c-.75,0-1.37-.53-1.48-1.27-.11-.72.31-1.39,1.03-1.61,2.16-.67,4.63-1.02,7.16-1.02,6,0,10.96,1.96,13.59,5.38.32.42.38,1,.15,1.48-.23.46-.68.75-1.19.75h0Z"/>
    <path class="cls-1" d="m93.26,131.63c-.48,0-.9-.29-1.06-.74-2.67-7.27,3.46-17.78,10.16-20.97.18-.09.37-.13.57-.13.52,0,.98.31,1.18.79.21.48.1,1.04-.26,1.42l-.5.52c-2.51,2.61-4.88,5.08-6.41,8.33-.87,1.85-1.22,3.73-1.6,5.73-.26,1.39-.53,2.82-.99,4.26-.16.48-.59.79-1.09.79h0Z"/>
    <path class="cls-1" d="m185.63,154.32c-.38,0-.75-.16-1.02-.46-6.9-7.6-12.51-13.16-21.99-15.5-.67-.16-1.09-.77-1.01-1.44.09-.71.68-1.24,1.38-1.24h.09l.16.02c8.46,1.52,19.73,6.79,23.68,16.65.18.45.12.95-.15,1.35-.26.39-.69.62-1.15.62h0Z"/>
    <path class="cls-1" d="m187,207.54c-.19-.02-.37-.07-.54-.17-1.23-.67-2.41-1.35-3.57-2.02-5.14-2.95-9.99-5.74-16.31-6.6-.76-.1-1.29-.75-1.23-1.51.06-.77.7-1.34,1.47-1.32.76.02,1.54.07,2.3.13,8.56.75,15.52,4.11,19.11,9.21.32.45.34,1.07.05,1.58-.27.47-.77.74-1.29.69h0Z"/>
    <path class="cls-1" d="m171.91,83.3c-.29,0-.57-.1-.81-.28-5.71-4.37-11.71-6.58-17.85-6.58-.92,0-1.86.05-2.79.15h-.16c-.71,0-1.3-.52-1.39-1.26-.09-.77.36-1.46,1.08-1.64,1.97-.49,3.99-.74,5.99-.74,6.87,0,13.06,2.95,16.99,8.1.32.42.37.99.13,1.48-.23.47-.69.76-1.19.76h0Z"/>
    <path class="cls-1" d="m201.47,118.07c-.45-.03-.87-.23-1.16-.57-.26-.31-.39-.7-.35-1.11.42-4.22,2.15-14.59,9.15-19.64.26-.19.59-.28.93-.26.5.03.95.3,1.19.71.23.39.24.85.03,1.27-.73,1.46-1.61,2.83-2.47,4.16-.88,1.36-1.79,2.77-2.5,4.24-1.45,3.02-2.54,6.39-3.26,10.02-.15.74-.79,1.23-1.56,1.18h0Z"/>
    <path class="cls-1" d="m211.02,177.34c-.52,0-1.02-.23-1.33-.63-.32-.39-.43-.9-.32-1.42,1.62-7.57,6.79-17.1,14.32-20.12.16-.07.34-.1.51-.1.56,0,1.09.33,1.33.82.21.45.15.98-.18,1.38-1.09,1.33-2.29,2.56-3.44,3.74-1.59,1.63-3.09,3.16-4.37,4.98-1.95,2.78-3.5,6.01-4.89,10.15-.24.72-.88,1.19-1.63,1.19h0Z"/>
    <path class="cls-1" d="m117.77,223.66c-.8,0-1.46-.61-1.54-1.41-.67-7.42.89-17.22,7.31-22.46.26-.21.59-.33.94-.33.51,0,.99.25,1.26.65.25.38.3.85.12,1.29-.6,1.47-1.34,2.87-2.05,4.22-.81,1.54-1.64,3.12-2.25,4.76-1.35,3.63-2.11,7.6-2.28,11.81-.03.84-.68,1.47-1.51,1.47h0Z"/>
  </g>
</svg>