<?xml version="1.0" encoding="UTF-8"?>
<svg id="allergen_icons" data-name="allergen icons" xmlns="http://www.w3.org/2000/svg" viewBox="0 0 311.43 314.01">
  <defs>
    <style>
      .cls-1 {
        fill: none;
      }

      .cls-2 {
        fill: #eeeef3;
      }

      .cls-3 {
        fill: #908fb1;
      }

      .cls-4 {
        fill: #d8d8e4;
      }
    </style>
  </defs>
  <path class="cls-3" d="m301.46,144.95c-7.29-73.54-74.38-121.95-146.21-119.13C83.63,28.63,24.23,99.03,34.92,170.09c11.17,74.3,65.98,130.31,144.11,123.53,72.59-6.3,129.56-76.68,122.43-148.67-2.71-27.34,2.72,27.45,0,0Zm-21.57,55c-21.23,58.44-83.07,88.25-142.21,76.05-62.29-12.85-101.93-90.26-84.8-150.72C97.14-30.95,334.21,50.4,279.88,199.95c-8.73,24.04,8.39-23.1,0,0Z"/>
  <path class="cls-1" d="m155.92,72.76c-5.73,2.11-19.38,2.61-24.12,2.47-2.84-.08-6.67-.13-9.92-1.05.49,3.44.42,6.81-.04,10.11h33.91c-.53-3.75-.54-7.58.19-11.52Z"/>
  <path class="cls-4" d="m181.5,177.07c-.5-5.44-.39-11.02-.61-16.48-5.9-1.38-11.39-3.84-14.53-8.96.11,9.15.46,17.82,1.09,26.26,1.72-1.19,3.94-1.82,6.19-1.9,2.68-.09,5.26.59,7.87,1.08Z"/>
  <path class="cls-2" d="m181.09,188.71c7.4.53,14.76-.57,21.69-3.23,5.57-2.13,10.8-5.04,16.24-7.46,2.88-1.28,5.83-2.43,8.89-3.24,2.22-.59,4.83-.49,6.97-1.18,1.97-.64,2.84-1.82.37-2.25-1.8-.31-3.69-.38-5.51-.52-3.8-.3-7.64-.45-11.45-.07-6.66.66-12.41,3.48-18.47,6.07-4.7,2.01-9.65,3.71-14.84,3.38-4.73-.3-13.41-3.6-17.31.45.08,1.02.17,2.04.26,3.05,3.31,3.64,8.09,4.62,13.16,4.99Z"/>
  <path class="cls-4" d="m226.98,177.77c-12.62,3.87-23.16,12.04-36.61,13.49-5.62.6-16.61.86-22.06-3.65,1.26,12.18,3.19,24.08,5.98,36.48.28,1.22.53,2.48.8,3.74,3.58,3.71,9.38,4.96,14.24,5.88,5.36,1.01,10.85,1.29,16.29,1,5.76-.31,11.49-1.42,16.97-3.21,2.9-.94,5.72-2.1,8.46-3.44.88-.43,1.71-.89,2.56-1.31,1.4-6.83,2.17-13.83,2.65-20.75.69-10.09,1.03-20.21,1.6-30.31-.57.2-1.17.32-1.73.42-3.11.54-6.08.73-9.14,1.67Z"/>
  <path class="cls-2" d="m138.27,95.98c5.9-.12,13.46-.26,18.92-2.26-.45-.16-1.01-.38-1.73-.68-1.03-.24-2.07-.46-3.11-.65-1.56-.29-3.12-.53-4.7-.72-3.15-.38-6.31-.57-9.48-.59-3.58-.02-7.23.1-10.76.74-2.39.43-4.57,1.45-6.87,2.09,5.22,2.88,12.01,2.19,17.73,2.07Z"/>
  <path class="cls-4" d="m168.26,150.25c2.11,2.57,6.83,4.64,12.41,6.14-.26-4.22-.59-8.46-.7-12.69-5.8,1.45-13.71,4.11-11.71,6.55Z"/>
  <path class="cls-3" d="m121.87,74.18c3.26.92,7.08.97,9.92,1.05,4.74.14,18.39-.36,24.12-2.47-.73,3.94-.72,7.78-.19,11.52h3.26c-1.02-3.86-1.56-7.86-1.36-12.05,3.62-1.31,6.06-3.53,4.41-7.07-1.52-3.25-5.59-4.14-8.78-4.68-6.33-1.08-12.48-.69-18.85-.61-4.75.06-11.54.86-15.6,3.32-3.4,2.06-4.44,5.86-1.29,8.75.7.64,1.54,1.15,2.47,1.56.04,3.73-.48,7.31-1.4,10.78h3.25c.47-3.3.53-6.66.04-10.11Zm-1.21-3.29c-2.67-.93-3.53-3.92.55-6.32,4.24-2.49,9.76-2.62,13.03-2.97,7.21-.76,14.79-.65,21.49,1.53,2.69.88,6.61,2.73,2.37,6.24-1.41,1.17-3.27,1.27-5.59,1.7-5.41.98-19.31,1.97-26.37,1-1.63-.22-3.42-.45-4.97-1.02-.01,0-.02,0-.04-.01-.13-.11-.3-.15-.47-.14Z"/>
  <path class="cls-3" d="m93.75,154.4c-1.07,14.9-1.08,29.92.12,44.81.93,11.61,2.5,24.15,13.43,30.72,5.66,3.4,12.38,4.89,18.84,5.86,8.94,1.34,17.89.97,26.8-.43,5.97-.94,12.08-2.28,17.32-5.43.07-.04.13-.09.2-.13.37,1.32.74,2.64,1.14,3.94,1.59,5.14,3.88,9.89,8.28,13.19,4.05,3.03,8.89,4.38,13.81,5.2,6.11,1.02,12.32,1.11,18.46.38,3.19-.38,6.17-1.03,9.28-1.77,2.78-.66,5.82-1.13,8.01-3.12,1.26-1.14,2.08-2.68,2.82-4.21,2.51-5.18,4.28-10.63,5.58-16.21.17-.23.33-.46.47-.71.16-.28.08-.62-.13-.83.99-4.55,1.68-9.18,2.2-13.8,1.92-16.98,3-34.7,2.4-51.9-.42-12.26-6.87-14.32-10.03-15.62-11.2-4.59-23.46-6.71-35.55-6.3-5.08.17-10.14.81-15.1,1.91-1.57-9.01-4.21-17.6-8.79-26.08-5.17-9.6-11.55-19.09-14.32-29.6h-3.26c.3,2.12.76,4.21,1.36,6.27-.18-.04-.36-.08-.53-.12-4.89-1.18-9.9-1.95-14.92-2.26-5.69-.35-15.78-1.14-21.25,2.63.63-2.15,1.12-4.32,1.43-6.52h-3.25c-2.78,10.51-9.16,20-14.33,29.6-6.95,12.89-9.45,26.02-10.49,40.52Zm138.78,77.05c-1.55,6.06-3.8,12.03-9.96,14.61-3.17,1.33-6.74,1.95-10.13,2.43-5.98.86-12.14.85-18.12-.06-5.73-.87-11.85-2.94-15.04-8.13-1.63-2.65-2.61-5.65-3.37-8.73,6.87,5.9,19.62,6.77,27.41,6.63,6.53-.12,13.06-1.16,19.29-3.14,2.86-.91,6.67-2.01,9.93-3.68,0,.02-.01.05-.02.07Zm3.72-25.46c-.47,6.92-1.24,13.92-2.65,20.75-.85.42-1.69.88-2.56,1.31-2.74,1.34-5.56,2.5-8.46,3.44-5.48,1.79-11.21,2.9-16.97,3.21-5.44.29-10.93.01-16.29-1-4.87-.91-10.67-2.17-14.24-5.88-.26-1.26-.52-2.52-.8-3.74-2.79-12.4-4.72-24.3-5.98-36.48,5.45,4.51,16.44,4.26,22.06,3.65,13.45-1.44,23.99-9.62,36.61-13.49,3.06-.94,6.03-1.13,9.14-1.67.55-.1,1.15-.22,1.73-.42-.57,10.1-.91,20.22-1.6,30.31Zm-51.27-25.77c5.19.33,10.13-1.37,14.84-3.38,6.06-2.59,11.8-5.41,18.47-6.07,3.8-.38,7.65-.23,11.45.07,1.82.14,3.71.21,5.51.52,2.47.43,1.6,1.6-.37,2.25-2.13.69-4.75.59-6.97,1.18-3.05.81-6,1.96-8.89,3.24-5.44,2.42-10.67,5.33-16.24,7.46-6.93,2.65-14.29,3.76-21.69,3.23-5.08-.37-9.85-1.35-13.16-4.99-.09-1.01-.18-2.03-.26-3.05,3.9-4.05,12.58-.75,17.31-.45Zm-17.53-2.33c-.63-8.44-.98-17.11-1.09-26.26,3.14,5.13,8.63,7.59,14.53,8.96.22,5.46.11,11.04.61,16.48-2.61-.49-5.2-1.17-7.87-1.08-2.25.08-4.46.7-6.19,1.9Zm72.1-22.95c-.57,4.89-.99,9.8-1.32,14.72-1.11-.52-2.42-.82-3.42-.94-7.06-.83-14.52-1.36-21.52.16-6,1.3-11.35,4.33-17.04,6.5-4.02,1.54-8.05,2.53-12.38,2.06-.33-.04-.67-.09-1-.14.28-5.41-.18-10.97-.55-16.39,3.76.77,7.63,1.15,11.11,1.54,12.94,1.46,26.47.14,38.88-3.78,2.34-.74,5.5-1.74,7.22-3.74Zm-56.27-11.98c6.02-1.2,13.74-1.48,19.88-1.37,9.43.16,18.12,2.13,26.92,5.61,1.62.64,8.24,3.53,5.64,5.7-1.9,1.59-6.03,3.38-15.58,4.83-6.48.98-13,1.69-19.56,1.52-5.6-.14-12.46-1-18.51-2.49-.27-4.42-.56-8.88-1.2-13.26.89-.21,1.71-.39,2.41-.53Zm-2.61,13.44c-5.58-1.5-10.29-3.57-12.41-6.14-2-2.44,5.91-5.1,11.71-6.55.11,4.23.43,8.46.7,12.69Zm-53.26-64.58c3.53-.63,7.18-.76,10.76-.74,3.17.02,6.34.21,9.48.59,1.57.19,3.14.43,4.7.72,1.04.2,2.08.42,3.11.65.71.3,1.28.52,1.73.68-5.46,2-13.02,2.14-18.92,2.26-5.72.12-12.51.81-17.73-2.07,2.3-.65,4.48-1.66,6.87-2.09Zm-8.29,2.83c5.06,5.07,13.73,4.11,20.32,4.02,4.87-.07,9.76-.38,14.51-1.5,1.22-.29,3.35-.59,4.92-1.38,2.09,5.35,4.87,10.55,7.62,15.63,3.17,5.86,6.45,11.69,8.52,18.06,1.23,3.78,2.03,7.68,2.61,11.61-.13.04-.25.07-.38.1-4.67,1.33-10.81,2.67-12.67,7.73-.19.52-.76,5.45-.97,7.47-1.28,12.52-.66,25,.58,37.55,1.05,10.57,2.6,21.29,5.17,31.67-.39.28-.79.55-1.21.81-4.74,2.88-10.33,4.09-15.74,4.98-7.45,1.22-15.06,1.43-22.57.64-6.92-.73-14.41-1.96-20.44-5.62-11.4-6.92-10.54-23.08-11.16-34.77-.75-14.15-.56-28.38.75-42.5.61-6.63,1.49-13.32,3.55-19.67,2.07-6.36,5.34-12.2,8.52-18.06,2.95-5.44,5.92-11.01,8.06-16.77Z"/>
  <path class="cls-4" d="m164.58,148.92c1.86-5.05,8-6.39,12.67-7.73.13-.04.25-.07.38-.1-.58-3.93-1.38-7.83-2.61-11.61-2.07-6.36-5.34-12.2-8.52-18.06-2.75-5.08-5.53-10.27-7.62-15.63-1.57.79-3.7,1.09-4.92,1.38-4.76,1.12-9.64,1.43-14.51,1.5-6.59.09-15.26,1.05-20.32-4.02-2.13,5.76-5.11,11.33-8.06,16.77-3.17,5.86-6.45,11.69-8.52,18.06-2.07,6.35-2.94,13.04-3.55,19.67-1.3,14.11-1.5,28.35-.75,42.5.62,11.69-.24,27.85,11.16,34.77,6.04,3.66,13.53,4.89,20.44,5.62,7.51.79,15.12.59,22.57-.64,5.41-.89,11-2.1,15.74-4.98.42-.26.82-.53,1.21-.81-2.57-10.38-4.12-21.1-5.17-31.67-1.25-12.54-1.86-25.03-.58-37.55.21-2.02.78-6.95.97-7.47Zm-45.46,71.97c-8.16-2.19-11.62-12.36-12.82-20.1-1.65-10.69-.75-21.96-.72-32.74.04-17.37,2.09-43.75,14.85-57.26.34-.36.88.1.66.53-6.27,12.77-9.03,36.11-9.09,52.87-.04,10.27-.52,20.7.22,30.94.71,9.82,1.78,17.48,7.86,24.36.64.73-.02,1.66-.97,1.4Z"/>
</svg>