<?xml version="1.0" encoding="UTF-8"?>
<svg id="allergen_icons" data-name="allergen icons" xmlns="http://www.w3.org/2000/svg" viewBox="0 0 311.43 314.01">
  <defs>
    <style>
      .cls-1 {
        fill: #f76a6a;
      }

      .cls-2 {
        fill: #fddada;
      }
    </style>
  </defs>
  <g>
    <path class="cls-2" d="m222.71,111.45c-4.53-4.4-9.39-8.47-14.53-12.14-11.12-7.93-23.9-13.67-37.3-16.41-32.22-6.58-63.17,6.19-86.23,28.55-10.37,10.06-17.17,22.02-12.16,36.63,4.64,13.55,14.79,25.34,24.32,35.74,9.34,10.2,20.78,18.75,29.46,29.5.05.07.09.14.12.21,1.96-.35,3.92-.67,5.88-.97-6.64-4.42-11.88-11.69-16.77-17.8-5.48-6.85-10.62-13.95-15.44-21.28-4.47-6.81-8.63-13.82-12.51-20.98-3.82-7.05-8.54-14.72-10.19-22.64-.16-.76.76-1.13,1.21-.53,4.87,6.53,7.9,14.74,11.86,21.86,4.18,7.52,8.72,14.86,13.54,22,4.61,6.84,9.49,13.51,14.63,19.96,4.95,6.23,11.25,12.17,15.07,19.19,2.42-.36,4.84-.66,7.27-.93-5.51-6.68-9.81-14.77-14.13-22.15-4.8-8.2-9.37-16.56-13.53-25.11-4.46-9.18-8.56-18.54-12.3-28.04-3.38-8.56-7.59-18.03-8.56-27.25-.06-.62.86-.83,1.14-.32,4.49,8.06,6.99,17.63,10.37,26.21,3.55,9,7.42,17.86,11.6,26.58,4.31,8.98,8.81,17.84,13.7,26.52,4.4,7.82,9.89,15.29,13.9,23.33,2.32-.24,4.66-.44,7-.6-3.6-9.15-5.24-19.43-7.31-29-2.03-9.36-3.88-18.76-5.49-28.2-1.66-9.74-3.13-19.5-4.4-29.3-1.18-9.02-3.32-19.06-2.18-28.14.09-.7,1.1-.6,1.28-.02,2.86,8.93,2.9,19.22,4.11,28.51,1.24,9.51,2.67,18.99,4.27,28.44,1.65,9.75,3.43,19.48,5.39,29.17,1.9,9.39,4.79,18.91,5.86,28.45,1.53-.09,3.06-.17,4.6-.23,1.82-.06,3.65-.1,5.47-.13-.19-4.53.49-9.2.73-13.71.3-5.59.52-11.18.71-16.77.36-10.59.47-21.2.37-31.8-.11-10.9-.45-21.81-1-32.7-.31-6.04-.71-12.06-1.17-18.09-.28-3.67-.71-7.41-.15-11.07.14-.91,1.44-.89,1.72-.09,1.67,4.72,1.72,10,2.1,14.95.39,5.07.72,10.14.99,15.22.56,10.39.83,20.78.82,31.19-.01,10.92-.32,21.84-.91,32.75-.29,5.31-.68,10.61-1.12,15.91-.39,4.64-.47,9.57-1.46,14.16,2.39-.03,4.77-.02,7.16.01.86.01,1.74.01,2.62.02,1.06-8.49,4.75-17.15,7.18-25.29,2.43-8.13,4.73-16.29,6.84-24.5,2.22-8.61,4.29-17.25,5.94-25.98,1.67-8.82,2-18.24,4.67-26.81.23-.73,1.18-.56,1.27.15,1.15,8.55-1.03,17.75-2.56,26.14-1.55,8.46-3.42,16.88-5.58,25.21-2.34,9.05-5.07,18-7.89,26.91-2.47,7.84-4.52,16.87-8.47,24.19,1.55.02,3.12.08,4.65.24,3.52-5.05,7.96-9.63,11.72-14.48,4.47-5.77,8.7-11.73,12.68-17.84,4.49-6.9,8.69-13.98,12.55-21.25,3.15-5.93,5.6-12.87,9.81-18.13.37-.47.98.07.9.53-1.16,6.96-5.6,13.94-8.97,20.05-3.33,6.04-6.89,11.97-10.7,17.73-4.04,6.1-8.32,12.03-12.85,17.77-4.15,5.28-8.56,11.27-13.7,15.81.8.13,1.6.29,2.38.5,8.4-9.71,18.88-17.77,27.56-27.24,9.53-10.4,19.68-22.19,24.32-35.74,5.01-14.61-1.78-26.57-12.16-36.63Z"/>
    <path class="cls-2" d="m179.69,213.89c-3.16.06-6.36-.31-9.49-.4-4.62-.14-9.24-.17-13.85-.08-10.27.2-19.69.91-29.91,1.8-.01,0-.02,0-.03,0-2.75,2.36-4.98,6.81-3.19,10.12,1.75,3.23,5.73,3.76,8.99,4.22,7.19,1.01,14.52,1.29,21.77,1.07,7.66-.23,15.34-1.11,22.86-2.64,4.1-.84,9.96-2.26,8.56-7.88-.81-3.27-3.49-4.4-5.7-6.21Z"/>
  </g>
  <g>
    <path class="cls-1" d="m286.39,132.46c0-.1-.02-.17-.02-.23,0,.06.01.13.02.23Z"/>
    <path class="cls-1" d="m287.21,139.97c-.04-.49-.09-.96-.13-1.4.04.46.08.92.13,1.4Z"/>
    <path class="cls-1" d="m286.37,132.24c-.01-.14-.01-.15,0,0h0Z"/>
    <path class="cls-1" d="m286.69,135.52c0,.08.02.16.02.25h0c0-.08-.02-.16-.02-.25Z"/>
    <path class="cls-1" d="m286.41,132.68c0-.08-.02-.15-.02-.22,0,.06.01.14.02.22Z"/>
    <path class="cls-1" d="m286.6,133.32c-.02-.24-.04-.38-.04-.45,0,.07.02.23.04.45Z"/>
    <path class="cls-1" d="m287.08,138.57c-.21-2.31-.4-4.35-.48-5.26.07.75.22,2.4.48,5.26Z"/>
    <path class="cls-1" d="m286.56,132.87c0-.06,0-.06,0,0h0Z"/>
    <path class="cls-1" d="m286.5,133.56c-.01-.15-.03-.29-.04-.41.01.13.03.26.04.41Z"/>
    <path class="cls-1" d="m286.46,133.15c-.01-.1-.02-.2-.03-.28,0,.08.02.18.03.28Z"/>
    <path class="cls-1" d="m286.43,132.86c0-.07-.01-.12-.02-.18,0,.06.01.12.02.18Z"/>
    <path class="cls-1" d="m287.21,139.97c.02.24.04.47.07.73.01.14.02.27.04.41-.03-.38-.07-.76-.1-1.14Z"/>
    <path class="cls-1" d="m286.69,135.52c-.06-.58-.11-1.08-.15-1.5.04.44.09.95.15,1.5Z"/>
    <path class="cls-1" d="m286.55,134.02c-.02-.16-.03-.32-.05-.46.01.14.03.3.05.46Z"/>
    <path class="cls-1" d="m287.89,147.58c.01.1.02.18.02.24,0-.06-.01-.14-.02-.24Z"/>
    <path class="cls-1" d="m287.8,146.64c0,.06.01.12.02.18,0-.06-.01-.12-.02-.18Z"/>
    <path class="cls-1" d="m287.65,145.17c.06.56.11,1.06.15,1.48-.04-.39-.09-.88-.15-1.48Z"/>
    <path class="cls-1" d="m287.52,143.89c-.07-1.06-.15-2.13-.25-3.2-.15-1.66-.34-3.3-.56-4.93.01.12.02.24.04.36-.01-.12-.02-.24-.04-.36-9.2-70.83-74.53-117.52-144.76-115.29-58.59,1.86-109.33,49-120.32,105.02-.04.22-.08.44-.13.66-.13.66-.25,1.33-.37,1.99-2.13,12.07-2.42,24.52-.54,36.99,11.17,74.3,65.98,130.31,144.11,123.53,59.69-5.18,108.81-53.7,120.42-110.8.05-.25.11-.5.16-.75.1-.51.2-1.03.29-1.55.13-.71.26-1.41.38-2.12.01-.07.02-.14.03-.21,1.62-9.62,2.18-19.45,1.53-29.35.01.14.03.29.04.42-.01-.13-.03-.28-.04-.42Zm-21.96,51.11c-21.23,58.44-83.07,88.25-142.21,76.05-62.29-12.85-101.93-90.26-84.8-150.72,44.27-156.24,281.34-74.89,227.01,74.67Zm2.38-6.55s-.05.14-.12.34c.07-.18.11-.3.12-.34Zm-.14.39c-.06.16-.14.37-.23.64.09-.26.17-.47.23-.64Zm-.38,1.05c-.1.29-.23.62-.37,1,.13-.37.26-.7.37-1Zm-1.2,3.32c-.2.54-.41,1.13-.65,1.78.22-.6.44-1.2.65-1.78Zm-1.32,3.64c-.29.8-.54,1.5-.76,2.1.24-.65.49-1.36.76-2.1Zm-1.09,3.01c-.02.06-.04.12-.06.17.02-.06.04-.11.06-.17Zm-.4,1.1c-.11.3-.19.52-.25.69.06-.18.15-.41.25-.69Zm-.38,1.05s-.02.04,0,0h0Zm23.82-65.05s0-.08-.01-.12c0,.04,0,.08.01.12Zm.25,2.52c-.03-.33-.06-.65-.09-.95.03.31.06.63.09.95Z"/>
    <path class="cls-1" d="m287.57,144.32c.03.3.06.58.08.85-.03-.27-.05-.55-.08-.85Z"/>
    <path class="cls-1" d="m287.91,147.82c.01.15.02.16,0,0h0Z"/>
    <path class="cls-1" d="m287.81,146.82c.03.31.06.57.07.76-.02-.18-.04-.43-.07-.76Z"/>
    <path class="cls-1" d="m287.43,142.39c.13,1.45.24,2.61.32,3.52-.09-1.02-.2-2.23-.32-3.52Z"/>
    <path class="cls-1" d="m287.75,145.91c.02.27.05.52.07.75-.02-.23-.04-.48-.07-.75Z"/>
    <path class="cls-1" d="m287.31,141.11c.04.43.08.86.12,1.29-.04-.41-.08-.83-.12-1.29Z"/>
    <path class="cls-1" d="m287.82,146.66c.03.35.06.65.08.9-.02-.26-.05-.56-.08-.9Z"/>
    <path class="cls-1" d="m287.94,147.98c.01.16.03.29.04.39,0-.1-.02-.23-.04-.39Z"/>
    <path class="cls-1" d="m287.9,147.56c.01.16.03.3.04.42-.01-.12-.02-.26-.04-.42Z"/>
    <path class="cls-1" d="m287.98,148.38c.03.33.03.36,0,0h0Z"/>
  </g>
  <path class="cls-1" d="m223.18,103.37c-10.79-9.73-23.04-17.99-36.6-23.33-20.99-8.27-45.55-8.28-66.55,0-13.56,5.34-25.8,13.61-36.6,23.33-10.4,9.37-19.67,22.89-18.04,37.77,1.6,14.61,11.5,27.73,20.73,38.59,5.68,6.68,11.89,12.84,18.39,18.73,6.24,5.65,12.68,11.52,19.97,15.8-5.43,2.96-6.57,10.79-1.8,15.16,3.32,3.03,8.44,3.94,12.67,4.42,6.68.76,13.42,1.02,20.15.79,6.04-.21,12.06-.82,18.02-1.84,4.45-.76,10.4-1.8,13.59-5.48,3.5-4.04,1.83-10.94-2.16-14.29,0-.01.01-.02.02-.04,6.44-4.13,12.25-9.42,17.88-14.53,6.5-5.89,12.71-12.05,18.39-18.73,9.22-10.85,19.13-23.97,20.73-38.59,1.63-14.88-8.38-28.4-18.77-37.77Zm-37.79,116.72c1.4,5.62-4.45,7.04-8.56,7.88-7.51,1.53-15.19,2.41-22.86,2.64-7.25.22-14.58-.06-21.77-1.07-3.26-.46-7.25-.99-8.99-4.22-1.79-3.31.44-7.77,3.19-10.12.01,0,.02,0,.03,0,10.23-.89,19.65-1.59,29.91-1.79,4.62-.09,9.24-.06,13.86.08,3.12.09,6.33.46,9.49.4,2.21,1.8,4.89,2.94,5.7,6.21Zm49.48-72.01c-4.64,13.55-14.79,25.34-24.32,35.74-8.68,9.48-19.16,17.53-27.56,27.24-.78-.21-1.57-.37-2.38-.5,5.14-4.54,9.55-10.54,13.7-15.81,4.52-5.75,8.81-11.68,12.85-17.77,3.81-5.75,7.36-11.68,10.7-17.73,3.37-6.11,7.81-13.08,8.97-20.05.08-.46-.53-1-.9-.53-4.2,5.26-6.66,12.19-9.81,18.13-3.86,7.27-8.06,14.35-12.55,21.25-3.98,6.12-8.21,12.07-12.68,17.84-3.76,4.85-8.2,9.43-11.72,14.48-1.54-.16-3.1-.22-4.65-.24,3.95-7.33,5.99-16.36,8.47-24.19,2.81-8.91,5.54-17.86,7.89-26.91,2.16-8.33,4.04-16.74,5.58-25.21,1.53-8.39,3.71-17.6,2.56-26.14-.09-.71-1.05-.88-1.27-.15-2.67,8.57-3,17.99-4.67,26.81-1.65,8.74-3.73,17.37-5.94,25.98-2.11,8.21-4.41,16.38-6.84,24.5-2.43,8.14-6.12,16.8-7.18,25.29-.88,0-1.76,0-2.62-.02-2.39-.03-4.77-.04-7.16-.01.99-4.59,1.07-9.52,1.46-14.16.44-5.3.83-10.6,1.12-15.91.59-10.91.9-21.83.91-32.75.01-10.41-.25-20.8-.82-31.19-.27-5.08-.6-10.15-.99-15.22-.38-4.95-.43-10.23-2.1-14.95-.28-.79-1.58-.82-1.72.09-.56,3.65-.13,7.39.15,11.06.46,6.03.87,12.05,1.17,18.09.55,10.89.89,21.8,1,32.7.11,10.6,0,21.21-.37,31.8-.19,5.59-.41,11.18-.71,16.77-.24,4.51-.92,9.17-.73,13.71-1.82.03-3.65.06-5.47.13-1.54.05-3.07.14-4.6.23-1.07-9.53-3.96-19.05-5.86-28.45-1.96-9.69-3.73-19.42-5.39-29.17-1.6-9.45-3.02-18.94-4.27-28.44-1.21-9.28-1.25-19.57-4.11-28.51-.18-.57-1.2-.67-1.28.02-1.14,9.08,1.01,19.12,2.18,28.14,1.28,9.79,2.75,19.56,4.4,29.3,1.61,9.44,3.46,18.84,5.49,28.2,2.07,9.57,3.72,19.85,7.31,29-2.34.16-4.67.36-7,.6-4.02-8.04-9.5-15.51-13.9-23.33-4.88-8.68-9.39-17.54-13.7-26.52-4.18-8.72-8.05-17.59-11.6-26.58-3.38-8.58-5.88-18.14-10.37-26.21-.28-.51-1.2-.3-1.14.32.97,9.22,5.18,18.69,8.56,27.25,3.74,9.49,7.84,18.86,12.3,28.04,4.16,8.55,8.73,16.91,13.53,25.11,4.32,7.39,8.62,15.47,14.13,22.15-2.43.27-4.85.58-7.27.93-3.82-7.03-10.11-12.96-15.07-19.19-5.13-6.46-10.01-13.13-14.63-19.96-4.81-7.14-9.35-14.47-13.54-22-3.96-7.12-6.99-15.33-11.86-21.86-.45-.6-1.37-.24-1.21.53,1.65,7.92,6.37,15.59,10.19,22.64,3.88,7.16,8.04,14.17,12.51,20.98,4.81,7.33,9.96,14.43,15.44,21.28,4.89,6.11,10.13,13.39,16.77,17.8-1.96.3-3.92.62-5.88.97-.03-.07-.06-.14-.12-.21-8.67-10.75-20.11-19.3-29.46-29.5-9.53-10.4-19.68-22.19-24.32-35.74-5.01-14.61,1.78-26.57,12.16-36.63,23.06-22.35,55.07-33.66,87.29-27.08,13.4,2.74,25.13,7.01,36.25,14.94,5.14,3.67,9.99,7.74,14.53,12.14,10.37,10.06,17.17,22.02,12.16,36.63Z"/>
</svg>