<?xml version="1.0" encoding="UTF-8"?>
<svg id="allergen_icons" data-name="allergen icons" xmlns="http://www.w3.org/2000/svg" viewBox="0 0 311.43 314.01">
  <defs>
    <style>
      .cls-1 {
        fill: #fac983;
      }

      .cls-2 {
        fill: #face8e;
      }

      .cls-3 {
        fill: #f59d1d;
      }

      .cls-4 {
        fill: #fbd8a5;
      }

      .cls-5 {
        fill: #fce2bb;
      }
    </style>
  </defs>
  <path class="cls-3" d="m287.25,139.95c-7.29-73.54-74.38-121.95-146.21-119.13C69.42,23.63,10.02,94.03,20.71,165.09c11.17,74.3,65.98,130.31,144.11,123.53,72.59-6.3,129.56-76.68,122.43-148.67-2.71-27.34,2.72,27.45,0,0Zm-21.57,55c-21.23,58.44-83.07,88.25-142.21,76.05-62.29-12.85-101.93-90.26-84.8-150.72,44.27-156.24,281.34-74.89,227.01,74.67-8.73,24.04,8.39-23.1,0,0Z"/>
  <g>
    <path class="cls-2" d="m130.46,167.33c-2.4-2.11-4.94-4.1-7.56-5.98-1.74,5.31-4.76,10.41-7.16,15.42-1.46,3.06-2.89,6.12-4.3,9.2-.74,1.61-1.35,3.28-2.18,4.81.23,0,.45.03.65.06,1.21.21,2.19,1.07,2.97,1.96.53.61,1.16,1.48,1.6,2.42,1.02-.72,2.16-1.3,3.47-2.06,2.83-1.63,5.66-3.28,8.5-4.9,5.19-2.97,10.49-6.53,16.09-8.73-3.52-4.65-8.17-8.76-12.08-12.2Z"/>
    <path class="cls-4" d="m147.76,155.97c-3.17-3.27-6.65-6.16-10.56-8.5-4.26-2.55-8.57-3.79-13.22-5.05-1.44.7-4.43,3.13-5.73,4.66-1.25,1.46-2.25,3.13-3.04,4.88-.18.4-.34.8-.5,1.2.4.07.82.19,1.22.31,3.31,1.04,6.92,3.74,9.79,5.67,5.78,3.88,11.27,8.47,15.94,13.63,4.07,4.5,8.06,9.41,9.25,15.46,2.84-1.49,5.59-3.93,7.56-6.16,1.1-1.24,1.9-2.46,3.1-4.65-1.58-3.94-3.54-7.92-5.84-11.5-2.3-3.59-4.99-6.89-7.96-9.96Z"/>
    <path class="cls-2" d="m141.05,182.65c1.94,1.43,3.6,2.95,5.63,4.09-.78-2.06-1.9-4.05-3.22-5.95-.78.64-1.58,1.26-2.41,1.86Z"/>
    <path class="cls-2" d="m121.55,160.37c-1.14-.79-2.28-1.56-3.44-2.3-.21-.13-2.25-1.53-2.36-1.43-.74.67,1.43,2.88,1.69,3.2.86,1.06,1.72,1.96,2.42,3.02.54-.86,1.1-1.69,1.7-2.5Z"/>
    <path class="cls-1" d="m137.76,245.11c-1.76-.85-3.78-1.02-5.71-1.2-3.46-.31-6.94-.12-10.41,0-3.23.12-13.31,1.65-14.96-2.42-1.8-4.45,6.25-7.26,6.51-11.13.22-3.3-3.67-5.74-5.36-8.33-1.12-1.73-1.92-3.65-2.42-5.65-1.06-4.29-.6-8.72,1.28-12.64-6.3,4.91-13.07,12-10.3,20.52,1.25,3.85,3.94,5.41,6.8,7.94,1.7,1.5,3.14,3.47,2.86,5.88-.25,2.11-1.69,3.44-3.47,4.38-2.4,1.27-8.07,1.74-8.66,4.85-1.02,5.31,16.62,5.64,19.89,5.77,7.32.29,16.5.03,23.43-2.72,2.9-1.15,3.55-3.82.52-5.27Z"/>
    <path class="cls-2" d="m108.55,193.05c-.25-.05-.49-.07-.72-.1.29,1,.48,2.03,1.21,2.84.47.52,1.08.97,1.74,1.22.27.1,1.41.44,1.54.23.28-.45-1.6-2.77-1.97-3.16-.49-.52-1.1-.88-1.8-1.02Z"/>
    <path class="cls-2" d="m228.07,82.23c-3.93-4.3-8.13-8.32-12.88-11.83-5.18-3.82-11.01-7.19-16.95-9.65-7.63-3.16-15.98-4.05-21.89,2.37-4.61,5-17.36,22.41-21.89,27.8-4.97,5.9-10.21,11.59-14.88,17.75-2.33,3.07-5.53,6.65-6.09,10.58-.52,3.63,1.46,7.66,1.65,11.26.22,4.18-1.82,7.68-5.08,10.13,7.4,1.52,14.61,6.81,19.71,11.46,3.89,3.55,7.18,7.81,9.9,12.31.9,1.49,1.95,3.18,2.85,4.96,5.63-6.9,18.62,0,25.58-3.53,5.13-2.6,9.76-7.09,14.15-10.77,4.53-3.8,8.93-7.76,13.19-11.87,8.44-8.15,19-17.43,23.03-28.75,1.97-5.54,1.59-11.46-.39-16.95-2.02-5.62-8.09-13.2-9.99-15.27Zm-11.19,25.34c-4.39,13.12-14.4,26.68-26.06,34.17-9.03,5.81-27.65,10.68-34.73-.96-3.46-5.69-2.58-12.85-1.1-19.02,1.9-7.94,6.6-14.73,11.44-21.18,7.88-10.49,18.71-18.19,31.73-19.85,6.52-.83,12.04.12,15.98,4.58,5.08,5.74,5.06,15.35,2.75,22.25Z"/>
    <path class="cls-5" d="m178.51,92.37c-6.18,4.64-10.48,10.99-14.53,17.46-4.1,6.56-7.14,13.78-7.07,21.67.05,4.87,1.86,9.73,6.61,11.79,3.29,1.42,7.12,1.28,10.58.7,14.34-2.39,24.93-13.58,32.28-25.38,3.9-6.26,8.11-13.48,7.86-21.11-.13-4.05-1.42-8.99-4.39-11.57-9.03-7.83-25.89,2.33-31.35,6.44Z"/>
  </g>
  <g>
    <path class="cls-3" d="m228.14,75.67c-3.4-3.7-8.16-7.55-12.53-10.46-6.22-4.15-12.92-7.15-20.2-9.03-6.66-1.72-13.75-1.16-19.15,3.4-5.08,4.28-8.85,10.4-13.24,15.63-3.47,4.13-6.99,8.62-10.35,12.63-4.63,5.53-9.51,10.86-14,16.5-3.61,4.53-8.51,9.81-8.64,15.92-.06,2.7.65,5.36,1.16,7.99.69,3.62.96,5.92-1.51,9.48-.63.91-1.38,1.67-2.03,2.55-1.01.06-2.43,0-3.98.07-2.7.14-6.14,3.07-7.53,4.68-1.87,2.17-4.26,5.88-3.97,9.08-.01.02-.03.03-.04.06-1.95,3.16,3.57,8.42,6.75,10.34-2.06,3.64-3.76,7.6-5.51,11.24-1.36,2.82-2.69,5.65-4,8.49-1.21,2.61-2.87,5.29-3.15,8.17,0,.02,0,.03,0,.05-.42.48-.65,1.16-.61,1.78.09,1.25.85,2.49,1.68,3.37,1.48,1.57,4.98,3.95,7.02,2.44.29-.21.51-.45.67-.71,1.9-.62,3.36-1.87,5.33-3.06,3.02-1.83,6.06-3.63,9.07-5.48,3.1-1.91,6.44-3.75,9.59-5.79,1.97,3.65,6.43,5.86,10.16,7.17.69.24,1.33.07,1.88-.16,2.68-1.14,6.36-3.46,8.13-5.12,1.95-1.83,5.45-6.18,5.85-9.37.08-.6-.17-2.24-.62-3.43-.37-.98-.7-2.07-1.12-3.08,5.51-3.68,11.46-.77,17.68-.19,5.95.55,10.45-.49,15.02-3.94,10.82-8.18,22.36-18.34,31.72-28.15,8.08-8.46,16.97-17.8,17.44-30.18.24-6.55-2.85-15.53-7.05-21.31-1.99-2.74-7.45-8.88-9.93-11.58Zm-110.71,84.19c-.26-.32-2.43-2.53-1.69-3.2.11-.1,2.15,1.29,2.36,1.43,1.16.74,2.31,1.51,3.44,2.3-.6.8-1.16,1.63-1.7,2.5-.7-1.05-1.56-1.96-2.42-3.02Zm-5.11,37.37c-.13.21-1.27-.12-1.54-.23-.66-.25-1.27-.69-1.74-1.22-.73-.81-.92-1.84-1.21-2.84.23.03.47.05.72.1.7.14,1.32.51,1.8,1.02.37.39,2.25,2.7,1.97,3.16Zm14.13-8.96c-2.84,1.63-5.66,3.27-8.5,4.9-1.31.75-2.45,1.33-3.47,2.06-.44-.93-1.07-1.81-1.6-2.42-.78-.89-1.77-1.75-2.97-1.96-.2-.04-.42-.05-.65-.06.83-1.53,1.44-3.2,2.18-4.81,1.41-3.08,2.84-6.15,4.3-9.2,2.39-5.01,5.42-10.11,7.16-15.42,2.61,1.88,5.16,3.87,7.56,5.98,3.91,3.44,8.56,7.56,12.08,12.2-5.6,2.21-10.9,5.76-16.09,8.73Zm14.6-5.61c.83-.59,1.63-1.22,2.4-1.86,1.32,1.9,2.44,3.89,3.22,5.95-2.03-1.15-3.69-2.66-5.63-4.09Zm17.41-.57c-1.97,2.23-4.72,4.67-7.56,6.16-1.19-6.05-5.18-10.96-9.25-15.46-4.67-5.16-10.16-9.75-15.94-13.63-2.87-1.93-6.48-4.63-9.79-5.67-.4-.13-.82-.24-1.22-.31.16-.4.32-.8.5-1.2.79-1.75,1.79-3.42,3.04-4.88,1.31-1.53,4.3-3.97,5.73-4.66,4.65,1.26,8.96,2.5,13.22,5.05,3.91,2.34,7.4,5.23,10.56,8.5,2.97,3.06,5.65,6.37,7.96,9.96,2.3,3.58,4.26,7.56,5.84,11.5-1.2,2.19-2,3.41-3.1,4.65Zm79.98-67.63c-4.03,11.32-14.59,20.6-23.03,28.75-4.26,4.11-8.65,8.07-13.19,11.87-4.39,3.68-9.02,8.17-14.15,10.77-6.96,3.53-19.95-3.37-25.58,3.53-.89-1.78-1.95-3.48-2.85-4.96-2.72-4.49-6.01-8.76-9.9-12.31-5.1-4.66-12.31-9.94-19.71-11.46,3.26-2.45,5.3-5.96,5.08-10.13-.19-3.6-2.17-7.64-1.65-11.26.56-3.93,3.77-7.52,6.09-10.58,4.67-6.15,9.91-11.84,14.88-17.75,4.53-5.38,17.28-22.8,21.89-27.8,5.92-6.42,14.26-5.53,21.89-2.37,5.95,2.46,11.78,5.83,16.95,9.65,4.75,3.51,8.95,7.53,12.88,11.83,1.9,2.08,7.97,9.65,9.99,15.27,1.97,5.49,2.36,11.4.39,16.95Z"/>
    <path class="cls-3" d="m137.08,241.25c-3.47-1-7.18-1.03-10.75-.94-4.15.1-9.34,1.23-13.4.18-3.45-.89-1.51-2.52.25-4.36.81-.84,1.63-1.66,2.23-2.67,1.32-2.26,1.25-4.65,0-6.93-1.89-3.44-5.2-5.47-6.58-9.33-1.68-4.69-.9-9.52,1.39-13.83.55-1.03-1.03-3.51-5.7.18-8.4,6.64-16.37,17.6-8.56,27.56.91,1.16,1.95,2.03,3.1,2.92,2.55,1.98,3.67,3.86.63,5.93-2.97,2.02-6.56,1.74-8.41,5.33-2.54,4.94,1.65,7.86,5.8,8.94,9.57,2.5,19.31,2.87,27.97,2.5,5.58-.24,15.32-.49,19.08-5.44,3.34-4.4-2.96-8.89-7.05-10.07Zm.16,9.13c-6.92,2.75-16.11,3.01-23.43,2.72-3.27-.13-20.91-.46-19.89-5.77.6-3.11,6.26-3.58,8.66-4.85,1.78-.94,3.22-2.28,3.47-4.38.28-2.41-1.16-4.38-2.86-5.88-2.86-2.53-5.55-4.09-6.8-7.94-2.76-8.52,4-15.61,10.3-20.52-1.88,3.92-2.34,8.35-1.28,12.64.5,2,1.29,3.92,2.42,5.65,1.69,2.6,5.58,5.03,5.36,8.33-.26,3.87-8.32,6.68-6.51,11.13,1.65,4.08,11.73,2.54,14.96,2.42,3.47-.13,6.95-.32,10.41,0,1.93.17,3.94.35,5.71,1.2,3.03,1.45,2.38,4.12-.52,5.27Z"/>
    <path class="cls-3" d="m214.12,85.31c-3.94-4.46-9.46-5.41-15.98-4.58-13.01,1.66-23.85,9.37-31.73,19.85-4.84,6.44-9.54,13.24-11.44,21.18-1.48,6.17-2.36,13.32,1.1,19.02,7.08,11.63,25.7,6.76,34.73.96,11.66-7.5,21.67-21.06,26.06-34.17,2.31-6.9,2.33-16.51-2.75-22.25Zm-7.74,33.3c-7.35,11.8-17.94,22.99-32.28,25.38-3.45.57-7.29.72-10.58-.7-4.75-2.05-6.57-6.91-6.61-11.79-.07-7.89,2.97-15.11,7.07-21.67,4.05-6.48,8.35-12.82,14.53-17.46,5.46-4.1,22.32-14.26,31.35-6.44,2.97,2.57,4.25,7.52,4.39,11.57.25,7.64-3.96,14.86-7.86,21.11Z"/>
  </g>
</svg>