<?xml version="1.0" encoding="UTF-8"?>
<svg id="allergen_icons" data-name="allergen icons" xmlns="http://www.w3.org/2000/svg" viewBox="0 0 311.43 314.01">
  <defs>
    <style>
      .cls-1 {
        fill: #e7c5b4;
      }

      .cls-2 {
        fill: #efd8cd;
      }

      .cls-3 {
        fill: #c97e57;
      }
    </style>
  </defs>
  <g>
    <path class="cls-1" d="m108.42,101.02c4.35-.42,6.97-11.89,3.08-10.92-1.09.27-3.45,2.87-4.34,4.9-.81,1.85-2.47,6.38,1.27,6.02Z"/>
    <path class="cls-1" d="m102.32,169.74c.93-.74,1.66-1.79,2.27-2.79.62-1.01,1.16-2.07,1.26-3.28.14-1.14-.19-2.16-.98-3.05-3.72-3.34-6.25,3.05-6.48,5.39-.19.95-.08,2.29.38,3.17.91,1.73,2.43,1.69,3.55.56Z"/>
    <path class="cls-1" d="m110.59,177.9c-2.05-1-3.21,1.98-3.42,3.5-.2,1.45-.67,4.79,1.62,4.8,2.28,0,3.5-2.89,3.52-4.76.01-1.35-.4-2.9-1.72-3.54Z"/>
    <path class="cls-1" d="m115.13,109.29c-1,.47-2.12,2.84-2.29,4.58-.22,2.3,1.15,5.64,3.99,4.44,1.96-.83,3.43-3.81,3.24-5.86-.29-3.1-2.85-4.15-4.94-3.17Z"/>
    <path class="cls-1" d="m94.29,177.35c-3.66-1.64-4.39,4.8-3.48,6.07,1.23,1.74,2.57.17,3.13-1.07.5-1.12,1.71-4.4.35-5Z"/>
    <path class="cls-1" d="m130.61,92.86c1.29-1.55,1.5-4.08-.14-5.41-2.07-1.67-6.64-1.12-5.29,4.61.6,2.56,3.84,2.7,5.43.79Z"/>
    <path class="cls-1" d="m101.73,191.93c-1.58-.59-3.01-.87-3.93.42-1.55,2.15-1.53,6.08.04,8.28,2.07,2.92,5.26,1.63,6.12-1.43.66-2.34.45-6.27-2.23-7.27Z"/>
    <path class="cls-2" d="m220.75,129.85c-2.17-2.83-6.29-6.27-9.78-6.85-14.09-2.37-20.86,2.26-30.27,10.62-10.74,9.55-14.01,23.06-17.74,36.26-.14.48-.69.86-1.16.92-15.52,2.17-32,10.08-40.5,23.8-7.74,12.49-9.24,31.25,4.7,39.89,11.29,7,28.27,8.2,39.25.13,5.91-4.34,10.07-10.55,13.05-17.16,3.38-7.49,4.42-15.86,8.59-22.94.62-1.05,16.07-7.18,22.04-12.06,6.22-5.09,11.46-11.39,14.7-18.78,3.27-7.46,4.4-15.94,2.1-23.84-1.04-3.59-2.71-7.01-4.99-9.99Zm-44.93,72.23c-1.96,11.73-8.68,22.53-19.46,28.02-9.97,5.07-23.05,4.64-29.51-5.66-6.49-10.33-2.44-23.61,5.07-32.19,5.76-6.59,13.69-10.58,22.1-12.13,11.75-2.17,16.69-.22,19.3,2.98,4.08,5.01,3.5,13.03,2.51,18.98Zm8.7-20.53c-9.95-3.81-10.6-14.6-8.65-23.65,1.18-5.48,3.96-10.76,7.52-15.2,10.05-12.52,20.76-12.63,26.07-11.23,4.9,1.28,9.29,4.16,10.43,9.36,3.92,17.8-14.37,48.78-35.37,40.73Z"/>
    <path class="cls-1" d="m208.88,135.49c-4.78-1.4-12.32-2.75-23.17,9.68-3.55,4.08-5.92,10.79-6.64,16.09-.66,4.88-.45,10.52,3.42,14.11,4.59,4.26,11.53,3.45,16.57.63,9.32-5.21,15.48-15.92,16.91-26.32.91-6.57-.01-12.13-7.09-14.2Z"/>
    <path class="cls-1" d="m169.29,184.62c-2.17-1.81-9.25-3.73-18.29-.29-7.73,2.94-14.33,8.59-18.68,15.63-3.15,5.11-5.24,11.38-3.77,17.39,1.46,5.99,5.77,11.3,12.11,12.16,12.15,1.63,23.88-8.22,28.51-18.67,2.19-4.94,3.31-10.4,3.34-15.8.02-3.66-.2-7.89-3.22-10.42Z"/>
    <path class="cls-2" d="m146.51,171.45c-.78-4.92-1.97-9.28-4.04-13.48-1.92-3.9-5.43-7.53-4.55-12.16,1.08-5.67,4.39-11.15,6.59-16.43,2.14-5.13,3.82-10.4,4.38-15.95,1.09-10.79-1.39-22.19-9.49-29.86-3.77-3.57-8.53-6.15-13.58-7.35-5.69-1.35-15.8,1.01-25.7,16.09-2.57,3.92-4.38,8.72-5.31,13.3-1.41,6.92-1.23,14.09.57,20.92,1.2,4.64,3.29,8.76,5.46,12.99.73,1.42,2.66,3.79,2.14,5.46-.09.3-.28.55-.47.8-1.68,2.19-3.75,3.97-5.63,5.97-3.15,3.35-6.1,6.95-8.11,11.11-3.44,7.1-4.11,15.31-3.56,23.07.57,8.01,2.31,16.67,7.94,22.76,2.61,2.82,5.93,4.88,9.52,6.22,2.52.94,5.17,1.18,7.75,1.67-.41-11.55,5.54-22.72,13.35-31,6.73-7.14,13.71-11.22,22.75-14.12Zm-42.41-74.94c1.04-3.5,3.5-7.13,7.26-8.01.28-.06.56-.1.85-.11.58-.02,1.15.09,1.65.38,2.27,1.33,1.97,5.16,1.55,7.33-.7,3.66-3.23,7.26-7.22,7.62-4.53.42-5.11-3.8-4.1-7.22Zm-6.56,64.95c.86-1.41,3.09-4.94,6.79-4.23,2.85.54,4.66,3.84,4.32,6.79-.4,3.53-3.45,8.26-7.07,9.15-6.06,1.49-7-6.86-4.05-11.71Zm-7.43,24.13c-1.92-1.41-2-3.96-1.25-6.09,1.26-3.58,4.82-3.88,5.56-3.53,2.74,1.27,2.61,4.69,1.57,7.04-1.02,2.32-3.41,4.4-5.88,2.58Zm16,14.43c-1.1,3.66-4.79,6.04-8.32,3.72-3.03-1.99-3.08-5.15-2.9-8.35.15-2.76,1.5-4.95,2.61-5.6,1.71-.98,3.8-1.12,5.44-.22,3.49,1.93,4.23,6.93,3.17,10.44Zm4.2-11.84c-5.72,2.07-6.55-6.26-3.97-10.2,2.13-3.25,4.33-2.91,5.53-2.29,1.54.79,2.39,2.39,2.69,4.04.6,3.29-.94,7.25-4.25,8.45Zm8.22-67.32c-3.54,2.08-7.58-.57-8.43-4.26-.74-3.21.66-6.18,2.98-8.21,4.57-4.01,8.55-.42,9.46,1.83,1.5,3.71-.64,8.66-4.01,10.64Zm7.43-35.91c2.43-1.54,5.63.06,6.91,1.62,2.05,2.5,1.54,6.19-.71,8.39-2.52,2.47-6.81,2.41-8.7-.77-2-3.37-.5-7.34,2.5-9.24Z"/>
  </g>
  <g>
    <path class="cls-3" d="m229.95,137.18c-1.7-5.05-4.81-10.91-9.27-14.52-1.92-1.56-7.14-5.82-19.79-4.28-7.5.91-14.92,4.7-20.38,9.29-11.33,9.52-19.07,25.6-20.33,40.37-3.68.65-6.88,1.35-10.42,2.41.52-5.07-2.15-10.44-4.15-14.97-1.66-3.75-4-6.41-2.88-10.81.77-3.03,2.36-6.06,3.61-8.92,4.71-10.78,8.22-21.52,6.45-33.42-1.47-9.9-6.57-19.18-14.87-24.94-3.09-2.14-6.63-3.76-10.22-4.85-2.38-.72-5.06-1.44-7.57-1.2-2.61.25-5.05,1.46-7.27,2.79-4.42,2.65-8.79,5.93-12.12,9.89-3.36,3.85-6.07,8.26-8.03,12.98-1,2.41-1.81,4.9-2.41,7.43-1.77,7.47-1.51,15.39.32,22.82,1.37,5.59,4.65,14.33,8.68,17.46-3.02,2.24-5.63,4.72-8.2,7.23-3.3,3.22-6.12,6.99-7.97,11.23-3.84,8.82-4.06,18.94-2.7,28.34,1.28,8.88,4.51,17.74,11.68,23.55,4.62,3.75,12.47,7.61,18.86,6.26.02.09.03.17.05.26,5.17,25.68,41.76,32.29,59.98,16.88,5.47-4.63,9.62-10.66,12.57-17.15,3.46-7.6,6.45-16.42,6.21-24.86.01,0,.03,0,.04,0,16.93-3.2,33.19-17.75,39.27-33.66,3.11-8.14,3.67-17.27.88-25.59Zm-119.53,79.4c-2.59-.49-5.24-.73-7.75-1.67-3.59-1.34-6.91-3.4-9.52-6.22-5.64-6.09-7.38-14.75-7.94-22.76-.55-7.77.12-15.97,3.56-23.07,2.02-4.16,4.96-7.76,8.11-11.11,1.88-2,3.95-3.78,5.63-5.97.19-.25.38-.5.47-.8.52-1.66-1.4-4.03-2.14-5.46-2.18-4.23-4.26-8.36-5.46-12.99-1.79-6.83-1.98-14-.57-20.92.94-4.58,2.74-9.39,5.31-13.3,9.91-15.07,20.01-17.44,25.7-16.09,5.05,1.2,9.81,3.78,13.58,7.35,8.1,7.67,10.58,19.07,9.49,29.86-.56,5.56-2.24,10.82-4.38,15.95-2.2,5.29-5.52,10.77-6.59,16.43-.88,4.62,2.63,8.26,4.55,12.16,2.07,4.2,3.25,8.55,4.04,13.48-9.04,2.9-16.02,6.98-22.75,14.12-7.8,8.28-13.76,19.45-13.35,31Zm113.22-52.9c-3.24,7.39-8.48,13.7-14.7,18.78-5.97,4.88-21.42,11.01-22.04,12.06-4.17,7.08-5.21,15.45-8.59,22.94-2.99,6.61-7.15,12.82-13.05,17.16-10.98,8.07-27.95,6.87-39.25-.13-13.94-8.64-12.43-27.39-4.7-39.89,8.49-13.72,24.97-21.62,40.5-23.8.47-.07,1.03-.44,1.16-.92,3.73-13.2,7-26.71,17.74-36.26,9.41-8.37,16.18-12.99,30.27-10.62,3.49.59,7.61,4.02,9.78,6.85,2.28,2.97,3.95,6.39,4.99,9.99,2.29,7.89,1.16,16.38-2.1,23.84Z"/>
    <path class="cls-3" d="m173.31,183.1c-2.6-3.2-7.55-5.15-19.3-2.98-8.41,1.55-16.34,5.54-22.1,12.13-7.51,8.59-11.55,21.86-5.07,32.19,6.46,10.3,19.54,10.73,29.51,5.66,10.78-5.49,17.5-16.29,19.46-28.02,1-5.96,1.58-13.97-2.51-18.98Zm-4.14,27.73c-4.63,10.45-16.37,20.31-28.51,18.67-6.34-.85-10.65-6.17-12.11-12.16-1.47-6.01.62-12.28,3.77-17.39,4.35-7.05,10.95-12.7,18.68-15.63,9.04-3.44,16.12-1.52,18.29.29,3.02,2.52,3.24,6.76,3.22,10.42-.03,5.4-1.15,10.86-3.34,15.8Z"/>
    <path class="cls-3" d="m219.89,140.82c-1.14-5.2-5.53-8.07-10.43-9.36-5.32-1.39-16.02-1.29-26.07,11.23-3.56,4.44-6.34,9.72-7.52,15.2-1.95,9.05-1.3,19.84,8.65,23.65,21,8.04,39.29-22.93,35.37-40.73Zm-3.92,8.87c-1.43,10.39-7.6,21.1-16.91,26.32-5.04,2.82-11.98,3.63-16.57-.63-3.87-3.59-4.08-9.23-3.42-14.11.72-5.3,3.09-12.02,6.64-16.09,10.84-12.44,18.38-11.08,23.17-9.68,7.08,2.07,8,7.63,7.09,14.2Z"/>
    <path class="cls-3" d="m112.22,88.4c-.29,0-.57.05-.85.11-3.76.87-6.23,4.51-7.26,8.01-1.01,3.42-.43,7.63,4.1,7.22,3.99-.37,6.52-3.96,7.22-7.62.42-2.17.72-6-1.55-7.33-.5-.29-1.07-.4-1.65-.38Zm-3.8,12.62c-3.74.36-2.08-4.17-1.27-6.02.89-2.03,3.25-4.64,4.34-4.9,3.9-.96,1.27,10.51-3.08,10.92Z"/>
    <path class="cls-3" d="m132.86,86.58c-1.28-1.56-4.48-3.15-6.91-1.62-3,1.89-4.49,5.87-2.5,9.24,1.89,3.18,6.17,3.24,8.7.77,2.25-2.2,2.76-5.89.71-8.39Zm-2.25,6.28c-1.59,1.91-4.83,1.77-5.43-.79-1.35-5.73,3.23-6.28,5.29-4.61,1.64,1.32,1.43,3.86.14,5.4Z"/>
    <path class="cls-3" d="m122.53,110.23c-.91-2.25-4.89-5.84-9.46-1.83-2.32,2.03-3.71,5.01-2.98,8.21.85,3.69,4.89,6.34,8.43,4.26,3.36-1.98,5.51-6.93,4.01-10.64Zm-5.7,8.08c-2.84,1.19-4.21-2.14-3.99-4.44.17-1.74,1.29-4.11,2.29-4.58,2.09-.99,4.65.06,4.94,3.17.19,2.05-1.28,5.03-3.24,5.86Z"/>
    <path class="cls-3" d="m97.54,161.47c-2.95,4.85-2.02,13.19,4.05,11.71,3.62-.89,6.67-5.62,7.07-9.15.34-2.95-1.47-6.24-4.32-6.79-3.7-.71-5.93,2.81-6.79,4.23Zm8.31,2.2c-.1,1.21-.65,2.27-1.26,3.28-.61,1.01-1.34,2.06-2.27,2.79-1.11,1.13-2.64,1.17-3.55-.56-.46-.87-.57-2.22-.38-3.17.23-2.34,2.76-8.73,6.48-5.39.79.89,1.12,1.91.98,3.05Z"/>
    <path class="cls-3" d="m94.42,175.98c-.75-.35-4.3-.05-5.56,3.53-.75,2.13-.67,4.68,1.25,6.09,2.48,1.81,4.87-.27,5.88-2.58,1.03-2.35,1.17-5.77-1.57-7.04Zm-.48,6.37c-.56,1.24-1.9,2.81-3.13,1.07-.9-1.27-.17-7.72,3.48-6.07,1.36.61.15,3.89-.35,5Z"/>
    <path class="cls-3" d="m102.94,189.59c-1.64-.91-3.73-.77-5.44.22-1.11.64-2.46,2.83-2.61,5.6-.18,3.2-.13,6.37,2.9,8.35,3.53,2.31,7.22-.06,8.32-3.72,1.06-3.51.32-8.51-3.17-10.44Zm1.03,9.6c-.86,3.06-4.05,4.35-6.12,1.43-1.57-2.21-1.59-6.14-.04-8.28.92-1.28,2.36-1.01,3.93-.42,2.68,1,2.89,4.93,2.23,7.27Z"/>
    <path class="cls-3" d="m114.56,179.74c-.3-1.65-1.15-3.25-2.69-4.04-1.21-.62-3.41-.96-5.53,2.29-2.58,3.94-1.75,12.27,3.97,10.2,3.31-1.2,4.85-5.16,4.25-8.45Zm-5.76,6.46c-2.29,0-1.82-3.35-1.62-4.8.21-1.52,1.36-4.5,3.42-3.5,1.32.64,1.74,2.19,1.72,3.54-.02,1.87-1.24,4.77-3.52,4.76Z"/>
  </g>
  <path class="cls-3" d="m289.21,143.99c-7.29-73.54-74.38-121.95-146.21-119.13C71.38,27.67,11.99,98.07,22.68,169.13c11.17,74.3,65.98,130.31,144.11,123.53,72.59-6.3,129.56-76.68,122.43-148.67-2.71-27.34,2.72,27.45,0,0Zm-21.57,55c-21.23,58.44-83.07,88.25-142.21,76.05-62.29-12.85-101.93-90.26-84.8-150.72C84.9-31.92,321.97,49.44,267.64,198.99c-8.73,24.04,8.39-23.1,0,0Z"/>
</svg>