<?xml version="1.0" encoding="UTF-8"?>
<svg id="allergen_icons" data-name="allergen icons" xmlns="http://www.w3.org/2000/svg" viewBox="0 0 311.43 314.01">
  <defs>
    <style>
      .cls-1 {
        fill: #f9eba6;
      }

      .cls-2 {
        fill: #eec600;
      }

      .cls-3 {
        fill: #fff;
      }
    </style>
  </defs>
  <path class="cls-2" d="m296.06,139.28c-7.29-73.54-74.38-121.95-146.21-119.13C78.23,22.96,18.84,93.36,29.52,164.42c11.17,74.3,65.98,130.31,144.11,123.53,72.59-6.3,129.56-76.68,122.43-148.67-2.71-27.34,2.72,27.45,0,0Zm-21.57,55c-21.23,58.44-83.07,88.25-142.21,76.05-62.29-12.85-101.93-90.26-84.8-150.72,44.27-156.24,281.34-74.89,227.01,74.67-8.73,24.04,8.39-23.1,0,0Z"/>
  <g>
    <path class="cls-1" d="m173.16,182.36c-5.69-1.75-13.49.02-20.6.25-5.28.17-8.05.75-17.77-6.02-3.71-2.59-7.61-5.21-11.94-6.64-10.91-3.61-17.19,8.45-18.71,17.32-2.93,17.06,6.07,31.29,22.32,36.91,14.58,5.04,31.08,5.71,43.22-5.05,5.42-4.8,9.36-11.22,10.92-18.32,1.74-7.93,1.49-15.71-7.44-18.46Zm-24.69,7.1c-6.25,3.61-15.36-.61-18.91-6.14-.34-.53.44-1.09.86-.65,2.43,2.51,5.79,4.09,9.2,4.76,2.87.57,5.9-.04,8.68.85.52.16.68.89.17,1.18Z"/>
    <path class="cls-1" d="m152.62,139.14c12.61-9.85,19.71-26.06,14.72-41.81-2.5-7.89-9.64-17.87-19.07-13.33-6.82,3.29-11.06,10.68-18.35,12.64-4.39,1.18-12.81-1.51-18.65-2.02-9.44-.82-15.67,7.81-17.64,16.18-3.35,14.27,3.49,28.37,16.75,34.62,14.15,6.68,30.22,3.11,42.24-6.29Zm-33.41-34.93c4.22,1.79,8.92,1.71,13.11-.12,3.65-1.6,6.3-4.65,9.77-6.49.43-.23,1.05.15.88.66-3.21,9.59-16.96,12.92-24.7,7.28-.81-.59.16-1.66.95-1.33Z"/>
    <path class="cls-1" d="m220.55,123.86c-16.78-9.24-39.25-4.3-47.75,13.17-2.75,5.66-3.59,12.44-1.63,18.48,1.83,5.62,7.52,9.93,12.66,12.43,6.15,2.98,13.53,3.07,19.19,6.97,3.01,2.07,5.43,4.81,8.73,6.48,4.19,2.12,8.5,2.2,13.1,1.43,6.66-1.13,12.33-5.38,15.49-11.32,7.12-13.35-.18-29-9.41-39.35-2.96-3.32-6.48-6.15-10.38-8.3Zm-9.52,46.94c-3.71-2.06-6.73-5.07-10.66-6.81-4.78-2.11-9.9-2.24-14.82-3.71-.51-.15-.34-.88.11-.97,8.22-1.64,24.07,1.09,26.56,10.7.18.71-.65,1.09-1.19.79Z"/>
  </g>
  <g>
    <g>
      <path class="cls-2" d="m171.32,96.36c-2.43-7.58-8-16.48-16.71-17.45-4.25-.48-8.07,1.4-11.39,3.9-3.84,2.9-7.35,7.35-11.69,10.01-6.99,4.28-17.85-4.11-26.82-1.73-7.36,1.95-12.63,9.49-15.13,16.26-5.72,15.54,1.13,32.74,15.01,41.2,15.26,9.3,34.57,7.08,48.55-3.5,14.56-11.03,24-30.46,18.17-48.68Zm-18.7,42.78c-12.02,9.39-28.09,12.96-42.24,6.29-13.25-6.25-20.09-20.35-16.75-34.62,1.96-8.37,8.2-17,17.64-16.18,5.84.51,14.25,3.2,18.65,2.02,7.3-1.96,11.53-9.36,18.35-12.64,9.43-4.54,16.57,5.44,19.07,13.33,4.99,15.75-2.11,31.96-14.72,41.81Z"/>
      <path class="cls-3" d="m127.33,109.29c-3.67,0-7.01-1.02-9.65-2.94-.62-.45-.86-1.16-.63-1.86.25-.77,1.03-1.34,1.86-1.34.24,0,.48.05.7.14,1.91.81,3.93,1.22,5.99,1.22,2.17,0,4.3-.45,6.33-1.34,1.88-.82,3.48-2.06,5.17-3.36,1.42-1.09,2.88-2.22,4.53-3.1.23-.12.48-.18.74-.18.54,0,1.04.25,1.34.68.29.4.36.9.2,1.37-2.11,6.3-8.93,10.71-16.59,10.71h0Z"/>
    </g>
    <g>
      <path class="cls-2" d="m240.22,134.11c-10.02-15.61-29.05-24.77-47.41-19.75-3.3.9-6.45,2.33-9.35,4.14-2.97,1.85-5.68,4.12-8.03,6.71-2.33,2.56-4.31,5.46-5.78,8.6-1.87,3.99-2.75,8.45-2.95,12.84-.14,2.94,0,5.92.93,8.73,1.15,3.46,3.22,6.56,5.78,9.15.58.59,1.19,1.15,1.83,1.69,2.97,2.53,6.44,4.48,10.04,5.94,4.26,1.73,8.96,2.12,13.15,3.93,4.04,1.74,6.86,5.31,10.62,7.5,3.28,1.91,7.07,2.97,10.83,3.43,7.63.93,15.61-2.52,20.78-8.08,12.43-13.36,8.56-30.8-.43-44.82Zm.12,37.39c-3.16,5.93-8.83,10.19-15.49,11.32-4.59.78-8.91.69-13.1-1.43-3.29-1.67-5.72-4.4-8.73-6.48-5.65-3.9-13.04-3.99-19.19-6.97-5.15-2.5-10.83-6.82-12.66-12.43-1.97-6.04-1.13-12.82,1.63-18.48,8.5-17.47,30.96-22.41,47.75-13.17,3.9,2.15,7.42,4.97,10.38,8.3,9.23,10.35,16.53,26,9.41,39.35Z"/>
      <path class="cls-3" d="m211.44,171.9c-.32,0-.63-.08-.9-.23-1.65-.91-3.17-2.01-4.63-3.07-1.96-1.41-3.8-2.75-5.94-3.7-2.76-1.22-5.6-1.75-8.61-2.31-2-.37-4.07-.75-6.1-1.36-.65-.19-1.06-.78-1.03-1.45.03-.71.55-1.32,1.22-1.46,1.55-.31,3.3-.46,5.21-.46,9.36,0,20.4,3.72,22.52,11.9.13.51.03,1.04-.28,1.45-.34.43-.88.69-1.46.69h0Z"/>
    </g>
    <g>
      <path class="cls-2" d="m185.75,195.2c-.56-9.07-6.04-15.67-15.18-16.92-8.2-1.12-14.79,2.4-25.26.13-5.03-1.09-11.05-5.67-12.21-6.47-3.57-2.47-7.19-5.3-11.54-6.19-7.56-1.54-13.97,3.39-17.57,9.69-8.85,15.51-4.06,36.2,9.17,47.6,12.56,10.82,34.27,14.31,49.55,7.75,13.56-5.82,23.96-20.56,23.03-35.59Zm-5.15,5.62c-1.55,7.09-5.5,13.51-10.92,18.32-12.14,10.76-28.64,10.09-43.22,5.05-16.25-5.62-25.25-19.85-22.32-36.91,1.52-8.87,7.8-20.92,18.71-17.32,4.33,1.43,8.23,4.05,11.94,6.64,9.72,6.77,12.49,6.19,17.77,6.02,7.11-.23,14.91-2,20.6-.25,8.93,2.74,9.17,10.52,7.44,18.46Z"/>
      <path class="cls-3" d="m143.2,191.8c-5.43,0-11.52-3.34-14.48-7.94-.3-.47-.32-1.03-.06-1.52.28-.5.82-.83,1.4-.83.41,0,.79.16,1.08.46,2.13,2.2,5.21,3.79,8.68,4.47,1.17.23,2.38.25,3.67.28,1.68.03,3.42.06,5.12.6.64.2,1.1.77,1.17,1.43.07.64-.24,1.24-.8,1.57-1.7.98-3.64,1.48-5.77,1.48h0Z"/>
    </g>
  </g>
</svg>