<?xml version="1.0" encoding="UTF-8"?>
<svg id="allergen_icons" data-name="allergen icons" xmlns="http://www.w3.org/2000/svg" viewBox="0 0 311.43 314.01">
  <defs>
    <style>
      .cls-1 {
        fill: #fff;
      }

      .cls-2 {
        fill: #b6dba7;
      }

      .cls-3 {
        fill: #d3e9ca;
      }

      .cls-4 {
        fill: #6eb74e;
      }
    </style>
  </defs>
  <g>
    <path class="cls-2" d="m171.2,121.54c-7.11,8.95-6.29,22.36,5.92,25.93,9.49,2.77,19.93-3.07,23.61-12.05,1.53-3.75,1.79-8.01,1.01-11.96-.58-2.93-1.89-5.23-3.29-7.56-.7-1.16-4.19-4.66-8.65-4.78-7.34-.2-13.8,4.39-18.6,10.43Z"/>
    <path class="cls-2" d="m172.68,216.96c-5.34-1.17-10.7.8-12.72,1.96-7.04,4.04-12.61,13.25-11.89,20.27,1.28,12.43,18.13,13.02,27.26,10.48,7.84-2.18,25.56-11.49,16.8-21.72-4.9-5.72-12.02-9.37-19.44-11Z"/>
    <path class="cls-3" d="m186.68,62.29c-4.06-4.88-6.29-4.54-7.75-2.6-.72.96-1.16,3.01-1.24,4.21-.75,8.18,3.77,15.9,10.04,20.95,3.79,3.05,7.88,4.27,12.16,5.47-2.14-5.26-3.67-10.84-6.01-16-1.78-3.91-4.43-8.72-7.19-12.04Z"/>
    <path class="cls-2" d="m151.02,150.1c-18.2.12-33.65,31.12-12.28,39.39,10.32,3.99,21.53-.45,26.76-10.07,2.59-4.77,3.22-10.49,1.62-15.69-1.43-4.66-4.69-13.71-16.1-13.64Z"/>
    <path class="cls-2" d="m216.57,191.24c-3.94-2.86-6.73-3.83-13.68-3.69-2.94.06-12.14,1.17-12.74,11.17-.43,7.29,3.53,15.48,9.53,18.65,6.99,3.69,16.21,1.6,20.85-4.86,4.74-6.59,2.48-16.6-3.96-21.27Z"/>
    <path class="cls-2" d="m97.48,189c-6.52,5.14-13.57,17.4-7.74,25.15,6.27,8.34,18.14,6.2,24.8-.42,5.87-5.84,9.33-16.15,5.07-23.48-4.29-7.39-15.91-6.15-22.12-1.25Z"/>
    <path class="cls-3" d="m225.35,87.01c-6.75.03-13.7.85-19.47,4.34,2.13.91,4.18,2.04,6.31,2.98,3.93,1.73,8,3.14,12.18,4.15,4.14,1,28,4.64,22.48-4.38-4.18-6.83-14.4-7.11-21.5-7.09Z"/>
    <path class="cls-3" d="m169.75,108.99c-8.95,8.21-12.87,17.48-13.97,33.43-11.45-1.06-19.46-1.12-26.66,6.18-3.93,3.99-6.55,8.45-7.72,15.47-1.36,8.18.84,17.37-1.43,16.23-5.86-2.94-11-4.85-17.55-3.2-5.6,1.41-10.48,4.69-14.55,8.73-9.22,9.14-17.12,25.08-8.07,36.81,7.71,9.99,22.56,10.93,33.59,6.55,10.68-4.24,17.62-13.27,23.38-22.76.65-1.07,2.41,1.32,8.06,1.61,3.37.18,6.78-.39,10.05-1.23,5.88-1.5,11.44-4.42,15.83-8.63,4.05-3.89,7.21-8.74,9.05-14.05.95-2.76,1.57-4.25,2.16-7.1.66-3.22,1.1-7.31,1.54-8.92,4.68-2.05,11.95-5.32,16.24-9.77,4.78-4.95,8.34-11.05,10.13-17.7,1.76-6.52,2.6-13.84,1.12-20.44-1.44-6.44-3.83-11.57-8.97-14.9-9.8-6.35-23.28-4.49-32.22,3.7Zm-54.19,108.91c-8.7,7.14-22.79,7.84-29.3-2.64-6.31-10.15,1.64-24.64,10.61-30.5,4.45-2.91,9.72-3.2,14.48-2.4,11.74,1.97,13.91,12.04,13.8,16.31-.19,7.24-4.44,15-9.59,19.23Zm54.34-38.55c-3.81,9.45-13.05,15.74-23.26,15.69-9.92-.05-21.02-6.19-22-16.88-.86-9.43,4.13-19.13,11.4-24.93,4.77-3.81,12.17-6.94,18.49-5.83,2.44.43,11.19.79,15.9,15.47,1.72,5.38,1.6,11.21-.53,16.48Zm35.81-54.84c1.05,5.84-.23,12.11-3.66,16.97-6.54,9.29-19.84,13.13-29.97,7.59-26.73-14.61,7.84-51.71,25.7-37.93,4.1,3.17,7.06,8.52,7.94,13.36Z"/>
  </g>
  <path class="cls-4" d="m295.89,142.02c-7.29-73.54-74.38-121.95-146.21-119.13C78.06,25.7,18.67,96.1,29.35,167.16c11.17,74.3,65.98,130.31,144.11,123.53,72.59-6.3,129.56-76.68,122.43-148.67-2.71-27.34,2.72,27.45,0,0Zm-21.57,55c-21.23,58.44-83.07,88.25-142.21,76.05-62.29-12.85-101.93-90.26-84.8-150.72,44.27-156.24,281.34-74.89,227.01,74.67-8.73,24.04,8.39-23.1,0,0Z"/>
  <g>
    <path class="cls-4" d="m252.65,95.92c-.93-9.94-13.8-12.83-21.72-12.84-9.17-.02-18.64,1.05-25.95,6.62.66-5.09.94-10.17.34-15.29-.88-7.58-3.11-17.64-10.49-21.45-.92-.48-1.73.51-1.5,1.37.85,3.2,2.51,6.06,3.8,9.1,1.75,4.13,2.87,8.44,3.36,12.9.35,3.17.42,6.29.37,9.4-.38-1.26-.79-2.5-1.2-3.72-1.69-5.06-3.56-10.15-6.09-14.86-2.39-4.45-11.71-18.01-17.35-10.35-5.24,7.12-.52,19.48,4.13,25.58,4.32,5.68,12.38,11.52,20.14,12.07-.13,2.42-.41,4.27-.47,6.72-9.66-5.27-24.09-2.48-32.57,4.72-9.45,8.03-15.48,22.1-13.46,34.61-9.73-3.57-21.53-.53-28.7,6.9-3.58,3.71-5.74,8.26-6.65,13.32-.83,4.61-1.81,11.08-.35,16.01-5.74-5.57-16.8-4-23.28-.77-10.32,5.15-18.03,15.59-21.58,26.41-3.81,11.6.59,23.28,11.06,29.6,10.03,6.05,22.42,6.08,32.92,1.23,9.44-4.36,18.83-12.87,20.58-23.48,3.31,2.22,9.96,1.75,13.04,1.5,7.23-.59,14.21-3.22,20.01-7.59,5.65-4.25,9.84-10,12.45-16.55,1.82-4.56,3.98-11.45,2.37-16.59,6.29-1.19,12.33-5.58,16.82-9.84,5.64-5.37,9.74-12.12,11.9-19.6,2.32-8.03,2.16-16.86-.21-24.85-1.64-5.53-7.33-12.26-12.63-14.13,1.51-1.89,2.15-4.39,2.54-6.91,3.09,2.19,6.9,3.59,10.34,4.76,5.28,1.79,10.8,2.88,16.35,3.38,5.49.49,22.57,2.37,21.66-7.38Zm-74.96-32.03c.08-1.19.52-3.25,1.24-4.21,1.46-1.94,3.69-2.29,7.75,2.6,2.76,3.32,5.41,8.13,7.19,12.04,2.34,5.16,3.87,10.74,6.01,16-4.28-1.2-8.36-2.42-12.16-5.47-6.27-5.05-10.79-12.77-10.04-20.95Zm24.28,41.39c5.14,3.33,7.53,8.46,8.97,14.9,1.48,6.6.64,13.93-1.12,20.44-1.8,6.65-5.35,12.75-10.13,17.7-4.3,4.45-11.56,7.72-16.24,9.77-.44,1.61-.88,5.71-1.54,8.92-.58,2.86-1.21,4.35-2.16,7.1-1.83,5.32-4.99,10.16-9.05,14.05-4.39,4.21-9.95,7.13-15.83,8.63-3.27.84-6.68,1.41-10.05,1.23-5.65-.3-7.41-2.68-8.06-1.61-5.75,9.49-12.7,18.52-23.38,22.76-11.02,4.38-25.87,3.44-33.59-6.55-9.05-11.72-1.15-27.66,8.07-36.81,4.07-4.04,8.95-7.32,14.55-8.73,6.55-1.65,11.69.26,17.55,3.2,2.27,1.14.07-8.05,1.43-16.23,1.17-7.02,3.78-11.48,7.72-15.47,7.2-7.3,15.21-7.24,26.66-6.18,1.1-15.95,5.02-25.22,13.97-33.43,8.94-8.2,22.42-10.06,32.22-3.7Zm22.4-6.81c-4.17-1-8.25-2.42-12.18-4.15-2.14-.94-4.18-2.07-6.31-2.98,5.77-3.49,12.72-4.31,19.47-4.34,7.11-.03,17.32.26,21.5,7.09,5.52,9.02-18.34,5.38-22.48,4.38Z"/>
    <path class="cls-4" d="m205.71,124.51c-.87-4.84-3.83-10.2-7.94-13.36-17.86-13.78-52.43,23.32-25.7,37.93,10.14,5.54,23.43,1.7,29.97-7.59,3.43-4.87,4.71-11.14,3.66-16.97Zm-4.99,10.91c-3.68,8.98-14.12,14.82-23.61,12.05-12.21-3.56-13.03-16.97-5.92-25.93,4.8-6.05,11.26-10.63,18.6-10.43,4.46.12,7.96,3.62,8.65,4.78,1.4,2.34,2.71,4.63,3.29,7.56.78,3.95.53,8.22-1.01,11.96Z"/>
    <path class="cls-4" d="m170.43,162.87c-4.7-14.67-13.46-15.04-15.9-15.47-6.32-1.11-13.71,2.02-18.49,5.83-7.27,5.8-12.26,15.5-11.4,24.93.98,10.69,12.08,16.83,22,16.88,10.2.05,19.45-6.24,23.26-15.69,2.13-5.27,2.25-11.1.53-16.48Zm-4.93,16.55c-5.23,9.63-16.44,14.07-26.76,10.07-21.37-8.27-5.92-39.27,12.28-39.39,11.41-.08,14.66,8.98,16.1,13.64,1.6,5.19.97,10.91-1.62,15.69Z"/>
    <path class="cls-4" d="m111.35,182.37c-4.77-.8-10.03-.51-14.48,2.4-8.96,5.85-16.91,20.35-10.6,30.5,6.51,10.48,20.6,9.78,29.3,2.64,5.15-4.23,9.4-11.99,9.59-19.23.11-4.27-2.07-14.34-13.8-16.31Zm3.19,31.36c-6.66,6.62-18.52,8.77-24.8.42-5.82-7.75,1.22-20.01,7.74-25.15,6.21-4.9,17.83-6.14,22.12,1.25,4.26,7.33.8,17.64-5.07,23.48Z"/>
    <path class="cls-4" d="m198.05,231.4c-.92-6.12-6.85-10.16-11.9-12.83-4.77-2.52-9.81-4.2-15.08-4.33-1.49-.04-7.75-.73-13.7,3.64-6.42,4.72-11.81,12.99-11.97,19.9-.32,13.98,15.99,17.62,27.05,15.79,9.92-1.64,27.5-9.49,25.6-22.17Zm-22.73,18.27c-9.14,2.54-25.99,1.95-27.26-10.48-.72-7.02,4.85-16.23,11.89-20.27,2.03-1.16,7.38-3.13,12.72-1.96,7.43,1.63,14.54,5.28,19.44,11,8.76,10.23-8.95,19.54-16.8,21.72Z"/>
    <path class="cls-4" d="m221.83,189.59c-3.92-4.11-9.45-6.1-15.07-6.09-2.66,0-5.8.37-8.67,1.3-2.59.84-7.86,2.39-9.23,9.27-1.71,8.59.61,19.63,6.81,24.84,7.92,6.66,19.84,5.32,26.81-2.12,7.06-7.54,6.35-19.85-.65-27.2Zm-1.31,22.92c-4.64,6.46-13.86,8.55-20.85,4.86-6-3.17-9.96-11.36-9.53-18.65.59-10,9.8-11.1,12.74-11.17,6.95-.15,9.74.82,13.68,3.69,6.44,4.67,8.69,14.68,3.96,21.27Z"/>
  </g>
  <path class="cls-1" d="m174.71,134.62c-.46,0-.88-.18-1.16-.51-.27-.31-.39-.71-.33-1.13,1-7.72,6.67-16.2,15.58-17.44h.07s.17-.02.17-.02c.77,0,1.43.55,1.56,1.3.13.74-.3,1.45-1.03,1.71-5.62,2-8.34,6.65-11.22,11.58-.73,1.26-1.49,2.56-2.3,3.8-.28.43-.77.69-1.32.69h0Z"/>
  <path class="cls-1" d="m135.33,173.22c-.46,0-.89-.21-1.19-.56-.29-.36-.41-.83-.32-1.29,1.73-8.89,10.21-14.43,16.94-16.47.18-.05.36-.08.54-.08.82,0,1.5.58,1.66,1.41.16.85-.29,1.68-1.1,2-7.24,2.89-11.35,8.41-15.27,14.3-.3.44-.76.7-1.28.7h0Z"/>
  <path class="cls-1" d="m95.67,209.19c-.47,0-.91-.21-1.2-.56-.29-.36-.4-.83-.31-1.31,1.84-9.03,8.23-16.16,16.28-18.17.16-.04.33-.06.49-.06.93,0,1.71.68,1.87,1.62.15.91-.35,1.72-1.25,2.02-5.53,1.85-8.39,6.33-11.41,11.07-1,1.57-2.04,3.2-3.19,4.73-.31.41-.78.65-1.28.65h0Z"/>
  <path class="cls-1" d="m195.59,202.29c-.59,0-1.11-.34-1.34-.88-.84-1.91-.23-4.33,1.8-7.2,1.51-2.12,3.56-3.7,6.11-4.69.22-.09.44-.13.66-.13.79,0,1.46.57,1.63,1.38.19.87-.25,1.74-1.05,2.1-1.87.83-3.4,2.2-4.44,3.94-.34.58-.56,1.27-.79,2-.3.95-.61,1.92-1.23,2.79-.31.42-.83.69-1.36.69h0Z"/>
</svg>