<?xml version="1.0" encoding="UTF-8"?>
<svg id="allergen_icons" data-name="allergen icons" xmlns="http://www.w3.org/2000/svg" viewBox="0 0 311.43 314.01">
  <defs>
    <style>
      .cls-1 {
        fill: #9fdde9;
      }

      .cls-2 {
        fill: #c5ebf2;
      }

      .cls-3 {
        fill: #3ebcd3;
      }
    </style>
  </defs>
  <g>
    <path class="cls-2" d="m215.04,115.24c-6.41-10.9-16.14-19.46-27.94-24.05-18.65-7.25-35.9-3.93-48.49,2.52-18.07,9.27-28.72,24.48-32.83,45.66-4.65,24.02,5.6,47.56,28.35,57.89,24.57,11.16,56.95,4.43,74.77-15.76,16.71-18.94,18.97-44.42,6.13-66.25Zm-69.22,3.27c-7.72-2.99-11.18,6.67-9.92,12.69.99,4.75,4.51,8.12,6.86,12.19,3.85,6.68,5.61,14.94,1.78,22.04-3.22,5.98-10.21,9.33-16.79,6.96-6.18-2.23-9.56-9.3-6.14-15.07.53-.9,2.11-1.24,2.51.02,1.48,4.57,2.19,10.29,8.22,10.15,4.51-.1,7.55-3.95,8.47-8.08,1.95-8.73-4.87-14.82-8.16-22.05-2.73-5.99-2.18-14.07,2.19-19.21,3.18-3.74,8.9-5.32,12.09-.83.54.76-.4,1.47-1.1,1.19Zm21.24,52.91c-13.12,4.48-16.25-16.24-16.86-24.68-.54-7.46.33-15.59,3.04-22.61,1.36-3.54,3.28-5.79,6.35-7.29,3.65-1.78,8.13.26,10.67,3.29,4.33,5.18,6.81,12.62,7.97,19.15,1.75,9.91.44,28.17-11.17,32.13Zm29.68,1c-4.75,1.78-10.83,1.09-15.87,1.31-1.45.06-2.4-1.88-1.56-3.01,2.66-3.57,5.77-7.04,7.54-11.18.86-2.01,1.92-4.77,1.86-6.98-.1-3.51-2.08-4.08-4.9-4.43-.65-.08-.64-.97-.2-1.28,4.68-3.18,8.92,1.07,8.75,5.94-.23,6.4-3.62,11.74-7.29,16.74,3.95-.34,8.13-.72,11.68.34,1.16.34,1.03,2.16,0,2.55Z"/>
    <path class="cls-2" d="m169.63,128.78c-2.07-4.34-3.71-7.25-6.99-8.15-4.8-1.31-6.73,7.49-7.1,9.29-.97,4.72-1.25,9.61-1,14.42.27,5.21,2.36,25.24,11.08,22.42,4.53-1.47,6.66-8.33,7.57-12.44.93-4.19.98-8.52.39-12.77-.62-4.41-2.04-8.75-3.96-12.77Z"/>
    <path class="cls-1" d="m96.32,196.73c-6.71-5.37-15.4-4.46-22.66.95-9.08,6.77-8.57,18.98-.75,26.51,7.69,7.41,20.09,7.37,27.12-.91,3.15-3.71,4.35-8.55,3.67-13.33-.55-3.88-3.27-9.94-7.38-13.22Z"/>
    <path class="cls-1" d="m235.3,194.87c-21.34-.07-20.64,26.18-13.25,29.54,8.1,3.69,17.91-.51,22.11-8.02,2.02-3.62,3.32-8.74,2.05-12.84-1.43-4.63-5.31-8.66-10.91-8.68Z"/>
  </g>
  <path class="cls-3" d="m290.05,150.48c-7.29-73.54-74.38-121.95-146.21-119.13C72.22,34.16,12.83,104.56,23.52,175.62c11.17,74.3,65.98,130.31,144.11,123.53,72.59-6.3,129.56-76.68,122.43-148.67-2.71-27.34,2.72,27.45,0,0Zm-21.57,55c-21.23,58.44-83.07,88.25-142.21,76.05-62.29-12.85-101.93-90.26-84.8-150.72C85.74-25.43,322.81,55.92,268.48,205.48c-8.73,24.04,8.39-23.1,0,0Z"/>
  <g>
    <path class="cls-3" d="m239.34,192.03c-5.5-1.47-11.43-.43-16.29,2.45-1.46.87-3.11,2.08-4.56,3.52-1.77-1.42-7.14-5.6-9.75-7.84,18.53-17.94,24.44-45.63,14.48-69.69-5.78-13.95-16.74-24.83-30.37-31.48-8.73-4.25-27.28-8.5-43.2-4.25-23.49,6.27-41.74,22.9-49.1,46.36-5.99,19.1-2.54,40.26,9.14,55.89-1.58,1.4-7.85,6.71-9.42,8.21-.06-.02-.13-.04-.2-.06-13.75-12.64-40.64-2.79-38.32,17.82,1.16,10.29,9.53,19.2,19.43,21.76,9.71,2.52,20.63-2.3,25.64-10.91,4.05-6.96,4.22-20.68-2.63-26.49,1.38-1.25,6.18-6.43,7.38-7.96,3.62,4.35,7.93,8.2,12.89,11.37,24.06,15.36,59.52,10.81,80.79-7.35.49-.42.96-.85,1.44-1.28,1.39,1.64,6.52,5.87,9.36,8.63-5.6,8.71-6.7,21.32,3.48,27.02,10.32,5.78,23.45.97,29-9.05,5.76-10.41,3.25-23.37-9.19-26.69Zm-139.32,31.24c-7.02,8.28-19.42,8.32-27.12.91-7.82-7.53-8.33-19.74.75-26.51,7.26-5.41,15.95-6.32,22.66-.95,4.1,3.28,6.82,9.34,7.38,13.22.68,4.78-.53,9.62-3.67,13.33Zm34.12-26.02c-22.75-10.34-33-33.88-28.35-57.89,4.1-21.18,14.75-36.39,32.83-45.66,12.59-6.46,29.84-9.77,48.49-2.52,11.8,4.59,21.53,13.15,27.94,24.05,12.84,21.84,10.58,47.32-6.13,66.25-17.82,20.19-50.2,26.93-74.77,15.76Zm110.02,19.13c-4.21,7.52-14.01,11.72-22.11,8.02-7.38-3.37-8.08-29.62,13.25-29.54,5.6.02,9.47,4.05,10.91,8.68,1.27,4.1-.02,9.23-2.05,12.84Z"/>
    <path class="cls-3" d="m145.82,118.51c.71.27,1.64-.44,1.1-1.19-3.19-4.49-8.9-2.91-12.09.83-4.37,5.13-4.91,13.22-2.19,19.21,3.29,7.23,10.11,13.33,8.16,22.05-.92,4.14-3.96,7.98-8.47,8.08-6.03.14-6.74-5.58-8.22-10.15-.41-1.25-1.98-.91-2.51-.02-3.43,5.77-.05,12.84,6.14,15.07,6.58,2.37,13.57-.98,16.79-6.96,3.83-7.11,2.07-15.36-1.78-22.04-2.35-4.08-5.86-7.44-6.86-12.19-1.26-6.02,2.2-15.67,9.92-12.69Z"/>
    <path class="cls-3" d="m178.22,139.28c-1.15-6.53-3.63-13.97-7.97-19.15-2.54-3.04-7.02-5.07-10.67-3.29-3.07,1.5-4.99,3.76-6.35,7.29-2.71,7.02-3.58,15.15-3.04,22.61.61,8.44,3.75,29.16,16.86,24.68,11.61-3.97,12.92-22.22,11.17-32.13Zm-5.03,15.04c-.92,4.11-3.04,10.97-7.57,12.44-8.72,2.83-10.81-17.2-11.08-22.42-.25-4.81.03-9.69,1-14.42.37-1.81,2.3-10.6,7.1-9.29,3.28.9,4.92,3.8,6.99,8.15,1.91,4.02,3.34,8.36,3.96,12.77.59,4.24.54,8.58-.39,12.77Z"/>
    <path class="cls-3" d="m196.75,169.87c-3.54-1.05-7.73-.68-11.68-.34,3.68-5,7.06-10.33,7.29-16.74.17-4.87-4.07-9.12-8.75-5.94-.45.3-.45,1.2.2,1.28,2.82.35,4.81.92,4.9,4.43.06,2.2-1,4.97-1.86,6.98-1.77,4.13-4.88,7.6-7.54,11.18-.85,1.14.11,3.08,1.56,3.01,5.03-.22,11.12.47,15.87-1.31,1.04-.39,1.17-2.2,0-2.55Z"/>
  </g>
</svg>