<?xml version="1.0" encoding="UTF-8"?>
<svg id="allergen_icons" data-name="allergen icons" xmlns="http://www.w3.org/2000/svg" viewBox="0 0 311.43 314.01">
  <defs>
    <style>
      .cls-1 {
        fill: #f7ece6;
      }

      .cls-2 {
        fill: #e9cbbc;
      }

      .cls-3 {
        fill: #efd8cd;
      }

      .cls-4 {
        fill: #c97e57;
      }
    </style>
  </defs>
  <path class="cls-4" d="m292.02,130.01c-7.29-73.54-74.38-121.95-146.21-119.13C74.19,13.69,14.79,84.09,25.48,155.15c11.17,74.3,65.98,130.31,144.11,123.53,72.59-6.3,129.56-76.68,122.43-148.67-2.71-27.34,2.72,27.45,0,0Zm-21.57,55c-21.23,58.44-83.07,88.25-142.21,76.05-62.29-12.85-101.93-90.26-84.8-150.72,44.27-156.24,281.34-74.89,227.01,74.67-8.73,24.04,8.39-23.1,0,0Z"/>
  <g>
    <path class="cls-2" d="m108.96,163.37c-2.99-5.9-6.58-11.53-10.5-16.85-4.13-5.59-8.93-10.69-14.05-15.38-4.71-4.31-10.05-7.8-14.91-11.91-3.91,15.48-3.77,34.3,4.57,48.06,3.85,6.34,9.2,11.86,15.51,15.77,5.93,3.67,14.03,7.04,21.12,5.57,1.78-.37,3.3-1.17,4.63-2.25-.53-3.56-.64-7.15-1.56-10.69-1.1-4.26-2.83-8.39-4.81-12.31Z"/>
    <path class="cls-2" d="m169.87,178.06c-13.65,4.01-28.76,13.36-31.88,28.33-1.36,6.56.12,14.08,4.71,19.09,5.22,5.68,13.63,6.9,20.96,6.78,15.69-.24,29.37-8.2,40.18-19.09,5.03-5.07,9.53-10.81,13.34-16.86,3.98-6.31,6.56-12.66,8.72-19.83-18.38-2.31-38.06-3.7-56.03,1.58Zm-28.67,34.72c-.26.6-1.28.17-1.06-.44,3.7-10.05,14.24-17.84,23.02-23.35,9.15-5.74,21.26-11.66,32.28-11.61.46,0,.47.62.08.76-4.93,1.68-10.1,2.51-15.03,4.25-5.32,1.87-10.45,4.28-15.29,7.18-9.05,5.42-19.73,13.23-24.01,23.21Zm17.17,14.74c-.06,0-.05-.09,0-.09s.05.09,0,.09Zm45.14-17.14c-4.82,2.8-10.14,4.82-15.1,7.4-5,2.59-9.81,5.48-14.5,8.6-.38.25-.69-.36-.33-.62,8.89-6.21,19.08-13.21,29.68-16.03.4-.11.58.45.25.65Zm12.57-18.74c-5.1,3.22-11.03,5.12-16.54,7.54-5.44,2.39-10.85,4.89-16.12,7.63-11.46,5.95-22.13,13.13-31.44,22.11-.65.62-1.63-.32-1.01-.97,8.7-9.04,19.1-16.06,30.12-21.97,5.38-2.88,10.89-5.5,16.47-7.96,5.89-2.59,11.95-5.67,18.27-7.03.4-.09.57.44.25.65Zm5.68-14.86c.39-.03.55.6.19.76-6.31,2.75-13.25,4.18-19.72,6.62-7.33,2.76-14.46,6.03-21.34,9.78-13.63,7.44-25.03,17.07-37,26.81-.44.36-.97-.21-.6-.63,9.89-11.41,23.52-20.42,36.66-27.64,6.56-3.6,13.35-6.78,20.33-9.5,6.72-2.62,14.24-5.69,21.49-6.19Z"/>
    <path class="cls-3" d="m238.45,124.53c-5.1,1.84-10.36,3.21-15.69,4.2-10.68,1.99-21.47,2.26-32.29,1.46-10.22-.76-20.33-2.67-29.85-6.52-7.93-3.21-17.26-8.85-21.6-16.59-.08.05-.16.1-.25.14,2.38,5.87,2.65,12.89,4.49,18.94,1.97,6.49,4.9,15,11.32,18.37,2.67,1.4,5.68,1.01,8.45,2.06,3.23,1.22,6.26,3.39,9.24,5.11,3.46,2.01,6.98,4.88,10.75,6.26,3.62,1.33,6.95-.61,10.6-.68,3.21-.06,6.1,1.37,9.23,1.77,7.72.99,9.26-2.16,13.1-4.61,2.49-1.58,4.7-3.54,7.29-4.98,3.05-1.7,6.38-2.74,9.6-4.05,6.12-2.5,10.78-4.65,13.85-10.57,1.63-3.14,2.73-6.64,3.13-10.15.21-1.87.11-3.72.09-5.58-3.32,2.56-7.58,4.01-11.47,5.42Zm-69.66,12.68c-4.52,2.23-9.84-1.04-12.3-4.83-.66-1.01.83-1.95,1.55-1.02,2.73,3.53,6.53,4.04,10.6,4.79.48.09.58.84.14,1.06Zm7.81,3.92c-.3,1.08-.14,2.55-.88,3.45-.18.22-.51.14-.69-.01-1.02-.85-.59-2.73-.32-3.82.31-1.2,2.21-.81,1.89.38Zm18.94,9.04c-2.39.66-4.93-1.13-6.32-2.94-1.54-2.01-2.1-4.59-1.78-7.06.11-.84,1.44-.66,1.45.15.02,2.13.82,3.98,2.24,5.55,1.32,1.45,3.02,2.12,4.54,3.25.38.28.38.91-.14,1.05Zm15.44-7.46c-.08.43-.64.38-.83.1-.39-.56-.65-1.21-1.07-1.75-.45-.57-1.03-.96-1.69-1.24-.87-.36-.16-1.66.71-1.29,1.56.67,3.23,2.35,2.89,4.18Zm12.01-3.02c-.91-.27-.56-1.5.34-1.39,5.61.65,9.75-3.37,12.92-7.43.3-.38.93-.28.94.26.22,7.09-8.33,10.29-14.2,8.56Z"/>
    <path class="cls-2" d="m121.58,127.27c-2.43-6.55-6.15-12.28-9.56-18.29-1.47,7.8-2.76,15.66-3.22,23.58-.25,4.38-.34,8.76-.14,13.14.13,2.8.47,5.59.47,8.36,2.07,3.75,3.87,7.65,5.46,11.66,1.94,4.9,4.37,11.34,3.91,17.1,2.44-3.66,3.9-8.34,5.03-12.11,2.25-7.51,2.83-15.35,2.37-23.16-.41-6.96-1.9-13.75-4.32-20.28Z"/>
    <path class="cls-3" d="m247.74,103.82c-1.41-2.86-2.85-5.72-4.52-8.44-1.94-3.14-4.27-6.17-7.24-8.4-2.63-1.98-5.84-2.73-8.57-4.5-3.57-2.33-4.72-5.84-9.81-5.42-2.86.24-5.65,1.16-8.55,1.05-5.71-.22-9.48-4.4-14.43-6.58-6.6-2.91-13.65-1.52-19.03,3.1-2.06,1.77-3.99,3.57-6.51,4.68-3.53,1.55-7.6,1.71-11.06,3.43-9.14,4.56-9.67,17.43-17.43,23.31,3.43,2.42,6.56,5.15,10.2,7.34,4.44,2.68,9.26,4.8,14.17,6.46,8.34,2.81,17.14,4.32,25.9,4.99,10.63.81,21.57.49,32.1-1.26,4.57-.76,9.09-1.84,13.49-3.28,4.7-1.53,9.15-4.24,14.02-5.12.07-.06.13-.11.21-.15-.34-1.91-.12-3.8-.6-5.69-.48-1.94-1.45-3.73-2.32-5.51Zm-78.04,5c-2.74,1.75-6.59.48-8.8-1.57-2.65-2.47-3.35-6.3-2.16-9.64.23-.66,1.35-.65,1.31.15-.14,2.6.76,5.2,2.67,7,1.97,1.85,4.31,2.16,6.8,2.84.56.15.67.9.18,1.21Zm3.28-13.72c-.08.2-.31.4-.54.3-.47-.2-.76-.6-1.19-.84-1.11-.64.1-2.23.98-1.39.5.48,1.05,1.2.75,1.93Zm6.53-12.66c4-4.31,12.22-5.87,16.34-.79.31.39.03,1.07-.53.9-5.15-1.59-10.11-2.16-14.74,1.17-.79.57-1.7-.6-1.07-1.28Zm3.9,15.89c-.62-1.06.91-2.1,1.6-1.06,2.42,3.65,6.64,4.91,10.84,5.1.44.02.68.67.23.88-4.82,2.25-10.15-.6-12.67-4.92Zm15.99,19.34c-3.69-1.57-7.65-2.18-11.65-1.98-.42.02-.61-.65-.21-.82,4.34-1.82,8.92-1.04,12.5,1.98.5.42-.16,1.03-.64.82Zm8.52-29.13c-.61.86-2-.34-1.23-1.14.35-.36.68-.82,1.18-.95.37-.1.86.18.83.61-.05.62-.41.97-.78,1.48Zm9.69-1.28c4.46-1.34,8.64,2.44,10.5,6.2.45.92-.76,1.72-1.36.86-2.32-3.33-5.83-4.31-9.27-6.03-.45-.22-.3-.89.14-1.02Zm-7.48,13.72c-1.12-.39-.46-2.34.65-1.97.99.32,1.97.5,3.02.48.92-.02,1.89-.23,2.77.07.32.11.61.54.36.87-1.47,1.95-4.85,1.23-6.81.55Zm7,12.76c-.87-.27-.57-1.6.34-1.39,2.93.68,5.83.09,8.43-1.39,2.53-1.44,3.91-3.66,5.96-5.59.36-.34.98-.1.98.4.11,7.38-10.26,9.67-15.71,7.97Zm25.64-8.58c-.18.25-.41.36-.72.31-.69-.11-.96-.8-1.39-1.27-.42-.46-.95-.9-1.51-1.19-.86-.44-.34-1.75.57-1.56.85.17,1.62.52,2.23,1.15.58.6,1.43,1.71.82,2.56Z"/>
    <path class="cls-1" d="m103.37,145.07c.37.5.72,1,1.08,1.51-.22-4.31.09-8.7.34-12.56.44-6.83,1.6-13.54,3.6-20.02-4.32-3.35-11.42-5.24-16.46-3.5-5.62,1.94-7.95,7.88-10.63,12.88,8.7,5.69,16.28,13.93,22.07,21.69Z"/>
  </g>
  <g>
    <g>
      <path class="cls-4" d="m169.51,107.61c-2.49-.68-4.82-.99-6.8-2.84-1.91-1.8-2.81-4.4-2.67-7,.04-.8-1.08-.8-1.31-.15-1.19,3.34-.49,7.17,2.16,9.64,2.2,2.05,6.06,3.32,8.8,1.57.49-.31.38-1.06-.18-1.21Z"/>
      <path class="cls-4" d="m195.84,81.66c-4.12-5.08-12.34-3.52-16.34.79-.63.68.28,1.85,1.07,1.28,4.63-3.33,9.6-2.75,14.74-1.17.56.17.84-.52.53-.9Z"/>
      <path class="cls-4" d="m195.85,102.38c-4.2-.19-8.41-1.45-10.84-5.1-.69-1.04-2.22,0-1.6,1.06,2.52,4.32,7.84,7.17,12.67,4.92.45-.21.21-.86-.23-.88Z"/>
      <path class="cls-4" d="m231.86,105.37c-2.05,1.92-3.43,4.15-5.96,5.59-2.6,1.48-5.5,2.07-8.43,1.39-.91-.21-1.21,1.12-.34,1.39,5.45,1.71,15.83-.59,15.71-7.97,0-.51-.62-.74-.98-.4Z"/>
      <path class="cls-4" d="m228.11,93.46c-1.86-3.76-6.03-7.54-10.5-6.2-.43.13-.58.8-.14,1.02,3.44,1.72,6.95,2.7,9.27,6.03.6.87,1.81.06,1.36-.86Z"/>
      <path class="cls-4" d="m216.58,99.55c-.88-.3-1.86-.08-2.77-.07-1.04.02-2.03-.16-3.02-.48-1.11-.36-1.77,1.59-.65,1.97,1.96.68,5.34,1.4,6.81-.55.25-.33-.04-.76-.36-.87Z"/>
      <path class="cls-4" d="m168.65,136.16c-4.08-.75-7.87-1.26-10.6-4.79-.72-.93-2.21,0-1.55,1.02,2.46,3.79,7.77,7.06,12.3,4.83.44-.21.34-.97-.14-1.06Z"/>
      <path class="cls-4" d="m195.68,149.12c-1.53-1.13-3.23-1.8-4.54-3.25-1.42-1.57-2.23-3.42-2.24-5.55,0-.81-1.34-.98-1.45-.15-.32,2.47.24,5.05,1.78,7.06,1.39,1.81,3.93,3.6,6.32,2.94.52-.14.52-.77.14-1.05Z"/>
      <path class="cls-4" d="m236.25,130.87c-3.16,4.06-7.3,8.08-12.92,7.43-.9-.1-1.25,1.13-.34,1.39,5.87,1.72,14.41-1.47,14.2-8.56-.02-.54-.65-.64-.94-.26Z"/>
      <g>
        <path class="cls-4" d="m130.85,145.28c-1.21-13.94-6.24-30.38-17.48-39.51-.86-.7-2.24.02-2.34,1-.67,1.57-1.26,3.16-1.81,4.76-3.34-4.15-12.91-5.81-16.85-5.26-6.79.94-12.88,8.28-13.99,15.34-3.01-1.71-5.8-3.36-9.27-4.18-.95-.23-1.64,1.31-1.75,1.64-5.07,14-6.15,28.67-.61,42.8,4.63,11.8,13.62,22,25.13,27.46,11.17,5.3,24.58,6.55,31.23-5.73,6.2-11.44,8.86-25.38,7.74-38.3Zm-38.92-34.78c5.04-1.74,12.14.15,16.46,3.5-2.01,6.48-3.16,13.19-3.6,20.02-.25,3.86-.55,8.25-.34,12.56-.36-.5-.71-1.01-1.08-1.51-5.79-7.76-13.38-16-22.07-21.69,2.68-5.01,5.01-10.94,10.63-12.88Zm18.76,78.11c-7.08,1.47-15.19-1.89-21.12-5.57-6.31-3.91-11.66-9.43-15.51-15.77-8.35-13.76-8.49-32.58-4.57-48.06,4.86,4.1,10.2,7.59,14.91,11.91,5.12,4.69,9.93,9.79,14.05,15.38,3.92,5.32,7.51,10.95,10.5,16.85,1.98,3.92,3.71,8.05,4.81,12.31.91,3.54,1.03,7.14,1.56,10.69-1.33,1.08-2.85,1.88-4.63,2.25Zm12.83-17.91c-1.13,3.77-2.59,8.45-5.03,12.11.46-5.75-1.96-12.2-3.91-17.1-1.59-4.01-3.39-7.91-5.46-11.66,0-2.78-.33-5.56-.47-8.36-.21-4.39-.12-8.76.14-13.14.46-7.93,1.75-15.78,3.22-23.58,3.41,6.02,7.14,11.74,9.56,18.29,2.42,6.53,3.91,13.32,4.32,20.28.46,7.8-.12,15.65-2.37,23.16Z"/>
        <path class="cls-4" d="m250.7,101.58c-2.44-4.96-5.17-10.01-8.98-14.07-1.61-1.71-3.4-3.25-5.42-4.47-2.86-1.72-6.28-2.43-8.75-4.76-3.62-3.41-6.01-5.02-11.19-4.35-3.46.45-6.73,1.47-10.11.04-2.8-1.19-4.92-3.53-7.37-5.26-4.34-3.06-9.66-4.23-14.9-3.45-5.01.74-8.8,3.19-12.54,6.44-4.86,4.22-11.11,4.53-16.31,8.04-3.99,2.7-6.32,6.82-8.37,11.07-2.59,5.36-4.88,9.96-8.74,14.49-.35.09-1.04.38-1.12.82-.99,6.1.86,13.33,2.36,19.25,1.42,5.6,3.4,11.27,6.7,16.06,2.71,3.93,6.38,7.13,11.21,7.93,7.45,1.24,13.91,6.38,20.47,10.07,2.12,1.2,4.25,2.41,6.7,2.73,2.93.39,5.45-.8,8.28-1.29,3.7-.64,7.05.96,10.65,1.42,2.81.36,5.66.12,8.37-.67,6.11-1.78,9.86-7,15.5-9.59,5.22-2.39,10.45-3.79,14.97-7.5,7.29-5.98,14.92-19.28,10.54-28.87,3.14-4.06.02-10.07-1.96-14.1Zm-92.68-18.84c3.46-1.72,7.53-1.88,11.06-3.43,2.52-1.11,4.45-2.9,6.51-4.68,5.38-4.62,12.43-6.01,19.03-3.1,4.95,2.18,8.73,6.36,14.43,6.58,2.9.11,5.69-.82,8.55-1.05,5.09-.42,6.23,3.09,9.81,5.42,2.72,1.77,5.93,2.52,8.57,4.5,2.97,2.23,5.3,5.26,7.24,8.4,1.67,2.72,3.12,5.58,4.52,8.44.87,1.78,1.84,3.58,2.32,5.51.47,1.89.25,3.79.6,5.69-.07.04-.14.09-.21.15-4.86.89-9.32,3.59-14.02,5.12-4.4,1.43-8.92,2.52-13.49,3.28-10.53,1.75-21.46,2.07-32.1,1.26-8.76-.67-17.56-2.18-25.9-4.99-4.91-1.66-9.73-3.78-14.17-6.46-3.63-2.19-6.77-4.92-10.2-7.34,7.76-5.88,8.29-18.75,17.43-23.31Zm91.82,41.95c-.4,3.51-1.51,7.01-3.13,10.15-3.07,5.92-7.72,8.07-13.85,10.57-3.22,1.31-6.55,2.35-9.6,4.05-2.58,1.44-4.8,3.4-7.29,4.98-3.84,2.45-5.37,5.6-13.1,4.61-3.13-.4-6.02-1.84-9.23-1.77-3.65.07-6.98,2.01-10.6.68-3.77-1.39-7.29-4.26-10.75-6.26-2.97-1.72-6.01-3.9-9.24-5.11-2.77-1.05-5.79-.66-8.45-2.06-6.42-3.37-9.35-11.89-11.32-18.37-1.84-6.05-2.11-13.07-4.49-18.94.08-.05.16-.1.25-.14,4.34,7.74,13.68,13.38,21.6,16.59,9.52,3.85,19.63,5.77,29.85,6.52,10.82.8,21.6.53,32.29-1.46,5.33-.99,10.59-2.36,15.69-4.2,3.89-1.4,8.14-2.85,11.47-5.42.02,1.86.13,3.72-.09,5.58Z"/>
        <path class="cls-4" d="m229.96,176.58c-.3-1.68-6.05-2.62-7.54-2.93-17.92-3.65-36.46-5.28-54.43.02-14.83,4.37-30.44,14.29-34.58,30.15-3.84,14.69,4.22,29.22,19.18,32.55,17.05,3.79,34.5-2.26,47.8-12.92,7.19-5.77,13.68-12.75,19.2-20.13,5.45-7.29,12.08-17.23,10.37-26.74Zm-12.78,19.73c-3.81,6.04-8.31,11.79-13.34,16.86-10.81,10.9-24.49,18.85-40.18,19.09-7.33.11-15.74-1.1-20.96-6.78-4.6-5.01-6.08-12.53-4.71-19.09,3.11-14.98,18.22-24.32,31.88-28.33,17.97-5.28,37.66-3.89,56.03-1.58-2.16,7.17-4.74,13.52-8.72,19.83Z"/>
      </g>
      <path class="cls-4" d="m200.04,116.86c-3.58-3.02-8.16-3.8-12.5-1.98-.4.17-.21.84.21.82,3.99-.2,7.95.41,11.65,1.98.49.21,1.14-.39.64-.82Z"/>
      <path class="cls-4" d="m208.1,138.53c-.86-.37-1.58.92-.71,1.29.66.28,1.24.67,1.69,1.24.43.54.69,1.19,1.07,1.75.2.29.76.33.83-.1.34-1.83-1.33-3.51-2.89-4.18Z"/>
      <path class="cls-4" d="m174.72,140.75c-.28,1.09-.7,2.97.32,3.82.19.15.51.23.69.01.74-.89.58-2.37.88-3.45.33-1.19-1.58-1.58-1.89-.38Z"/>
      <path class="cls-4" d="m172.22,93.17c-.88-.84-2.09.75-.98,1.39.43.25.72.65,1.19.84.23.1.46-.1.54-.3.3-.74-.25-1.46-.75-1.93Z"/>
      <path class="cls-4" d="m207.87,86.46c-.5.13-.83.59-1.18.95-.77.8.62,2,1.23,1.14.37-.51.72-.86.78-1.48.04-.43-.46-.7-.83-.61Z"/>
      <path class="cls-4" d="m241.95,102.6c-.6-.63-1.38-.97-2.23-1.15-.92-.19-1.43,1.12-.57,1.56.55.29,1.09.73,1.51,1.19.43.47.7,1.16,1.39,1.27.31.05.54-.06.72-.31.61-.85-.24-1.96-.82-2.56Z"/>
    </g>
    <path class="cls-4" d="m195.44,177.39c-11.02-.05-23.13,5.86-32.28,11.61-8.78,5.51-19.32,13.3-23.02,23.35-.22.6.8,1.04,1.06.44,4.27-9.98,14.95-17.79,24.01-23.21,4.84-2.9,9.97-5.3,15.29-7.18,4.93-1.74,10.1-2.57,15.03-4.25.39-.13.38-.76-.08-.76Z"/>
    <path class="cls-4" d="m221.74,176.79c-7.25.5-14.77,3.57-21.49,6.19-6.97,2.72-13.77,5.9-20.33,9.5-13.14,7.22-26.77,16.23-36.66,27.64-.37.42.16.99.6.63,11.97-9.74,23.38-19.37,37-26.81,6.87-3.75,14.01-7.02,21.34-9.78,6.47-2.44,13.41-3.87,19.72-6.62.36-.16.21-.78-.19-.76Z"/>
    <path class="cls-4" d="m158.37,227.44c-.06,0-.07.09,0,.09s.07-.09,0-.09Z"/>
    <path class="cls-4" d="m215.82,191c-6.32,1.36-12.38,4.44-18.27,7.03-5.58,2.45-11.1,5.07-16.47,7.96-11.02,5.91-21.42,12.94-30.12,21.97-.63.65.36,1.6,1.01.97,9.31-8.98,19.98-16.17,31.44-22.11,5.28-2.74,10.68-5.24,16.12-7.63,5.51-2.42,11.44-4.32,16.54-7.54.33-.21.16-.74-.25-.65Z"/>
    <path class="cls-4" d="m203.25,209.74c-10.6,2.82-20.79,9.82-29.68,16.03-.36.25-.05.87.33.62,4.69-3.12,9.5-6,14.5-8.6,4.96-2.57,10.28-4.6,15.1-7.4.33-.19.15-.75-.25-.65Z"/>
  </g>
</svg>