<?xml version="1.0" encoding="UTF-8"?>
<svg id="allergen_icons" data-name="allergen icons" xmlns="http://www.w3.org/2000/svg" viewBox="0 0 311.43 314.01">
  <defs>
    <style>
      .cls-1 {
        fill: #f9eba6;
      }

      .cls-2 {
        fill: #eec600;
      }
    </style>
  </defs>
  <path class="cls-2" d="m293.39,142.02c-7.29-73.54-74.38-121.95-146.21-119.13C75.56,25.7,16.17,96.1,26.86,167.16c11.17,74.3,65.98,130.31,144.11,123.53,72.59-6.3,129.56-76.68,122.43-148.67-2.71-27.34,2.72,27.45,0,0Zm-21.57,55c-21.23,58.44-83.07,88.25-142.21,76.05-62.29-12.85-101.93-90.26-84.8-150.72,44.27-156.24,281.34-74.89,227.01,74.67-8.73,24.04,8.39-23.1,0,0Z"/>
  <path class="cls-2" d="m210.89,180.18c-10.96,1.99-21.26,6.51-30.2,13.16-5.81,4.32-11.59,9.9-15.71,16.28.55-6.09.84-12.19.91-18.3,0-.66,0-1.32,0-1.98,3.68-.4,7.57-2.07,10.44-3.35,5.55-2.5,10.62-6.04,14.69-10.58,8.87-9.89,12.62-23.05,16.27-35.51.7-2.39-2.08-3.57-3.88-2.69-14.43,7.02-30.57,17.56-38.41,32.39-.52-5.43-1.26-10.83-2.29-16.17,11.1-1.74,19.04-11.64,23.85-21.16,5.67-11.2,8.95-25.8,7.07-38.29-.21-1.39-2.06-1.91-3.05-1-3.87,3.56-8.59,5.94-12.36,9.75-3.74,3.78-6.93,8.07-9.63,12.64-4.08,6.89-7.78,15.22-9.4,23.47-.98-3.35-2.09-6.67-3.32-9.97.21-.22.32-.53.32-.85,3.97-12.59,6.1-28.15,2.79-41.05-3.29-12.84-12.42-19.87-22.84-27.01-1.2-.82-2.57.05-2.79,1.35-2.58,15.14-6.29,31.96-1.39,47.01,1.83,5.61,4.99,10.85,9.36,14.85,3.18,2.9,8.1,6.5,12.69,6.19.66,3.84,1.29,7.69,1.87,11.55-1.46-1.74-3.15-3.31-4.51-4.69-3.72-3.79-7.67-7.38-11.9-10.61-9.32-7.11-20.45-11.68-32.17-12.44-1.07-.07-2.31,1.02-2.19,2.15,1.46,13.45,6.38,26.33,17.47,34.69,9.24,6.97,24.33,11.23,35.32,5.93.81,7.02,1.41,14.05,1.75,21.09-1.41-1.76-3.01-3.37-4.24-4.69-3.89-4.19-8.38-7.96-13.22-11.01-10.13-6.38-21.86-9.89-33.77-10.64-.81-.05-1.85.59-1.81,1.51.32,7.51,3.91,15.06,7.25,21.68,3.11,6.18,6.92,11.95,12.28,16.41,5.25,4.37,11.89,6.68,18.63,7.4,3.95.42,10.26.81,15.06-1.19-.28,8.33-1.05,16.65-2.15,24.91-1.41-2.36-3.22-4.53-4.87-6.53-3.65-4.42-8.13-8.22-12.93-11.33-9.6-6.22-21.16-9.37-32.48-10.3-1.08-.09-2.33,1.09-1.93,2.24,4.16,11.78,10.92,23.32,21.75,30.04,5.11,3.17,11.05,5.04,16.97,6.15,3.32.62,8.05,1.34,11.82.34-.39,2.17-.78,4.33-1.15,6.5-.83,4.85-2.41,10.06-2.17,14.97.04.79,1.21,1.28,1.71.58,2.94-4.08,4.21-9.66,5.54-14.45,1.06-3.81,1.85-7.7,2.55-11.6,4.47,1.04,9.86-.32,14.09-1.4,6.13-1.56,12.02-4.46,17.06-8.29,4.88-3.71,9.1-8.29,12.31-13.5,4.13-6.69,5.72-14.37,7.66-21.89.45-1.74-1.07-3.03-2.72-2.74Zm-27.36-25.03c5.47-4.01,11.25-7.58,17.2-10.82-2.69,9.24-6.01,18.49-12.19,25.94-3.56,4.29-7.95,7.81-12.93,10.31-2.41,1.21-4.95,2.17-7.56,2.87-.75.2-1.49.36-2.22.5-.08-3.4-.23-6.79-.48-10.17,5.4-7.08,10.84-13.24,18.18-18.62Zm-29.64-29.17c-1.62-.73-3.37-1.19-4.97-2.07-2.45-1.35-4.62-3.16-6.49-5.23-4.23-4.69-6.72-10.6-7.89-16.76-2.28-11.98-.58-25.31,1.78-37.36,9.02,6.99,16.44,14.93,18.99,26.54,2.59,11.81-.3,23.09-.81,34.82-.2-.08-.42-.05-.6.06Zm-13.83,26.79c-5.66-1.12-11.04-3.49-15.57-7.07-8.71-6.87-13.11-17.21-14.72-27.94,9.27,1.16,17.82,4.93,25.64,10.05,7.73,5.06,15.43,11.23,21.26,18.48.29,2.05.56,4.11.82,6.17-5.86.47-11.48,1.48-17.42.31Zm14.23,38.72c-2.95.12-5.97-.09-8.89-.48-5.91-.78-11.26-2.81-16.02-6.41-4.69-3.54-8.47-8.16-11.53-13.15-3.03-4.94-6.99-11.29-7.78-17.25,9.73,1.06,19.05,4.07,27.64,8.83,4.04,2.24,7.94,4.78,11.53,7.69,3.48,2.82,7.98,6.31,10.58,10.46.05,1.62.09,3.24.12,4.86-.06.04.01,3.39.01,4.64-2.63.56-3.68.75-5.65.83Zm-2.95,35.68c-2.73.09-5.54-.41-8.2-1.04-4.74-1.13-9.26-3.12-13.37-5.71-8.86-5.59-15.85-13.42-19.72-23.11,9.8,1.32,19.12,4.28,27.84,9.08,7.6,4.19,15.37,10.27,19.34,18.21-.08.54-.16,1.09-.25,1.63-1.87.3-3.68.88-5.64.95Zm10.82-76.49c-.54-2.56-1.14-5.12-1.81-7.65,3-8.48,5.11-17,9.72-24.94,2.37-4.08,5.19-7.92,8.39-11.38,2.81-3.04,6.73-7.15,10.82-9.34-2.08,10.42-2.7,20.76-7.47,30.65-4.53,9.4-12.02,15.91-19.65,22.66Zm28.61,62.6c-4.41,3.46-9.33,6.17-14.62,8.03-2.62.92-5.32,1.67-8.08,2.04-1.72.23-3.31.28-4.89.53.03-.18.06-.36.09-.53.43-2.63.8-5.27,1.11-7.92,5.4-7.01,10.8-13.59,18.2-18.94,7.7-5.57,16.47-9.37,25.72-11.33-3.42,10.77-8.43,20.98-17.53,28.11Z"/>
  <g>
    <path class="cls-1" d="m135.41,127.8c-7.82-5.12-16.37-8.88-25.64-10.05,1.61,10.73,6.01,21.07,14.72,27.94,4.54,3.58,9.92,5.95,15.57,7.07,5.94,1.17,11.56.16,17.42-.31-.26-2.06-.53-4.11-.82-6.17-5.83-7.25-13.53-13.42-21.26-18.48Z"/>
    <path class="cls-1" d="m137.89,206.37c-8.72-4.8-18.05-7.76-27.84-9.08,3.87,9.69,10.86,17.52,19.72,23.11,4.12,2.6,8.63,4.58,13.37,5.71,2.66.63,5.47,1.14,8.2,1.04,1.96-.07,3.77-.65,5.64-.95.09-.54.17-1.08.25-1.63-3.97-7.95-11.74-14.02-19.34-18.21Z"/>
    <path class="cls-1" d="m168.05,183.43c2.61-.7,5.14-1.66,7.56-2.87,4.99-2.49,9.37-6.02,12.93-10.31,6.19-7.45,9.5-16.7,12.19-25.94-5.96,3.24-11.74,6.81-17.2,10.82-7.34,5.39-12.78,11.55-18.18,18.62.25,3.38.41,6.77.48,10.17.73-.15,1.47-.3,2.22-.5Z"/>
    <path class="cls-1" d="m155.3,91.09c-2.55-11.61-9.97-19.56-18.99-26.54-2.35,12.05-4.06,25.38-1.78,37.36,1.17,6.16,3.66,12.07,7.89,16.76,1.87,2.07,4.04,3.88,6.49,5.23,1.6.88,3.35,1.34,4.97,2.07.18-.11.4-.14.6-.06.5-11.73,3.4-23.01.81-34.82Z"/>
    <path class="cls-1" d="m159.93,186.01c-.02-1.62-.06-3.24-.12-4.86-2.6-4.15-7.1-7.64-10.57-10.46-3.59-2.91-7.49-5.45-11.53-7.69-8.58-4.75-17.91-7.77-27.64-8.83.79,5.96,4.75,12.31,7.78,17.25,3.06,4.99,6.84,9.61,11.53,13.15,4.76,3.6,10.11,5.63,16.02,6.41,2.93.39,5.94.6,8.89.48,1.97-.08,3.02-.27,5.65-.83,0-1.25-.07-4.6-.01-4.64Z"/>
    <path class="cls-1" d="m181.8,128.01c4.77-9.89,5.39-20.23,7.47-30.65-4.08,2.19-8.01,6.3-10.82,9.34-3.2,3.46-6.02,7.3-8.39,11.38-4.62,7.93-6.72,16.46-9.72,24.94.67,2.54,1.27,5.09,1.81,7.65,7.63-6.75,15.11-13.26,19.65-22.66Z"/>
    <path class="cls-1" d="m164.38,215.42c-.32,2.65-.68,5.29-1.11,7.92-.03.18-.06.36-.09.53,1.58-.25,3.17-.3,4.89-.53,2.76-.37,5.46-1.12,8.08-2.04,5.29-1.86,10.21-4.57,14.62-8.03,9.1-7.14,14.11-17.35,17.53-28.11-9.25,1.96-18.02,5.75-25.72,11.33-7.39,5.35-12.8,11.93-18.2,18.94Z"/>
  </g>
</svg>